SplineFontDB: 3.2
FontName: UnicodiaHari
FullName: UnicodiaHari
FamilyName: UnicodiaHari
Weight: Medium
Copyright: Created by Edward Trager with FontForge 2.0 (http://fontforge.sf.net)
UComments: "2012-6-14: Created."
Version: 001.000
ItalicAngle: 0
UnderlinePosition: -100
UnderlineWidth: 50
Ascent: 350
Descent: 180
InvalidEm: 0
LayerCount: 3
Layer: 0 0 "Back" 1
Layer: 1 0 "Fore" 0
Layer: 2 0 "Back 2" 1
XUID: [1021 905 1981438309 2329242]
StyleMap: 0x0000
FSType: 0
OS2Version: 0
OS2_WeightWidthSlopeOnly: 0
OS2_UseTypoMetrics: 1
CreationTime: 1339689063
ModificationTime: 1710672774
PfmFamily: 17
TTFWeight: 500
TTFWidth: 5
LineGap: 42
VLineGap: 42
OS2TypoAscent: 650
OS2TypoAOffset: 0
OS2TypoDescent: -350
OS2TypoDOffset: 0
OS2TypoLinegap: 42
OS2WinAscent: 632
OS2WinAOffset: 0
OS2WinDescent: 350
OS2WinDOffset: 0
HheadAscent: 632
HheadAOffset: 0
HheadDescent: -350
HheadDOffset: 0
OS2Vendor: 'PfEd'
Lookup: 4 8 0 "IgnoreCombiningMarksSubstitutions" { "Medial_La_Subtable"  "LowTa_LowTha_Subtable"  } ['ccmp' ('DFLT' <'dflt' > ) ]
Lookup: 4 0 0 "DontIgnoreCombiningMarksSubstitutions" { "Nam_Water_Subtable"  "PhothiSubtable"  } ['ccmp' ('DFLT' <'dflt' > ) ]
Lookup: 4 0 0 "VowelAndToneAboveLigatures" { "VowelAndToneAboveLigatures subtable"  } ['ccmp' ('DFLT' <'dflt' > ) ]
Lookup: 4 8 0 "NaLigatures" { "PrioritizedHoSubNo"  "NaLigatures subtable"  } ['ccmp' ('DFLT' <'dflt' > ) ]
Lookup: 4 0 0 "SubjoinedConsonantsWithVowels" { "SubjoinedConsonantsWithVowels subtable"  } ['ccmp' ('DFLT' <'dflt' > ) ]
Lookup: 4 12 0 "SubjoinedConsonants" { "SubjoinedConsonants subtable"  } ['ccmp' ('DFLT' <'dflt' > ) ]
Lookup: 1 0 0 "prefPreBaseFormsinlanalookup0" { "prefPreBaseFormsinlanalookup0 subtable"  } ['pref' ('DFLT' <'dflt' > ) ]
Lookup: 4 8 0 "IgnoreCombiningMarksSubstitutions-0" { "IgnoreCombiningMarksSubstitutions-0 subtable"  } ['ccmp' ('DFLT' <'dflt' > ) ]

StartChar: uni1A20
Encoding: 6688 6688 0
GlifName: uni1A_20
Width: 550
VWidth: 0
GlyphClass: 2
Flags: W
HStem: 0 25<146.848 176.446> 56 26<146.945 176.362> 270 40<143.351 226.777 325.471 406.649>
VStem: 35 40<91.1371 201.159> 177 26<25.6152 55.4591> 255 40<20 242.68> 475 40<96.0541 201.159>
AnchorPoint: "Bottom_Sara_U" 363 -45 basechar 0
AnchorPoint: "Bottom_Sara_UU" 344 -45 basechar 0
AnchorPoint: "BottomSubjoinedConsonant" 339 -45 basechar 0
AnchorPoint: "BottomWithRightVerticalStem" 514 -45 basechar 0
AnchorPoint: "TopPositioningForSara_I" 360 352 basechar 0
AnchorPoint: "TopRightAlignedMarks" 490 352 basechar 0
AnchorPoint: "TopPositioningForMaiKang" 361 352 basechar 0
AnchorPoint: "TopPositioningForMaiEekMaiKoo" 361 352 basechar 0
AnchorPoint: "TopCenteredOnCenter" 275 352 basechar 0
AnchorPoint: "TopSara_II" 358 352 basechar 0
LayerCount: 3
Fore
SplineSet
255 215 m 2
 255 251.532409222 211.537649372 270 191 270 c 0
 133 270 75 223 75 150 c 0
 75 93 97 69 119 55 c 0
 120 54 121 54 122 53 c 1
 127 70 144 82 162 82 c 0
 185 82 203 63 203 40 c 0
 203 17 185 0 162 0 c 0
 127 0 117 9 98 21 c 0
 67 41 35 82 35 150 c 0
 35 245 111 310 191 310 c 0
 214 310 238 301 258 285 c 0
 264 280 270 275 275 269 c 1
 281.875618684 277.250742421 314.045748515 310 359 310 c 0
 439 310 515 245 515 150 c 0
 515 85 485 43 453 24 c 0
 448.027977502 21.1588442867 445.452379221 18.4438161638 445.452379221 16.4372313331 c 0
 445.452379221 14.4249118306 448.042720279 13.1250907642 453.40411705 13.1250907642 c 0
 457.749963694 13.1250907642 463.916509342 13.9791273355 472 16 c 1
 473 14 472 14 472 14 c 1
 472 14 440 0 416 0 c 0
 402 0 391 4 389 19 c 1
 389 21 l 2
 389 52.3872530202 475 46.6534446542 475 150 c 0
 475 223 417 270 359 270 c 0
 333.234389221 270 295 243.484702357 295 215 c 2
 295 20 l 1
 295 20 297 0 275 0 c 0
 253 0 255 20 255 20 c 1
 255 215 l 2
162 56 m 0
 153 56 146 49 146 40 c 0
 146 31 153 25 162 25 c 0
 171 25 177 31 177 40 c 0
 177 49 171 56 162 56 c 0
EndSplineSet
EndChar

StartChar: uni1A21
Encoding: 6689 6689 1
GlifName: uni1A_21
Width: 442
VWidth: 0
GlyphClass: 2
Flags: W
HStem: -10 40<105.406 273.824> 121 38<117.946 267.657> 180 26<61.5539 91.4591> 273 37<85.0989 160.732 257.855 326.602>
VStem: 35 40<51.5328 93.6847> 35 26<206.554 234.752> 92 26<206.638 235.304> 364 40<110.214 230.221> 408 23<-95.132 -6.30366>
AnchorPoint: "Bottom_Sara_U" 317 -45 basechar 0
AnchorPoint: "Bottom_Sara_UU" 298 -45 basechar 0
AnchorPoint: "BottomSubjoinedConsonant" 219 -44 basechar 0
AnchorPoint: "BottomWithRightVerticalStem" 419 -45 basechar 0
AnchorPoint: "TopPositioningForSara_I" 239 352 basechar 0
AnchorPoint: "TopRightAlignedMarks" 365 352 basechar 0
AnchorPoint: "TopPositioningForMaiKang" 292 353 basechar 0
AnchorPoint: "TopPositioningForMaiEekMaiKoo" 292 353 basechar 0
AnchorPoint: "TopCenteredOnCenter" 208 352 basechar 0
AnchorPoint: "TopSara_II" 237 352 basechar 0
LayerCount: 3
Fore
SplineSet
208 222 m 0xfb80
 180 222 179 273 123 273 c 0
 105 273 93 270 84 261 c 1
 103 257 118 241 118 221 c 0
 118 198 99 180 76 180 c 0
 53 180 35 198 35 221 c 0xf780
 35 259 57 310 123 310 c 0
 160 310 185 295 200 280 c 0
 203 277 207 276 209 273 c 1
 217 281 l 2
 232 295 257 310 292 310 c 0
 382 310 404 227 404 175 c 0
 404 140 398 108 383 81 c 1
 418 45 431 11 431 -36 c 0
 431 -96 399 -133 399 -133 c 1
 396 -130 l 1
 396 -130 408 -109 408 -72 c 0
 408 -14 387 21 361 50 c 1
 317 7 257 -10 197 -10 c 0
 155 -10 85 -8 51 30 c 0
 41 41 35 56 35 72 c 0
 35 103 62 159 197 159 c 0
 258 159 312 138 352 109 c 1
 360 128 364 150 364 175 c 0
 364 212 348 247 337 255 c 0
 325 265 308 270 291 270 c 0
 236 270 238 222 208 222 c 0xfb80
76 236 m 0
 67 236 61 230 61 221 c 0
 61 212 67 206 76 206 c 0
 85 206 92 212 92 221 c 0
 92 230 85 236 76 236 c 0
75 72 m 0xfb80
 75 55 95 30 196 30 c 0
 245 30 296 40 332 78 c 1
 299 102 251 121 196 121 c 0
 153 121 75 109 75 72 c 0xfb80
EndSplineSet
EndChar

StartChar: uni1A22
Encoding: 6690 6690 2
GlifName: uni1A_22
Width: 437
VWidth: 0
GlyphClass: 2
Flags: W
HStem: -10 40<103.967 271.062> 121 38<116.829 264.524> 180 26<61.666 90.4461> 273 37<83.5957 159.266 256.416 326.008> 534 21G<440.5 478> 594 35<178.119 340.037>
VStem: 35 40<51.2575 93.7216> 35 26<206.76 235.315> 39 40<301 527.085> 91 26<206.554 235.389> 363 40<111.076 229.791> 408 24<-95.6871 -9.12104>
AnchorPoint: "Bottom_Sara_UU" 296 -46 basechar 0
AnchorPoint: "Bottom_Sara_U" 316 -45 basechar 0
AnchorPoint: "BottomSubjoinedConsonant" 216 -45 basechar 0
AnchorPoint: "BottomWithRightVerticalStem" 419 -46 basechar 0
AnchorPoint: "TopPositioningForSara_I" 250 352 basechar 0
AnchorPoint: "TopPositioningForMaiKang" 288 352 basechar 0
AnchorPoint: "TopPositioningForMaiEekMaiKoo" 288 352 basechar 0
AnchorPoint: "TopRightAlignedMarks" 362 338 basechar 0
AnchorPoint: "TopCenteredOnCenter" 204 352 basechar 0
AnchorPoint: "TopSara_II" 264 352 basechar 0
LayerCount: 3
Fore
SplineSet
40 498 m 0xfcf0
 40 593 165 629 243 629 c 0
 354 629 420 595 478 536 c 1
 475 534 l 1
 406 582 341 594 279 594 c 0
 194 594 162 579 138 566 c 0
 110 551 80 534 80 497 c 0
 80 433 79 348 79 301 c 1xfcf0
 91 307 105 310 122 310 c 0
 160 310 192 293 208 270 c 1
 212 274 236 310 288 310 c 2
 291 310 l 2
 335 310 399 289 403 175 c 1
 403 168 l 2
 403 136 396 106 382 81 c 1
 411 51 432 10 432 -37 c 0
 432 -97 398 -133 398 -133 c 1
 396 -130 l 1
 396 -130 408 -109 408 -73 c 0
 408 -36 395 14 363 50 c 1
 319 7 256 -9 196 -10 c 1
 184 -10 l 2
 74 -10 35 32 35 72 c 1xfe70
 37 127 100 159 187 159 c 2
 197 159 l 1
 258 157 311 138 351 109 c 1
 358 126 363 147 363 169 c 2
 363 175 l 1
 361 229 344 270 291 270 c 0
 233 270 239 222 207 222 c 0
 179 222 180 271 123 273 c 1
 118 273 l 2
 103 273 91 269 83 261 c 1
 102 257 117 241 117 221 c 0
 117 198 99 180 76 180 c 0
 53 180 37 198 35 221 c 1
 35 229 l 2xfd70
 35 238 36 247 39 255 c 1
 39 262 40 419 40 498 c 0xfcf0
76 236 m 0
 67 236 61 230 61 221 c 0xfd70
 61 212 67 206 76 206 c 0
 85 206 91 212 91 221 c 0
 91 230 85 236 76 236 c 0
75 72 m 0xfe70
 75 38 140 30 180 30 c 2
 196 30 l 1
 245 32 296 40 332 78 c 1
 299 102 250 119 195 121 c 1
 184 121 l 2
 160 121 75 111 75 72 c 0xfe70
EndSplineSet
EndChar

StartChar: uni1A23
Encoding: 6691 6691 3
GlifName: uni1A_23
Width: 470
VWidth: 0
GlyphClass: 2
Flags: W
HStem: 0 56<311.045 343.592> 0 26<136.079 163.392> 56 26<134.459 163.446> 271 39<168.035 302.165>
VStem: 35 40<96.773 193.751> 164 26<26.5539 55.4461> 395 40<106.223 194.174>
AnchorPoint: "Bottom_Sara_U" 275 -45 basechar 0
AnchorPoint: "Bottom_Sara_UU" 258 -45 basechar 0
AnchorPoint: "BottomSubjoinedConsonant" 239 -45 basechar 0
AnchorPoint: "BottomWithRightVerticalStem" 435 -45 basechar 0
AnchorPoint: "TopCenteredOnCenter" 234 352 basechar 0
AnchorPoint: "TopPositioningForSara_I" 274 352 basechar 0
AnchorPoint: "TopSara_II" 260 352 basechar 0
AnchorPoint: "TopRightAlignedMarks" 402 352 basechar 0
AnchorPoint: "TopPositioningForMaiKang" 296 352 basechar 0
AnchorPoint: "TopPositioningForMaiEekMaiKoo" 296 352 basechar 0
LayerCount: 3
Fore
SplineSet
148 0 m 2x7e
 98 0 35 80 35 151 c 0
 35 237 128 310 235 310 c 0
 343 310 435 241 435 150 c 0
 435 101 408 58 366 29 c 2
 354 21 l 2
 347.752057774 17.7116093547 345.07257485 15.0720294916 345.07257485 13.1523785208 c 0
 345.07257485 10.7424851154 349.295390423 9.46718634066 355.982219767 9.46718634066 c 0
 360.166852265 9.46718634066 365.316462509 9.9666295471 371 11 c 1
 371 9 372 9 372 9 c 1
 372 9 345 0 322 0 c 0
 305 0 289 5 289 22 c 0
 289 38 310 43 334 56 c 0x9e
 369 73 395 112 395 150 c 0
 395 215 325 271 235 271 c 0
 145 271 75 215 75 150 c 0
 75 122 81 89 111 57 c 1
 117 72 132 82 149 82 c 0
 172 82 190 64 190 41 c 0
 190 18 170 0 151 0 c 2
 148 0 l 2x7e
149 56 m 0x7e
 140 56 134 50 134 41 c 0
 134 32 140 26 149 26 c 0
 158 26 164 32 164 41 c 0
 164 50 158 56 149 56 c 0x7e
EndSplineSet
EndChar

StartChar: uni1A24
Encoding: 6692 6692 4
GlifName: uni1A_24
Width: 471
VWidth: 0
GlyphClass: 2
Flags: W
HStem: 0 56<311.045 343.592> 0 26<135.536 163.392> 56 26<134.459 163.446> 271 39<167.852 302.165> 599 31<166.777 314.814>
VStem: 35 40<97.0312 193.615 371.594 529.484> 164 26<26.5539 55.4461> 395 40<106.223 194.174>
AnchorPoint: "Bottom_Sara_U" 275 -45 basechar 0
AnchorPoint: "Bottom_Sara_UU" 258 -46 basechar 0
AnchorPoint: "BottomSubjoinedConsonant" 239 -45 basechar 0
AnchorPoint: "BottomWithRightVerticalStem" 435 -44 basechar 0
AnchorPoint: "TopCenteredOnCenter" 234 352 basechar 0
AnchorPoint: "TopPositioningForSara_I" 274 352 basechar 0
AnchorPoint: "TopSara_II" 260 352 basechar 0
AnchorPoint: "TopRightAlignedMarks" 402 352 basechar 0
AnchorPoint: "TopPositioningForMaiKang" 296 352 basechar 0
AnchorPoint: "TopPositioningForMaiEekMaiKoo" 296 352 basechar 0
LayerCount: 3
Fore
SplineSet
38 499 m 0x7f
 38 586 149 627 223 630 c 1
 229 630 l 2
 364 630 446 552 446 552 c 1
 445 550 l 1
 445 550 352 599 244 599 c 0
 146 599 78 552 78 499 c 0
 78 370 75 282 73 243 c 1
 110 283 169 310 235 310 c 0
 343 310 435 241 435 150 c 0
 435 101 408 58 366 29 c 2
 354 21 l 2
 347.752057774 17.7116093547 345.07257485 15.0720294916 345.07257485 13.1523785208 c 0
 345.07257485 10.7424851154 349.295390423 9.46718634066 355.982219767 9.46718634066 c 0
 360.166852265 9.46718634066 365.316462509 9.9666295471 371 11 c 1
 371 9 372 9 372 9 c 1
 372 9 345 0 322 0 c 0
 305 0 289 5 289 22 c 0
 289 38 310 43 334 56 c 1x9f
 369 73 395 112 395 150 c 0
 395 215 325 271 235 271 c 0
 145 271 75 215 75 150 c 0
 75 122 81 89 111 57 c 1
 117 72 132 82 149 82 c 0
 172 82 190 64 190 41 c 0
 190 18 170 0 151 0 c 2
 145 0 l 2
 95 0 36 80 35 150 c 0
 35 159 35 167 37 175 c 1
 37 184 38 420 38 499 c 0x7f
149 56 m 0x7f
 140 56 134 50 134 41 c 0
 134 32 140 26 149 26 c 0
 158 26 164 32 164 41 c 0
 164 50 158 56 149 56 c 0x7f
EndSplineSet
EndChar

StartChar: uni1A25
Encoding: 6693 6693 5
GlifName: uni1A_25
Width: 575
VWidth: 0
GlyphClass: 2
Flags: W
HStem: -10 40<88.5366 134.818 241.635 305.464 374.329 449.765> 42.2582 41.7418<178.196 198.145> 183 26<61.5539 90.4461> 226 42.9557<159.862 177.344> 271 40<81.9767 123.879 213.491 245.476> 278.056 21.9442<320.131 369.476 449.63 499.476>
VStem: 35 26<209.68 237.633> 37 40<40.5689 89.693> 91 26<209.554 238.378> 251 40<216.636 266.342> 308 55.5161<261.054 287.952> 370 40<97.8862 209.449> 438 55.5161<261.054 287.763> 500 40<89.312 209.449>
AnchorPoint: "Bottom_Sara_U" 421 -45 basechar 0
AnchorPoint: "Bottom_Sara_UU" 404 -45 basechar 0
AnchorPoint: "BottomSubjoinedConsonant" 344 -45 basechar 0
AnchorPoint: "BottomWithRightVerticalStem" 540 -45 basechar 0
AnchorPoint: "TopCenteredOnCenter" 330 352 basechar 0
AnchorPoint: "TopPositioningForSara_I" 385 353 basechar 0
AnchorPoint: "TopSara_II" 371 353 basechar 0
AnchorPoint: "TopRightAlignedMarks" 513 353 basechar 0
AnchorPoint: "TopPositioningForMaiKang" 407 353 basechar 0
AnchorPoint: "TopPositioningForMaiEekMaiKoo" 407 353 basechar 0
LayerCount: 3
Fore
SplineSet
188.095080438 42.2581547442 m 0xf5fc
 178.835591239 42.2581547442 165.473669726 -10 116 -10 c 2
 114 -10 l 2
 74 -10 37 23 37 68 c 0xf5fc
 37 166 251 177 251 239 c 0
 251 257 242 271 226 271 c 0
 213 271 204 226 167 226 c 0
 134 226 133 271 100 271 c 0
 93 271 86 269 80 265 c 1
 101 263 117 245 117 224 c 0
 117 201 99 183 76 183 c 0
 53 183 35 202 35 225 c 2
 35 232 l 2
 35 261 49 308 109 308 c 2
 114 308 l 2
 151.43969306 308 163.572821864 268.955666996 169.82032837 268.955666996 c 0
 174.340874132 268.955666996 176.050074083 284.963017839 195 299 c 0
 203 305 213 311 226 311 c 0xfafc
 257 311 291 284 291 239 c 1
 288 158 156 139 102 101 c 0
 85 89 77 80 77 68 c 0
 77 38 104 30 115 30 c 0
 144 30 149 84 191 84 c 0
 230 84 231 30 263 30 c 0
 316 30 370 83 370 148 c 2
 370 150 l 2
 370 245 308 254 308 281 c 0
 308 287 313 300 330 300 c 0
 355 300 391 272 391 272 c 1
 390 270 l 1
 379.207991802 275.611844263 371.583897997 278.055774132 367.369046762 278.055774132 c 0
 364.818270083 278.055774132 363.516136374 277.160679169 363.516136374 275.530961457 c 0
 363.516136374 273.615382114 365.315136113 270.684863887 369 267 c 0
 401 235 410 182 410 146 c 0
 410 106 395 70 372 43 c 1
 384 34 399 30 411 30 c 0
 463 30 500 82 500 147 c 2
 500 150 l 2
 500 245 438 254 438 281 c 0
 438 289 445 300 459 300 c 0
 484 300 521 272 521 272 c 1
 520 270 l 1
 509.207991802 275.611844263 501.583897997 278.055774132 497.369046762 278.055774132 c 0
 494.818270083 278.055774132 493.516136374 277.160679169 493.516136374 275.530961457 c 0
 493.516136374 273.615382114 495.315136113 270.684863887 499 267 c 0
 531 235 540 182 540 147 c 0
 540 60 489 -10 411 -10 c 0
 386 -10 361 1 343 16 c 1
 320 -1 292 -10 263 -10 c 0
 214.488332837 -10 195.916529577 42.2581547442 188.095080438 42.2581547442 c 0xf5fc
76 239 m 0
 67 239 61 233 61 224 c 0xf2fc
 61 215 67 209 76 209 c 0
 85 209 91 215 91 224 c 0
 91 233 85 239 76 239 c 0
EndSplineSet
EndChar

StartChar: uni1A26
Encoding: 6694 6694 6
GlifName: uni1A_26
Width: 489
VWidth: 0
GlyphClass: 2
Flags: W
HStem: -9.67986 41.035<77.6507 117.148> 19.5886 21.1472<226.801 255.227> 80 43<195.395 254.126> 270 40<166.468 299.524>
VStem: 35 41<33.0717 80.6376 159.95 200.811> 217 3<51.8633 55> 256.266 40.734<42.6745 77.4153> 417 37.0082<3.08205 138.953>
AnchorPoint: "Bottom_Sara_U" 257 -44 basechar 0
AnchorPoint: "Bottom_Sara_UU" 232 -45 basechar 0
AnchorPoint: "BottomSubjoinedConsonant" 238 -44 basechar 0
AnchorPoint: "BottomWithRightVerticalStem" 442 -45 basechar 0
AnchorPoint: "TopCenteredOnCenter" 240 352 basechar 0
AnchorPoint: "TopPositioningForSara_I" 302 352 basechar 0
AnchorPoint: "TopSara_II" 288 352 basechar 0
AnchorPoint: "TopRightAlignedMarks" 430 352 basechar 0
AnchorPoint: "TopPositioningForMaiKang" 324 352 basechar 0
AnchorPoint: "TopPositioningForMaiEekMaiKoo" 324 352 basechar 0
LayerCount: 3
Fore
SplineSet
73 136 m 0xbf
 73 148.738484454 35.0974692665 146.866616691 35.0974692665 173.032917549 c 0
 35.0974692665 177.298991309 35.9188611699 181.95468546 37 187 c 0
 49 224 70 252 97 272 c 1
 127 298 178 305 229 310 c 1
 363.265261177 310 454.008159896 214.052973673 454.008159896 78.2333078305 c 0
 454.008159896 -9.0213697204 415.775806257 -58.3894885681 391 -90 c 0
 362 -127 319 -146 319 -146 c 1
 318 -142 l 1
 321 -138 415 -78 417 77 c 1
 409 186 355 263 242 270 c 1
 193 269 152 258 119 236 c 1
 88.9503660929 213.020868189 79.4012572603 185.554674181 79.4012572603 184.908266753 c 0
 79.4012572603 175.765546836 118.246527778 174.603143586 118.246527778 142.200086806 c 0
 118.246527778 112.701388889 76 75.1666666667 76 56 c 0
 76 47.9658305286 76 31.3551862111 96.3675300902 31.3551862111 c 0
 131.415820252 31.3551862111 143.666666667 123 232 123 c 0
 275 123 297 89 297 66 c 0
 297 21.9734553567 260.006622657 19.588636802 251.990603467 19.588636802 c 0
 235.838048293 19.588636802 220.417424305 28.5084591472 217 53 c 1
 220 55 l 1
 223.850657381 43.9293600309 231.176524666 40.7358625137 237.963049056 40.7358625137 c 0x7f
 244.97704546 40.7358625137 256.265986324 42.8945494989 256.265986324 56.7917797679 c 0
 256.265986324 58.2659863237 256.183503419 59.9814623902 256 62 c 0
 256 66 253 80 231 80 c 0
 181 80 175 35 147 12 c 0
 128.182528302 -3.0539773586 109.130942725 -9.67985509398 92.2081564118 -9.67985509398 c 0
 59.6687587423 -9.67985509398 35 14.8174716983 35 51 c 0
 35 95 73 129 73 136 c 0xbf
EndSplineSet
EndChar

StartChar: uni1A27
Encoding: 6695 6695 7
GlifName: uni1A_27
Width: 394
VWidth: 0
GlyphClass: 2
Flags: W
HStem: -10 40<133.822 243.098> 270 40<132.256 243.098>
VStem: 319 40<101.459 198.541>
AnchorPoint: "Bottom_Sara_U" 254 -45 basechar 0
AnchorPoint: "Bottom_Sara_UU" 237 -45 basechar 0
AnchorPoint: "BottomSubjoinedConsonant" 190 -45 basechar 0
AnchorPoint: "BottomWithRightVerticalStem" 359 -45 basechar 0
AnchorPoint: "TopCenteredOnCenter" 190 352 basechar 0
AnchorPoint: "TopPositioningForSara_I" 203 352 basechar 0
AnchorPoint: "TopSara_II" 216 352 basechar 0
AnchorPoint: "TopRightAlignedMarks" 358 352 basechar 0
AnchorPoint: "TopPositioningForMaiKang" 252 352 basechar 0
AnchorPoint: "TopPositioningForMaiEekMaiKoo" 252 352 basechar 0
LayerCount: 3
Fore
SplineSet
35 219 m 1
 80 300 154 310 189 310 c 0
 282 310 359 239 359 150 c 0
 359 61 282 -10 189 -10 c 0
 97 -10 48 54 35 81 c 1
 94 150 l 1
 35 219 l 1
85 78 m 1
 94 69 122 30 189 30 c 0
 262 30 319 84 319 150 c 0
 319 216 262 270 189 270 c 0
 122 270 94 231 85 222 c 1
 147 150 l 1
 85 78 l 1
EndSplineSet
EndChar

StartChar: uni1A28
Encoding: 6696 6696 8
GlifName: uni1A_28
Width: 463
VWidth: 0
GlyphClass: 2
Flags: W
HStem: -11.0116 40.0116<72.3622 122.07 222.248 321.344> 64.4728 38.0358<72.3555 133.305> 228 63.794<62.7574 102.589> 297.061 13.9392<299.679 351.872>
VStem: 34.8556 35.9954<31.6849 61.2433> 176 40.0477<92.6805 197.456> 388.013 39.9969<92.9728 200.694>
AnchorPoint: "Bottom_Sara_U" 325 -45 basechar 0
AnchorPoint: "Bottom_Sara_UU" 308 -45 basechar 0
AnchorPoint: "BottomSubjoinedConsonant" 236 -46 basechar 0
AnchorPoint: "BottomWithRightVerticalStem" 428 -45 basechar 0
AnchorPoint: "TopCenteredOnCenter" 234 352 basechar 0
AnchorPoint: "TopPositioningForSara_I" 274 352 basechar 0
AnchorPoint: "TopSara_II" 260 352 basechar 0
AnchorPoint: "TopRightAlignedMarks" 402 352 basechar 0
AnchorPoint: "TopPositioningForMaiKang" 296 352 basechar 0
AnchorPoint: "TopPositioningForMaiEekMaiKoo" 296 352 basechar 0
LayerCount: 3
Fore
SplineSet
100.900244693 291.794016401 m 0
 157.226627208 291.794016401 216.047727582 229.483923359 216.047727582 147.013983493 c 0
 216.047727582 117.443357425 208.415253346 86.940856759 192 59 c 1
 214 42 237 29 274 29 c 0
 330.5148495 29 388.01274862 72.254183262 388.01274862 145.11699508 c 0
 388.01274862 193.98725138 388.01274862 193.98725138 327 255 c 1
 305.977284454 269.33366969 285.867698184 274.536046634 285.867698184 288.931021602 c 0
 285.867698184 290.441588085 286.35715804 311 313 311 c 0
 337 311 369 296 369 296 c 1
 369 296 370 296 369 294 c 1
 360.459648239 296.13508794 354.059047739 297.060751255 349.684693975 297.060751255 c 0
 344.810818049 297.060751255 342.452379221 295.911607964 342.452379221 294.005817063 c 0
 342.452379221 292.014217584 345.027977502 289.196300177 350 286 c 0
 354.428753166 283.539581574 428.009635498 241.216289063 428.009635498 145.171190222 c 0
 428.009635498 51.9087579108 352.674599812 -11.0115539841 274.826368216 -11.0115539841 c 0
 274.217720834 -11.0115539841 273.608919828 -11.0077078459 273 -11 c 0
 226 -11 193 9 168 27 c 1
 147 5 123 -10 98 -10 c 0
 88.5459060227 -10 34.8555514156 -7.6543343155 34.8555514156 45.6279989064 c 0
 34.8555514156 84.0940020758 65.6803177591 102.508619436 100.440083078 102.508619436 c 0
 120.736123555 102.508619436 142.37373482 96.2304697166 160 84 c 1
 170 102 176 123 176 146 c 0
 175 186 156 237 108 253 c 1
 106 239 95 228 80 228 c 0
 64 228 51 241 51 257 c 0
 51 285.537490985 85.6110778165 291.794016401 100.900244693 291.794016401 c 0
135 52 m 1
 124.424544983 60.3722352215 110.159915093 64.4727942733 97.7674166666 64.4727942733 c 0
 82.9755420098 64.4727942733 70.8509253978 58.6306569417 70.8509253978 47.2373779267 c 0
 70.8509253978 44.0004913788 71.9693702505 30.1224489796 91.1516034985 30.1224489796 c 0
 105.285714286 30.1224489796 123.571428571 38.2857142857 135 52 c 1
EndSplineSet
EndChar

StartChar: uni1A29
Encoding: 6697 6697 9
GlifName: uni1A_29
Width: 498
VWidth: 0
GlyphClass: 2
Flags: W
HStem: -8.66789 40.4309<78.3903 116.644> 19.5886 21.1472<226.801 255.227> 80 43<196.131 254.147> 154.511 60.489<244.065 284.75> 270 40<171.207 311.469>
VStem: 35.0975 44.3038<34.0365 85.7969 161.595 205.811> 73 45.2517<118.714 145.617> 217 3<51.8633 55> 256.266 40.734<42.6745 77.4153> 358.078 33.9224<-4.25439 75.191> 448.595 14.7236<-0.31008 102.397>
AnchorPoint: "Bottom_Sara_U" 280 -45 basechar 0
AnchorPoint: "Bottom_Sara_UU" 263 -45 basechar 0
AnchorPoint: "BottomSubjoinedConsonant" 244 -45 basechar 0
AnchorPoint: "BottomWithRightVerticalStem" 453 -45 basechar 0
AnchorPoint: "TopCenteredOnCenter" 245 352 basechar 0
AnchorPoint: "TopPositioningForSara_I" 285 352 basechar 0
AnchorPoint: "TopSara_II" 271 352 basechar 0
AnchorPoint: "TopRightAlignedMarks" 413 352 basechar 0
AnchorPoint: "TopPositioningForMaiKang" 307 352 basechar 0
AnchorPoint: "TopPositioningForMaiEekMaiKoo" 307 352 basechar 0
LayerCount: 3
Fore
SplineSet
232 80 m 0x7be0
 161.651132266 80 170.780949039 -8.66788690366 97.3670389201 -8.66788690366 c 0
 66.4470169939 -8.66788690366 36 11.4797994674 36 57 c 0
 36 99 73 127 73 136 c 0xbbe0
 73 148.738484454 35.0974692665 146.866616691 35.0974692665 173.032917549 c 0
 35.0974692665 205.043430892 85.3726066815 310 244 310 c 1
 346 305 428 254 456 146 c 0
 461.388059701 122.179104478 463.318110938 99.3232345734 463.318110938 78.8007101937 c 0
 463.318110938 26.9543328135 451 -10 451 -10 c 1
 448 -10 l 1
 448 -10 448.594530321 0.225921521998 448.594530321 15.8805199065 c 0
 448.594530321 45.6242568371 446.448275862 94.9655172414 434 131 c 1
 396 223 345 266 244 270 c 1
 111.885043999 266.429325513 79.4012572603 190.382266525 79.4012572603 184.908266753 c 0xbde0
 79.4012572603 175.814074299 118.251697601 174.513105229 118.251697601 142.245706635 c 0
 118.251697601 113.713444998 77 77.1063829787 77 57 c 0
 77 54.4285714286 76.7551020408 51.9387755102 76.7551020408 49.5539358601 c 0
 76.7551020408 32.5514223551 98.8832520559 31.7630441123 99.1694193936 31.7630441123 c 0
 107.025412329 31.7630441123 110.591916759 37.3327250831 118 44 c 0
 141 64 160 123 232 123 c 0
 275 123 297 89 297 66 c 0
 297 21.9734553567 260.006622657 19.588636802 251.990603467 19.588636802 c 0
 235.838048293 19.588636802 220.417424305 28.5084591472 217 53 c 1
 220 55 l 1
 223.850657381 43.9293600309 231.176524666 40.7358625137 237.963049056 40.7358625137 c 0
 244.97704546 40.7358625137 256.265986324 42.8945494989 256.265986324 56.7917797679 c 0
 256.265986324 58.2659863237 256.183503419 59.9814623902 256 62 c 0
 256 66 253 80 232 80 c 0x7be0
273 215 m 2
 323 215 392 157 392 55 c 1
 387 -18 357 -63 298 -117 c 1
 295 -115 l 1
 348.193608605 -48.5079892438 358.077625428 -12.6936059998 358.077625428 43.0100451827 c 0
 358.077625428 45.9488615452 358.050114132 48.9430379447 358 52 c 0
 352 95 329 157 285 161 c 1
 279.690461025 156.486891871 273.535185927 154.510992114 267.413558199 154.510992114 c 0
 251.494649531 154.510992114 235.8032736 167.872567281 235.8032736 184.725179406 c 0
 235.8032736 203.028279004 254.49404199 213.963860142 269 215 c 1
 273 215 l 2
EndSplineSet
EndChar

StartChar: uni1A2A
Encoding: 6698 6698 10
GlifName: uni1A_2A_
Width: 500
VWidth: 0
GlyphClass: 2
Flags: W
HStem: -8.00411 39.9635<78.3255 114.816> 19.5886 21.1472<225.801 254.227> 80 43<194.987 253.147> 154.511 60.489<243.065 283.75> 270 40<169.999 310.469> 597.049 33.9511<179.231 343.01>
VStem: 35 41<33.7145 82.5431 158.518 202.986> 47 40<261 531.658> 47 31.4013<180.696 206.35> 72 45.2517<118.714 145.607> 216 3<51.8633 55> 255.266 40.734<42.6745 77.4153> 357.078 33.9224<-4.25439 75.191> 447.595 14.7236<-0.31008 102.397>
AnchorPoint: "Bottom_Sara_U" 280 -47 basechar 0
AnchorPoint: "Bottom_Sara_UU" 263 -45 basechar 0
AnchorPoint: "BottomSubjoinedConsonant" 244 -45 basechar 0
AnchorPoint: "BottomWithRightVerticalStem" 453 -45 basechar 0
AnchorPoint: "TopCenteredOnCenter" 245 352 basechar 0
AnchorPoint: "TopPositioningForSara_I" 285 352 basechar 0
AnchorPoint: "TopSara_II" 271 352 basechar 0
AnchorPoint: "TopRightAlignedMarks" 413 352 basechar 0
AnchorPoint: "TopPositioningForMaiKang" 307 352 basechar 0
AnchorPoint: "TopPositioningForMaiEekMaiKoo" 307 352 basechar 0
LayerCount: 3
Fore
SplineSet
231 80 m 0x7e3c
 161.564457144 80 168.650934895 -8.00411051055 95.4918168925 -8.00411051055 c 0
 65.116541105 -8.00411051055 35 11.0675953331 35 57 c 0xbe3c
 35 99 72 127 72 136 c 0xbc7c
 72 150.597560976 34.8127602617 143.354997026 34.8127602617 173.681191146 c 0
 34.8127602617 182.827186199 38.1951219512 195.390243902 47 213 c 1xbcbc
 47 220 48 420 48 499 c 0
 48 593 175 631 251 631 c 0
 405 629 501 543 501 543 c 1
 498 539 l 1
 498 539 424.471378662 597.048911583 259.333327459 597.048911583 c 0
 152.495368661 597.048911583 88 545.158102295 88 499 c 0
 88 377 87 304 87 261 c 1xbd3c
 127 294 183 310 243 310 c 1
 345 305 427 254 455 146 c 0
 460.388059701 122.179104478 462.318110938 99.3232345734 462.318110938 78.8007101937 c 0
 462.318110938 26.9543328135 450 -10 450 -10 c 1
 447 -10 l 1
 447 -10 447.594530321 0.225921521998 447.594530321 15.8805199065 c 0
 447.594530321 45.6242568371 445.448275862 94.9655172414 433 131 c 1
 395 223 344 266 243 270 c 1
 110.885043999 266.429325513 78.4012572603 190.382266525 78.4012572603 184.908266753 c 0xbcbc
 78.4012572603 175.814074299 117.251697601 174.513105229 117.251697601 142.245706635 c 0xbc7c
 117.251697601 113.713444998 76 77.1063829787 76 57 c 0
 76 51.005047712 76 31.9593489893 95.6237795471 31.9593489893 c 0
 128.20652497 31.9593489893 144.293103448 123 231 123 c 0
 274 123 296 89 296 66 c 0
 296 21.9734553567 259.006622657 19.588636802 250.990603467 19.588636802 c 0
 234.838048293 19.588636802 219.417424305 28.5084591472 216 53 c 1
 219 55 l 1
 222.850657381 43.9293600309 230.176524666 40.7358625137 236.963049056 40.7358625137 c 0
 243.97704546 40.7358625137 255.265986324 42.8945494989 255.265986324 56.7917797679 c 0
 255.265986324 58.2659863237 255.183503419 59.9814623902 255 62 c 0
 255 66 252 80 231 80 c 0x7e3c
272 215 m 2
 322 215 391 157 391 55 c 1
 386 -18 356 -63 297 -117 c 1
 294 -115 l 1
 347.193608605 -48.5079892438 357.077625428 -12.6936059998 357.077625428 43.0100451827 c 0
 357.077625428 45.9488615452 357.050114132 48.9430379447 357 52 c 0
 351 95 328 157 284 161 c 1
 278.690461025 156.486891871 272.535185927 154.510992114 266.413558199 154.510992114 c 0
 250.494649531 154.510992114 234.8032736 167.872567281 234.8032736 184.725179406 c 0
 234.8032736 203.028279004 253.49404199 213.963860142 268 215 c 1
 272 215 l 2
EndSplineSet
EndChar

StartChar: uni1A2B
Encoding: 6699 6699 11
GlifName: uni1A_2B_
Width: 487
VWidth: 0
GlyphClass: 2
Flags: W
HStem: -177.285 39.5719<265.294 357.203> -70.1568 51.5617<180.966 208.516> -0.100008 41.8661<7.80099 48.5473> 19.9889 20.7469<156.329 185.249> 79.8782 43.3754<125.118 183.872> 169.679 51.8082<185.222 245.53> 276.32 33.9613<113.815 244.023> 293.444 15.9698<417.824 437.954>
VStem: -34.0628 40.844<43.0455 83.165 161.027 201.737> 2.625 45.1588<119.323 146.45> 146.75 2.9375<51.8143 54.9688> 186.207 40.447<42.0766 77.3374> 306.263 28.6328<-11.0498 89.3339> 371.093 46.722<270.379 292.993> 397.5 40<-91.0977 265.648>
AnchorPoint: "Bottom_Sara_U" 340 -101 basechar 0
AnchorPoint: "Bottom_Sara_UU" 323 -101 basechar 0
AnchorPoint: "BottomSubjoinedConsonant" 203 -61 basechar 0
AnchorPoint: "BottomWithRightVerticalStem" 438 -45 basechar 0
AnchorPoint: "TopCenteredOnCenter" 191 352 basechar 0
AnchorPoint: "TopPositioningForSara_I" 271 352 basechar 0
AnchorPoint: "TopSara_II" 257 352 basechar 0
AnchorPoint: "TopRightAlignedMarks" 414 352 basechar 0
AnchorPoint: "TopPositioningForMaiKang" 293 352 basechar 0
AnchorPoint: "TopPositioningForMaiEekMaiKoo" 293 352 basechar 0
LayerCount: 3
Fore
SplineSet
371.092791976 289.933950109 m 0xcd3c
 371.092791976 294.880059714 373.546697236 309.611218268 402.8125 309.4140625 c 4
 418.516601562 309.306640625 431.65625 304.186523438 452.03125 295.8828125 c 5
 451.581054688 294.977539062 451.043945312 293.196289062 451 293.0390625 c 4
 445.837384964 293.303110874 441.456369937 293.444276087 437.741872432 293.444276087 c 0
 430.102439374 293.444276087 417.814821111 293.263929069 417.814821111 285.13659728 c 0xcd3c
 417.814821111 277.44924959 436.583889071 276.465631679 438.59375 236.1328125 c 5
 437.5 -24.15625 l 5
 435.96091666 -109.997601761 404.73699557 -177.284747082 310.615716395 -177.284747082 c 0
 261.28797515 -177.284747082 228.691162696 -152.692941953 212.28125 -126.375 c 4
 190.858787313 -89.5948916253 195.679192886 -70.15678074 189.47561265 -70.15678074 c 0
 186.331213606 -70.15678074 182.660325859 -78.0082747324 180.28125 -94.90625 c 4
 178.500976562 -94.7685546875 178.0625 -94.5625 178.0625 -94.5625 c 5
 178.0625 -94.5625 175.600045753 -18.5950543978 207.482959149 -18.5950543978 c 0
 209.5493606 -18.5950543978 211.76003389 -18.9141647704 214.125 -19.59375 c 4
 234.489341647 -27.2648666924 226.529216882 -75.1632482575 246.21875 -105.21875 c 4
 256.864796993 -122.292644665 272.24294443 -137.712808817 306.616748696 -137.712808817 c 0
 357.458692633 -137.712808817 395.775970742 -119.510647666 397.5 -23.4375 c 5xcd3a
 398.21875 233.6328125 l 5
 396.977964076 271.445934893 371.092791976 268.695154483 371.092791976 289.933950109 c 0xcd3c
158.155062495 189.459953557 m 0
 158.155062495 203.122057474 171.015759557 221.486808496 202.573477325 221.486808496 c 0
 233.726874127 221.486808496 265.519221429 202.287275887 289.041992188 177.796875 c 4
 304.511175305 160.363749132 334.895742995 118.259832167 334.895742995 56.5217122004 c 0
 334.895742995 -3.10968063779 312.417492003 -47.6406765413 268.850585938 -102.73828125 c 5
 265.8203125 -101.086914062 l 5
 295.800119324 -47.6115435233 306.262934317 -13.6404625742 306.262934317 21.5965479893 c 0
 306.262934317 38.059227084 303.97916908 54.7982262749 300.334960938 73.931640625 c 5
 287.491108274 113.904535819 256.21499198 169.678624257 213.971028636 169.678624257 c 0
 212.766883361 169.678624257 211.553826607 169.63330728 210.33203125 169.541015625 c 4
 207.278882229 166.185007318 199.858570726 159.69551532 188.126248871 159.69551532 c 0
 171.120479605 159.69551532 158.155062495 173.753300328 158.155062495 189.459953557 c 0
-34.7802813172 174.556702331 m 0
 -34.7802813172 206.415547916 16.1565612047 310.28125 174.34375 310.28125 c 4
 251.71484375 309.416015625 322.553710938 273.12109375 355.96875 208.5 c 5
 354 205.34375 l 5
 293.179184481 261.640790839 248.492656757 276.319989598 180.856233104 276.319989598 c 0
 179.970619318 276.319989598 179.081070863 276.317472907 178.1875 276.3125 c 4
 55.6195825442 271.361985228 9.83344219257 196.596671707 9.83344219257 185.473376715 c 0
 9.83344219257 178.920594012 27.9709374311 173.468328792 38.71875 164.53125 c 4
 42.3519554576 161.510061205 47.7837734961 156.993237704 47.7837734961 142.046119843 c 0xee78
 47.7837734961 127.029627504 40.3361970603 116.265985894 28.5625 99.25 c 4
 16.781825054 82.2239292854 6.78122687885 63.5640093552 6.78122687885 56.8302045446 c 0
 6.78122687885 50.7364754074 9.3501570012 41.7661314628 24.4757960725 41.7661314628 c 0
 61.0801323103 41.7661314628 83.0888508071 123.253545121 160.944927106 123.253545121 c 0
 204.920462322 123.253545121 226.65397239 90.7699767365 226.65397239 64.2419174009 c 0
 226.65397239 20.6839947789 183.990830314 19.9889170583 181.266797767 19.9889170583 c 0
 165.208407072 19.9889170583 149.95101563 28.7351032121 146.75 52.9375 c 5
 149.6875 54.96875 l 5
 153.751636756 43.878574318 161.032757447 40.7357735258 167.745921593 40.7357735258 c 0xdeb8
 177.5577121 40.7357735258 186.20696597 44.3621526632 186.20696597 57.1492879143 c 0
 186.20696597 71.4057162316 180.102976184 79.8781552524 160.73131006 79.8781552524 c 0
 141.362436665 79.8781552524 130.551208974 73.8031265919 117.8125 62.84375 c 4
 104.90625 51.740234375 91.4619140625 34.7490234375 72.625 17.71875 c 4
 58.9277227236 5.33479989774 42.7204816958 -0.10000833415 26.9306923742 -0.10000833415 c 0
 -7.58755807997 -0.10000833415 -34.0627805543 24.3271701703 -34.0627805543 56.9414115071 c 0xecb8
 -34.0627805543 87.050251189 -18.6552633976 104.790823738 -4.375 124.9375 c 4
 -1.833984375 128.522460938 2.775390625 130.760742188 2.625 136.125 c 4xec78
 2.26241367823 149.04899148 -34.7802813172 147.497721251 -34.7802813172 174.556702331 c 0
EndSplineSet
EndChar

StartChar: uni1A2C
Encoding: 6700 6700 12
GlifName: uni1A_2C_
Width: 536
VWidth: 0
GlyphClass: 2
Flags: W
HStem: -330 33<177.733 371.087> -11 40<101.189 221.799 309.943 415.3> 182 26<61.6377 91.3617> 226 41.8819<160.957 178.381> 263.467 36.5334<431.57 480.352> 270.834 37.2549<82.4873 124.092 214.555 244.183>
VStem: 35 26<208.68 237.93> 35.995 40.005<-232.899 10> 92 26<208.541 238.378> 261.074 40.2774<72.0117 247.125> 455.074 39.9843<73.5459 227.731>
AnchorPoint: "Bottom_Sara_U" 376 -46 basechar 0
AnchorPoint: "Bottom_Sara_UU" 356 -46 basechar 0
AnchorPoint: "BottomSubjoinedConsonant" 275 -45 basechar 0
AnchorPoint: "BottomWithRightVerticalStem" 504 -45 basechar 0
AnchorPoint: "TopCenteredOnCenter" 275 352 basechar 0
AnchorPoint: "TopPositioningForSara_I" 333 352 basechar 0
AnchorPoint: "TopSara_II" 319 352 basechar 0
AnchorPoint: "TopRightAlignedMarks" 471 352 basechar 0
AnchorPoint: "TopPositioningForMaiKang" 355 352 basechar 0
AnchorPoint: "TopPositioningForMaiEekMaiKoo" 355 352 basechar 0
LayerCount: 3
Fore
SplineSet
35 60 m 2xeae0
 35 79.1261957742 54.1645106173 79.52 54.44 79.52 c 0
 65.96 79.52 73 68 73 68 c 1
 93 31 134 29 172 29 c 1
 222.720964806 30.9508063387 261.073582155 47.1727828187 261.073582155 142.626604175 c 0
 261.073582155 145.033671892 261.049193661 147.491123273 261 150 c 0
 259 243 247 270 227 270 c 0
 213 270 206 226 168 226 c 0
 130.254800319 226 134.825033458 270.833858761 101.089771407 270.833858761 c 0
 93.9513203748 270.833858761 87.1031729828 268.66190379 81 265 c 1
 102 263 118 245 118 224 c 0
 118 201 100 182 77 182 c 0
 54 182 35 201 35 224 c 0
 34.0198330001 236.742170999 35.9218480434 308.088710213 109.448191813 308.088710213 c 0
 110.935946431 308.088710213 112.453025995 308.059499 114 308 c 0
 152.436128869 308 162.846029904 267.881851462 170.189230192 267.881851462 c 0xf6e0
 175.535934953 267.881851462 177.949546455 285.212159841 195 298 c 0
 203 304 214 310 227 310 c 0
 245 309 270 299 281 280 c 0
 291.615596191 261.422706665 301.351031234 197.35053802 301.351031234 147.127674387 c 0
 301.351031234 114.041253772 297.456264445 80.6097532529 286 56 c 1
 317 33 330 29 366 29 c 1
 416.720964806 30.9508063387 455.073582155 47.1727828187 455.073582155 142.626604175 c 0
 455.073582155 145.033671892 455.049193661 147.491123273 455 150 c 0
 455 238.269230769 421.299926036 265.12943787 421.299926036 283.074967285 c 0
 421.299926036 290.812530011 429.654256098 300 440 300 c 0
 465 300 498 253 498 253 c 1
 498 253 497 253 496 252 c 1
 487.402319276 260.597680724 481.946243389 263.466552626 478.757902727 263.466552626 c 0
 476.08473777 263.466552626 475.005668652 261.449890048 475.005668652 259.10210689 c 0
 475.005668652 251.986267477 495.143646367 223.761928677 495.143646367 160.036095919 c 0
 495.143646367 156.720994117 495.093836321 153.378107569 495 150 c 0
 495.038619288 147.798700589 495.057849734 145.62312868 495.057849734 143.473097077 c 0
 495.057849734 34.2781651248 445.455228483 -9.03861928792 367 -11 c 1
 322 -10 290 3 264 24 c 1
 239 -2 205 -10 173 -11 c 1
 136 -11 102 -7 75 10 c 1
 75 -19 76 -71 76 -198 c 0
 76 -277 202 -297 276 -297 c 0
 445 -297 509 -249 509 -249 c 1
 510 -251 l 1
 510 -251 426 -330 275 -330 c 0
 184.30403763 -330 35.9949922695 -312.120077693 35.9949922695 -199.139434947 c 0xe9e0
 35.9949922695 -198.529473939 36.28 -177.639753172 36.28 -138.144 c 0
 36.28 -50.08 35 60 35 60 c 2xeae0
77 239 m 0
 68 239 61 233 61 224 c 0
 61 215 68 208 77 208 c 0
 86 208 92 215 92 224 c 0
 92 233 86 239 77 239 c 0
EndSplineSet
EndChar

StartChar: uni1A2D
Encoding: 6701 6701 13
GlifName: uni1A_2D_
Width: 449
VWidth: 0
GlyphClass: 2
Flags: W
HStem: -10.0887 40.0887<91.0302 171.512 251.653 324.754> 20 50.0172<195.997 226.779> 161 26<192.541 222.443> 268.817 41.1832<97.3125 180.293> 277.056 21.9442<316.744 366.769>
VStem: 35 40<44.862 97.5736 195.731 248.01> 166 26<187.638 216.304> 223 26.077<187.619 216.395> 304.949 56.3346<259.758 286.01> 374 40<88.4363 199.52>
AnchorPoint: "Bottom_Sara_U" 298 -45 basechar 0
AnchorPoint: "Bottom_Sara_UU" 277 -45 basechar 0
AnchorPoint: "BottomSubjoinedConsonant" 212 -45 basechar 0
AnchorPoint: "BottomWithRightVerticalStem" 415 -45 basechar 0
AnchorPoint: "TopCenteredOnCenter" 214 352 basechar 0
AnchorPoint: "TopPositioningForSara_I" 254 352 basechar 0
AnchorPoint: "TopSara_II" 240 352 basechar 0
AnchorPoint: "TopRightAlignedMarks" 402 352 basechar 0
AnchorPoint: "TopPositioningForMaiKang" 276 352 basechar 0
AnchorPoint: "TopPositioningForMaiEekMaiKoo" 276 352 basechar 0
LayerCount: 3
Fore
SplineSet
211 20 m 0x6fc0
 208.279068235 20 186.413576686 -10.0887247643 125.15460848 -10.0887247643 c 0
 83.0197902999 -10.0887247643 35 21.3939037502 35 67 c 0
 35 106 61 135 79 142 c 0
 82 143 87 145 87 147 c 0
 87 150 83 150 79 152 c 0
 60 159 36 188 36 221 c 0
 37 272 81 310 136 310 c 2
 142 310 l 2
 212.151412196 309.025674831 249.076990642 250.143467983 249.076990642 205.498401044 c 0
 249.076990642 180.241563527 228.676903848 161 208 161 c 0
 185 161 166 179 166 202 c 0
 166 222 181 238 200 242 c 1
 182.699544691 260.507463819 159.247862423 268.816840836 137.3951761 268.816840836 c 0xb7c0
 104.933366352 268.816840836 76 250.480855331 76 220 c 0
 76 177.477218225 139.259181378 182.439262639 139.259181378 142.906425229 c 0
 139.259181378 107.099564771 75 121.041958042 75 67 c 0
 75 45 104 30 129 30 c 0
 186.617290993 31.0108296665 186.281352018 70.0171768393 213.853955795 70.0171768393 c 0
 237.815707369 70.0171768393 242.434292631 28.9828231607 287.396044205 28.9828231607 c 0
 343.525380899 28.9828231607 374 98.865586829 374 137 c 0
 374 240.775147929 304.949336508 251.025979483 304.949336508 278.88729034 c 0
 304.949336508 284.882068633 309.552113934 299 326 299 c 0
 351 299 388 271 388 271 c 1
 387 269 l 1
 376.207991802 274.611844263 368.770245903 277.055774132 364.767205028 277.055774132 c 0
 362.450200547 277.055774132 361.283898796 276.23700316 361.283898796 274.739852396 c 0
 361.283898796 272.831673835 363.178500307 269.821499693 367 266 c 0
 408 223 414 181 414 138 c 0
 414 68 366 -10 287 -10 c 0
 232 -10 220 20 211 20 c 0x6fc0
208 217 m 0
 199 217 192 211 192 202 c 0
 192 193 199 187 208 187 c 0
 217 187 223 193 223 202 c 0
 223 210 217 217 208 217 c 0
EndSplineSet
EndChar

StartChar: uni1A2E
Encoding: 6702 6702 14
GlifName: uni1A_2E_
Width: 450
VWidth: 0
GlyphClass: 2
Flags: W
HStem: -328.764 40.7645<130.972 301.701> -117.915 26.5908<150.984 281.041> -10 37.9832<96.6059 168.237 254.05 325.339> 20 50.0168<197.05 227.774> 161 26<193.541 223.575> 267.955 42.3391<97.819 181.911> 277.056 21.9959<317.872 367.769>
VStem: 35.9849 40.0151<-251.448 -172.355 45.3417 97.8705 195.813 247.325> 167 26<187.638 216.341> 224 26.7292<187.537 216.337> 305.925 56.3589<260.403 286.159> 375 40<-235.081 28 89.0717 202.326>
AnchorPoint: "Bottom_Sara_U" 298 -45 basechar 0
AnchorPoint: "Bottom_Sara_UU" 277 -45 basechar 0
AnchorPoint: "BottomSubjoinedConsonant" 212 -45 basechar 0
AnchorPoint: "BottomWithRightVerticalStem" 415 -45 basechar 0
AnchorPoint: "TopCenteredOnCenter" 214 352 basechar 0
AnchorPoint: "TopPositioningForSara_I" 254 352 basechar 0
AnchorPoint: "TopSara_II" 240 352 basechar 0
AnchorPoint: "TopRightAlignedMarks" 402 352 basechar 0
AnchorPoint: "TopPositioningForMaiKang" 276 352 basechar 0
AnchorPoint: "TopPositioningForMaiEekMaiKoo" 276 352 basechar 0
LayerCount: 3
Fore
SplineSet
305.925036269 279.077509377 m 0xe9f0
 305.925036269 279.370356404 306.704756684 299.051714915 327.340566304 299.051714915 c 0
 351.648775538 299.051714915 386.812132414 271.729289195 389 271 c 1
 388 269 l 1
 377.207991802 274.611844263 369.770245903 277.055774132 365.767205028 277.055774132 c 0
 363.450200547 277.055774132 362.283898796 276.23700316 362.283898796 274.739852396 c 0
 362.283898796 272.831673835 364.178500307 269.821499693 368 266 c 0
 400 227 415 201 415 150 c 2
 415 -200 l 2
 415 -290.377481298 314.159393509 -328.764476896 217.389945094 -328.764476896 c 0
 150.33843507 -328.764476896 85.2415280421 -310.334503121 57 -278 c 0
 43 -262 35 -241 35 -216 c 0
 35 -168.532814531 63.8401113138 -91.3242642686 201.946670062 -91.3242642686 c 0
 209.315935699 -91.3242642686 216.996306084 -91.5440933845 225 -92 c 0
 308 -97 370 -148 370 -148 c 1
 369 -150 l 1
 369 -150 313.323265306 -117.915102041 231.304559767 -117.915102041 c 0
 190.980488618 -117.915102041 75 -125.75885422 75 -216 c 0
 75 -259 113 -287 225 -288 c 0
 277 -288 375 -270 375 -200 c 2
 375 28 l 1
 354 4 324 -10 288 -10 c 0xebf0
 233 -10 221 20 212 20 c 0xd9f0
 207 20 193 -8 130 -10 c 0xe9f0
 129.299963448 -10.0152181859 128.599232116 -10.0227937968 127.8979928 -10.0227937968 c 0
 82.9834562103 -10.0227937968 35.9849465741 21.0556304202 35.9849465741 65.6168718546 c 0
 35.9849465741 110.716898033 65.7970072633 136.476613936 80 142 c 0
 85.7289425487 143.909647516 88.2669756657 145.363450828 88.2669756657 146.796660812 c 0
 88.2669756657 148.365491721 85.2258812094 149.909647516 80 152 c 0
 61 159 37 188 37 221 c 0
 37.5930501782 274.967566217 85.3150412155 310.294581199 136.989748168 310.294581199 c 0
 206.235048237 310.294581199 250.72918826 248.387409462 250.72918826 208.379012065 c 0
 250.72918826 179.524348851 230.096148491 161 209 161 c 0
 186 161 167 179 167 202 c 0
 167 222 182 238 201 242 c 1
 183.9973646 259.812284705 160.603292232 267.955472458 138.712704399 267.955472458 c 0
 106.529046248 267.955472458 77.5951753476 250.353942729 77 220 c 0
 77 178.489250851 140.262769168 180.584650377 140.262769168 142.855922276 c 0
 140.262769168 107.182001056 76.9645482484 121.979250157 76 67 c 0
 76 45 105 30 130 30 c 0
 187.605449481 31.0106219207 187.30449301 70.016792228 214.834939499 70.016792228 c 0xddf0
 238.81960726 70.016792228 243.424837185 27.983207772 288.431727167 27.983207772 c 0
 343.389741891 27.983207772 373.038975941 93.7795188115 375 133 c 1
 375 146 l 1
 373.1332181 239.339095011 305.925036269 252.526072773 305.925036269 279.077509377 c 0xe9f0
224 202 m 0
 224 212 216.25 217 208.5 217 c 0
 200.75 217 193 212 193 202 c 0
 193 193 200 187 209 187 c 0
 218 187 224 193 224 202 c 0
EndSplineSet
EndChar

StartChar: uni1A2F
Encoding: 6703 6703 15
GlifName: uni1A_2F_
Width: 453
VWidth: 0
GlyphClass: 2
Flags: W
HStem: 0 40<93 318.39> 182 26<74.7584 104.446> 275.506 36.4942<98.6471 172.34 273.273 337.574>
VStem: 48.4778 25.5222<209.007 237.258> 105 26<208.554 237.389> 369 40<178.62 247.852> 496.009 16.4754<-219.564 -137.236>
AnchorPoint: "Bottom_Sara_U" 329 -45 basechar 0
AnchorPoint: "Bottom_Sara_UU" 308 -45 basechar 0
AnchorPoint: "BottomSubjoinedConsonant" 221 -45 basechar 0
AnchorPoint: "BottomWithRightVerticalStem" 425 -45 basechar 0
AnchorPoint: "TopCenteredOnCenter" 222 352 basechar 0
AnchorPoint: "TopPositioningForSara_I" 255 352 basechar 0
AnchorPoint: "TopSara_II" 241 352 basechar 0
AnchorPoint: "TopRightAlignedMarks" 402 352 basechar 0
AnchorPoint: "TopPositioningForMaiKang" 315 352 basechar 0
AnchorPoint: "TopPositioningForMaiEekMaiKoo" 315 352 basechar 0
LayerCount: 3
Fore
SplineSet
305.561419167 271.90842528 m 0
 251.78871597 271.90842528 247.586888914 223.381426999 221.226900779 223.381426999 c 0
 213.960027078 223.381426999 205.938616743 227.869020135 197 240 c 0
 176.324290875 267.567612167 153.952212909 275.505813464 135.490774776 275.505813464 c 0
 116.45021494 275.505813464 101.569490902 267.06176969 97 263 c 1
 116 259 131 243 131 223 c 0
 131 200 113 182 90 182 c 0
 63.0179534974 182 48.477840184 205.106447351 48.477840184 231.836240899 c 0
 48.477840184 268.508116565 75.8458255667 312 136 312 c 0
 170 312 200 299 222 273 c 1
 244.715759018 300.04257026 275.362066833 312.134105903 305.266672459 312.134105903 c 0
 358.299650072 312.134105903 409 274.106645274 409 214 c 0
 409 110 289 103 228 94 c 0
 148 82 111 59 93 40 c 1
 157 40 161 39 221 39 c 0
 388 38 467 -30 499 -98 c 0
 509.039215686 -119.333333333 512.484044598 -141.749327182 512.484044598 -162.468959902 c 0
 512.484044598 -207.793156478 496 -245 496 -245 c 1
 491 -245 l 1
 491 -245 496.008653326 -224.249864792 496.008653326 -195.795389085 c 0
 496.008653326 -165.985938345 490.511627907 -127.720930233 468 -96 c 0
 438 -54 377 -2 221 -1 c 0
 152 0 147 0 55 0 c 2
 44 0 l 1
 35 -1 l 1
 33 24 45 107 222 134 c 0
 293 145 369 150 369 214 c 0
 369 252.154860031 337.215945377 271.90842528 305.561419167 271.90842528 c 0
90 238 m 0
 81 238 74 232 74 223 c 0
 74 214 81 208 90 208 c 0
 99 208 105 214 105 223 c 0
 105 232 99 238 90 238 c 0
EndSplineSet
EndChar

StartChar: uni1A30
Encoding: 6704 6704 16
GlifName: uni1A_30
Width: 446
VWidth: 0
GlyphClass: 2
Flags: W
HStem: -10 40<87.7705 135.044 241.861 305.091> 42.2582 41.8562<178.998 199.01> 183 26<61.7081 91.4591> 226 42.8819<160.172 178.775> 270.834 37.2782<81.5406 125.448 214.104 245.719> 278.056 21.8371<319.882 369.769>
VStem: 34.7868 26.2132<209.951 238.432> 38 40<40.397 90.2863> 92 26<209.638 238.294> 251 40<216.207 266.45> 308.153 56.1314<261.277 287.505> 371.013 40.1884<98.6769 209.141>
AnchorPoint: "Bottom_Sara_U" 288 -45 basechar 0
AnchorPoint: "Bottom_Sara_UU" 262 -45 basechar 0
AnchorPoint: "BottomSubjoinedConsonant" 212 -45 basechar 0
AnchorPoint: "BottomWithRightVerticalStem" 408 -45 basechar 0
AnchorPoint: "TopCenteredOnCenter" 234 352 basechar 0
AnchorPoint: "TopPositioningForSara_I" 274 352 basechar 0
AnchorPoint: "TopSara_II" 260 352 basechar 0
AnchorPoint: "TopRightAlignedMarks" 402 352 basechar 0
AnchorPoint: "TopPositioningForMaiKang" 296 352 basechar 0
AnchorPoint: "TopPositioningForMaiEekMaiKoo" 296 352 basechar 0
LayerCount: 3
Fore
SplineSet
76 183 m 0xf9f0
 60.2874616306 183.71420629 34.7867825671 191.051236122 34.7867825671 231.156340787 c 0
 34.7867825671 259.876243254 48.0578589531 308.112047479 108.848126836 308.112047479 c 0xfaf0
 110.528852542 308.112047479 112.245902326 308.075175615 114 308 c 0
 151.65879182 308 163.199223982 268.881851462 170.189230192 268.881851462 c 0
 175.535934953 268.881851462 177.949546455 286.212159841 195 299 c 0
 203 305 213 311 226 311 c 0
 248 311 291 294 291 239 c 1
 288 155 162 143 102 101 c 0
 85 89 78 80 78 68 c 0
 78 35 107 30 115 30 c 0
 145.343018951 30 148.218956159 84.1143984221 192.003118731 84.1143984221 c 0
 229.122287968 84.1143984221 231.820512821 30 263 30 c 0
 315.532921259 30 371.013198676 83.0524108453 371.013198676 148.257889033 c 0
 371.013198676 162.125399774 368.877435473 211.122564527 340 240 c 1
 324.076268735 257.693034739 308.152537471 268.342591216 308.152537471 280.949039278 c 0
 308.152537471 285.60974183 311.877973107 299.892878397 329.502700392 299.892878397 c 0
 354.524697481 299.892878397 391 272 391 272 c 1
 390 270 l 1
 379.207991802 275.611844263 371.770245903 278.055774132 367.767205028 278.055774132 c 0xf5f0
 365.450200547 278.055774132 364.283898796 277.23700316 364.283898796 275.739852396 c 0
 364.283898796 273.831673835 366.178500307 270.821499693 370 267 c 0
 392.22449473 244.77550527 411.201598494 200.144012871 411.201598494 151.61106727 c 0
 411.201598494 114.977402722 400.389316611 76.1208693791 372 43 c 1
 342 10 308 -10 263 -10 c 0
 214.896861002 -10 197.313558454 42.2581547442 189.095080438 42.2581547442 c 0
 180.40013491 42.2581547442 165.542392087 -10.0378673546 116.191701787 -10.0378673546 c 0
 115.466316316 -10.0378673546 114.735732725 -10.025370094 114 -10 c 0
 76 -10 38 19 38 68 c 0
 38 167 251 176 251 239 c 0
 251 257 242 271 226 271 c 0
 215 271 203 226 168 226 c 0
 133.0086376 226 135.829248226 270.833858761 100.752562252 270.833858761 c 0
 93.3238075794 270.833858761 86.1031729828 268.66190379 80 265 c 1
 101 263 118 245 118 224 c 0
 118 201 99 183 76 183 c 0xf9f0
76 239 m 0
 67 239 61 233 61 224 c 0
 61 215 67 209 76 209 c 0
 85 209 92 215 92 224 c 0
 92 233 85 239 76 239 c 0
EndSplineSet
EndChar

StartChar: uni1A31
Encoding: 6705 6705 17
GlifName: uni1A_31
Width: 571
VWidth: 0
GlyphClass: 2
Flags: W
HStem: -9 40<254.871 310.778> 0 25<109.575 138.359> 0.122449 13.5803<429.647 473.943> 56 26<109.421 137.634> 269.203 40.8066<130.897 206.538 360.92 435.342>
VStem: 35 40<87.9565 204.357> 139 26<25.8195 55.2399> 204 40<42.3637 113.439> 235.087 40.2838<140.363 239.625> 294 40<142.132 240.575> 326 40<46.2744 111.386> 493.862 42.138<96.9194 203.894>
AnchorPoint: "Bottom_Sara_U" 444 -45 basechar 0
AnchorPoint: "Bottom_Sara_UU" 425 -45 basechar 0
AnchorPoint: "BottomSubjoinedConsonant" 357 -45 basechar 0
AnchorPoint: "BottomWithRightVerticalStem" 537 -45 basechar 0
AnchorPoint: "TopPositioningForSara_I" 392 352 basechar 0
AnchorPoint: "TopRightAlignedMarks" 508 352 basechar 0
AnchorPoint: "TopPositioningForMaiKang" 403 352 basechar 0
AnchorPoint: "TopPositioningForMaiEekMaiKoo" 403 352 basechar 0
AnchorPoint: "TopCenteredOnCenter" 284 352 basechar 0
AnchorPoint: "TopSara_II" 386 352 basechar 0
LayerCount: 3
Fore
SplineSet
493.861981956 149.120445976 m 0x3e50
 493.861981956 215.803448779 447.233349687 269.203273837 396.700077297 269.203273837 c 0
 374.990205395 269.203273837 334 255.032805631 334 199 c 0x3e50
 334 133 366 128 366 72 c 0
 366 28 329 -9 284 -9 c 0
 240 -9 204 28 204 72 c 0x9f30
 204 119.558823529 235.087370242 137.914359862 235.087370242 192.898687157 c 0
 235.087370242 194.564878893 235.058823529 196.264705882 235 198 c 0
 233 270 171 270 167 270 c 0
 114 266 75 209 75 151 c 0
 75 123 80 91 93 68 c 1
 101 76 112 82 124 82 c 0
 147 82 165 64 165 41 c 0
 165 18 147 0 124 0 c 0
 112 0 103 3 93 13 c 0
 58 48 35 102 35 150 c 0
 35 223 80 306 165 309 c 1
 235.508267174 309 275.371182779 259.333395733 275.371182779 195.334182669 c 0x5e90
 275.371182779 133.374717224 244 107.377631713 244 72 c 0
 244 47 260 31 284 31 c 0
 305 31 326 52 326 72 c 0x9f30
 326 105 294 129 294 199 c 1
 296 289 365 310 401 310 c 0
 401.554195144 310.006597561 402.10695387 310.009887009 402.658271009 310.009887009 c 0
 485.670731328 310.009887009 536 235.432609734 536 150 c 0
 536 97 520 62 485 33 c 0
 470.96287705 22.4721577877 465.452379221 18.3392844161 465.452379221 16.2829786768 c 0
 465.452379221 14.648118388 467.510375651 13.702713321 471.754343434 13.702713321 c 0
 476.131148781 13.702713321 482.832910319 14.7082275797 492 17 c 1
 493 15 l 1
 493 15 460.765306122 0.122448979592 436.412172012 0.122448979592 c 0
 422.882653061 0.122448979592 411.785714286 4.71428571429 410 19 c 1
 414 42 437 47 454 60 c 0
 481.704997968 82.965985158 493.861981956 116.031534953 493.861981956 149.120445976 c 0x3e50
123 56 m 0
 115 56 109 50 109 41 c 0
 109 32 115 25 123 25 c 0x5e10
 133 25 139 32 139 41 c 1
 137 47 137 55 123 56 c 0
EndSplineSet
EndChar

StartChar: uni1A32
Encoding: 6706 6706 18
GlifName: uni1A_32
Width: 569
VWidth: 0
GlyphClass: 2
Flags: W
HStem: -10 40<142.979 236.98> 0.122449 13.3551<431.917 473.232> 272 38<142.979 238.21 329.015 424.98>
VStem: 34 40<98.6453 202.355> 305 42<98.6453 203.892> 493 42<100.586 202.355>
AnchorPoint: "Bottom_Sara_U" 444 -45 basechar 0
AnchorPoint: "Bottom_Sara_UU" 425 -45 basechar 0
AnchorPoint: "BottomSubjoinedConsonant" 347 -45 basechar 0
AnchorPoint: "BottomWithRightVerticalStem" 520 -45 basechar 0
AnchorPoint: "TopPositioningForSara_I" 368 352 basechar 0
AnchorPoint: "TopRightAlignedMarks" 515 352 basechar 0
AnchorPoint: "TopPositioningForMaiKang" 377 352 basechar 0
AnchorPoint: "TopPositioningForMaiEekMaiKoo" 377 352 basechar 0
AnchorPoint: "TopCenteredOnCenter" 284 352 basechar 0
AnchorPoint: "TopSara_II" 359 352 basechar 0
LayerCount: 3
Fore
SplineSet
190 310 m 0xbc
 225 310 258 298 284 278 c 1
 310 298 343 310 378 310 c 0
 464 310 535 238 535 150 c 1
 530 96 519 63 478 28 c 0
 473.146331007 23.1463310075 465.452379221 19.6452406327 465.452379221 15.8399302803 c 0
 465.452379221 14.3097908486 467.285079484 13.477504751 471.058026221 13.477504751 c 0
 475.406488801 13.477504751 482.332263575 14.5830658937 492 17 c 1
 493 15 492 15 492 15 c 1
 492 15 459.765306122 0.122448979592 435.412172012 0.122448979592 c 0x7c
 428.421338212 0.122448979592 408.867698184 1.84202033586 408.867698184 21.0804676593 c 0
 408.867698184 35.6376948166 428.977284454 42.6663303099 450 57 c 0
 478 76 491 118 493 151 c 1
 493 218 442 272 378 272 c 0
 354 272 331 264 312 251 c 1
 334 223 347 188 347 150 c 0
 347 62 276 -10 190 -10 c 0
 104 -10 34 62 34 150 c 0
 34 238 104 310 190 310 c 0xbc
190 272 m 0
 126 272 74 218 74 151 c 0
 74 84 126 30 190 30 c 0xbc
 254 30 305 84 305 151 c 0
 305 218 254 272 190 272 c 0
EndSplineSet
EndChar

StartChar: uni1A33
Encoding: 6707 6707 19
GlifName: uni1A_33
Width: 486
VWidth: 0
GlyphClass: 2
Flags: W
HStem: -7 38.634<80.6164 107.624 217.191 242.785> 41 40<147.056 175.634> 67 26<230.509 251.756> 124 26<230.839 260.123> 270 40<163.577 307.37>
VStem: 39.1543 38.9513<32.5757 84.8675 160.869 201.851> 73 46.1111<115.65 146.305> 204 26<93.6219 123.459> 261 27.2544<75.9328 122.855> 436.723 15.595<-0.839107 105.679>
AnchorPoint: "Bottom_Sara_U" 257 -45 basechar 0
AnchorPoint: "Bottom_Sara_UU" 234 -45 basechar 0
AnchorPoint: "BottomSubjoinedConsonant" 192 -45 basechar 0
AnchorPoint: "BottomWithRightVerticalStem" 434 -45 basechar 0
AnchorPoint: "TopCenteredOnCenter" 170 352 basechar 0
AnchorPoint: "TopPositioningForSara_I" 217 352 basechar 0
AnchorPoint: "TopSara_II" 214 352 basechar 0
AnchorPoint: "TopRightAlignedMarks" 430 352 basechar 0
AnchorPoint: "TopPositioningForMaiKang" 254 352 basechar 0
AnchorPoint: "TopPositioningForMaiEekMaiKoo" 254 352 basechar 0
LayerCount: 3
Fore
SplineSet
93.6581722602 31.633971683 m 0xddc0
 113.15024061 31.633971683 110.939751402 81 165 81 c 0xddc0
 210 81 214 33 228 33 c 0
 233 33 246 37 252 68 c 1
 249 67 244 67 241 67 c 0xbdc0
 220 69 204 87 204 108 c 0
 204 131 223 150 245 150 c 0
 277.374178926 150 288.254376716 122.364881396 288.254376716 91.1698112918 c 0
 288.254376716 60.6958428942 277.871375994 26.8246036284 267 12 c 0
 259 1 244 -7 227 -7 c 0
 191 -7 181 30 173 38 c 0
 171 40 170 41 164 41 c 0
 141 41 140 -7 96 -7 c 0
 62.8954093528 -7 39.1542698006 17.5790591246 39.1542698006 52.8468681866 c 0xddc0
 39.1542698006 97.4114517841 73 125.633634878 73 136 c 0
 73 150.545454545 35.8099173554 145.256198347 35.8099173554 176.480841473 c 0
 35.8099173554 179.603305785 36.1818181818 183.090909091 37 187 c 0
 66 271 139 310 233 310 c 0
 290 310 339 298 380 257 c 0
 424.317964434 211.739100153 452.318110938 162.553623784 452.318110938 78.8007101937 c 0
 452.318110938 26.9543328135 440 -10 440 -10 c 1
 436 -10 l 1
 435.431113585 -4.88002226563 436.72310975 9.94890806147 436.72310975 30.3903499834 c 0
 436.72310975 81.8136648404 428.546781706 168.755456597 362 226 c 0
 323 260 281 270 233 270 c 1
 159 268 105 241 81 187 c 0
 80.5824846305 186.234555156 80.3877103125 185.512690083 80.3877103125 184.82261158 c 0
 80.3877103125 175.595759304 115.208757685 172.051594942 118 146 c 0
 118.666666667 140.666666667 119.111111111 136.888888889 119.111111111 133.777777778 c 0xdbc0
 119.111111111 127.555555556 117.333333333 124 112 116 c 2
 101 101 l 2
 98.5098125766 96.0196251531 78.1055286533 74.5031612295 78.1055286533 53.6080920006 c 0
 78.1055286533 53.3388808034 78.4829079929 31.633971683 93.6581722602 31.633971683 c 0xddc0
245 124 m 0
 236 124 230 117 230 108 c 0
 230 99 236 93 245 93 c 0xb9c0
 254 93 261 99 261 108 c 0
 261 117 254 124 245 124 c 0
EndSplineSet
EndChar

StartChar: uni1A34
Encoding: 6708 6708 20
GlifName: uni1A_34
Width: 458
VWidth: 0
GlyphClass: 2
Flags: W
HStem: -10 39.699<161.3 283.398> 109 26<182.554 212.459> 182.889 39.139<225.578 283.669> 273.075 36.9396<164.34 302.628>
VStem: 35 39.9922<100.352 197.498> 156 26<135.76 163.373> 213 26<135.638 164.371> 290.369 40.2329<139.505 174.679> 414.785 8.8278<103.119 146.299>
AnchorPoint: "Bottom_Sara_U" 288 -45 basechar 0
AnchorPoint: "Bottom_Sara_UU" 262 -45 basechar 0
AnchorPoint: "BottomSubjoinedConsonant" 212 -45 basechar 0
AnchorPoint: "BottomWithRightVerticalStem" 408 -45 basechar 0
AnchorPoint: "TopCenteredOnCenter" 227 352 basechar 0
AnchorPoint: "TopPositioningForSara_I" 241 352 basechar 0
AnchorPoint: "TopSara_II" 234 352 basechar 0
AnchorPoint: "TopRightAlignedMarks" 400 352 basechar 0
AnchorPoint: "TopPositioningForMaiKang" 297 352 basechar 0
AnchorPoint: "TopPositioningForMaiEekMaiKoo" 297 352 basechar 0
LayerCount: 3
Fore
SplineSet
252 105 m 0
 252 135.790214117 290.368636398 135.798683496 290.368636398 155.443127279 c 0
 290.368636398 175.445560251 268.722399304 180.892350044 251 182 c 0
 245.666666667 182 239.888888889 182.888888889 233.666666667 182.888888889 c 0
 230.555555556 182.888888889 227.333333333 182.666666667 224 182 c 1
 233 174 239 163 239 150 c 0
 239 127 220 109 197 109 c 0
 174 109 156 127 156 150 c 2
 156 160 l 1
 164.832408663 196.311013393 202.557944287 222.027880234 248.382866474 222.027880234 c 0
 249.252375604 222.027880234 250.124800797 222.01862126 251 222 c 0
 271.830763017 222 330.601513232 208.557815176 330.601513232 153.487704991 c 0
 330.601513232 131.798865076 321.822861809 118.146669389 301 106 c 1
 319 96 330 80 330 58 c 0
 330 29 310 8 289 -1 c 0
 268 -10 244 -10 225 -10 c 0
 133 -9 35 34 35 150 c 0
 35 258.942991335 129.163903691 310.01441686 227.146990146 310.01441686 c 0
 228.097661411 310.01441686 229.048692201 310.00960917 230 310 c 0
 357.906880361 308.328014636 423.613105679 231.875466468 423.613105679 143.158358764 c 0
 423.613105679 125.753595303 421.084226855 107.876797652 416 90 c 1
 414 90 l 1
 414.525727091 96.0166544891 414.785301837 101.948003739 414.785301837 107.783882368 c 0
 414.785301837 199.643709431 349.642745211 273.074859965 234.295101315 273.074859965 c 0
 159.074490651 273.074859965 74.9921684638 234.261566035 74.9921684638 148.531521953 c 0
 74.9921684638 70.5073423717 143.472565544 29.6989615765 238.370072109 29.6989615765 c 0
 260.794264793 29.6989615765 288.327921561 33.2629802941 290 55 c 1
 289 71 276 73 267 79 c 0
 261 83 252 93 252 105 c 0
182 150 m 1
 182 141 188 135 197 135 c 0
 206 135 213 141 213 150 c 0
 213 159 206 165 197 165 c 1
 185 163 183 157 182 150 c 1
EndSplineSet
EndChar

StartChar: uni1A35
Encoding: 6709 6709 21
GlifName: uni1A_35
Width: 410
VWidth: 0
GlyphClass: 2
Flags: W
HStem: 1 21G<131.5 165.333 244.667 299> 270 40<149.496 259.098>
VStem: 35 40<101.383 198.77> 335 40<101.14 198.541>
AnchorPoint: "Bottom_Sara_U" 275 -45 basechar 0
AnchorPoint: "Bottom_Sara_UU" 258 -45 basechar 0
AnchorPoint: "BottomSubjoinedConsonant" 204 -45 basechar 0
AnchorPoint: "BottomWithRightVerticalStem" 373 -45 basechar 0
AnchorPoint: "TopCenteredOnCenter" 206 352 basechar 0
AnchorPoint: "TopPositioningForSara_I" 208 352 basechar 0
AnchorPoint: "TopSara_II" 218 352 basechar 0
AnchorPoint: "TopRightAlignedMarks" 349 352 basechar 0
AnchorPoint: "TopPositioningForMaiKang" 275 352 basechar 0
AnchorPoint: "TopPositioningForMaiEekMaiKoo" 275 352 basechar 0
LayerCount: 3
Fore
SplineSet
35 150 m 0
 35 239.958125147 110.988547533 310 205 310 c 0
 298 310 375 239 375 150 c 0
 375 82 330 25 268 1 c 1
 205 55 l 1
 142 1 l 1
 121 9 101 21 85 36 c 0
 54 65 35 105 35 150 c 0
205 270 m 0
 126.369328176 270 75 210.180914851 75 150 c 0
 75 126.55583242 82.7225872261 81.2983829837 136 48 c 1
 159.000688972 67.9993110284 181.953874153 88.0461258466 205 108 c 1
 228.180522105 87.8471887715 251.66963586 68.002969193 275 48 c 1
 311 69 335 107 335 150 c 0
 335 216 278 270 205 270 c 0
EndSplineSet
EndChar

StartChar: uni1A36
Encoding: 6710 6710 22
GlifName: uni1A_36
Width: 448
VWidth: 0
GlyphClass: 2
Flags: W
HStem: 0 40<74 322.39> 134 26<349.554 379.577> 190 24.122<349.694 365.808> 270 40<158.821 294.505>
VStem: 35 39<40 203.364> 323 26<160.554 189.443> 380 26.3293<160.906 189.097> 500.009 16.4754<-219.566 -137.237>
AnchorPoint: "Bottom_Sara_U" 309 -45 basechar 0
AnchorPoint: "Bottom_Sara_UU" 288 -45 basechar 0
AnchorPoint: "BottomSubjoinedConsonant" 225 -45 basechar 0
AnchorPoint: "BottomWithRightVerticalStem" 404 -45 basechar 0
AnchorPoint: "TopCenteredOnCenter" 234 352 basechar 0
AnchorPoint: "TopPositioningForSara_I" 274 352 basechar 0
AnchorPoint: "TopSara_II" 260 352 basechar 0
AnchorPoint: "TopRightAlignedMarks" 402 352 basechar 0
AnchorPoint: "TopPositioningForMaiKang" 296 352 basechar 0
AnchorPoint: "TopPositioningForMaiEekMaiKoo" 296 352 basechar 0
LayerCount: 3
Fore
SplineSet
406.329316881 181.127252189 m 0
 406.329316881 135.500870623 368.920798887 134 364 134 c 0
 341 134 323 152 323 175 c 0
 323 192.261837189 340.473609381 214.121992636 363.073540415 214.121992636 c 0
 364.039974546 214.121992636 365.015782918 214.08201809 366 214 c 1
 336 254 276 270 221 270 c 0
 156 269 77 232 75 168 c 0
 74 145 73.75 127 73.75 107.75 c 0
 73.75 88.5 74 68 74 40 c 1
 145 40 163 39 225 39 c 0
 392 38 471 -29 503 -97 c 0
 513.039215686 -118.333333333 516.484044598 -140.847750865 516.484044598 -161.702474915 c 0
 516.484044598 -207.322183775 500 -245 500 -245 c 1
 495 -244 l 1
 495 -244 500.008653326 -223.488372093 500.008653326 -195.277950369 c 0
 500.008653326 -165.72417523 494.511627907 -127.720930233 472 -96 c 0
 442 -54 380 -2 224 -1 c 0
 155 0 146 0 54 0 c 2
 35 0 l 1
 35 20 l 2
 34.6666666667 44.3333333333 34.5555555556 63 34.5555555556 79.037037037 c 0
 34.5555555556 111.111111111 35 132.666666667 35 168 c 0
 35 257 132 310 222 310 c 0
 304.317045021 310 406.329316881 263.106602762 406.329316881 181.127252189 c 0
364 190 m 0
 355 190 349 184 349 175 c 0
 349 166 355 160 364 160 c 0
 373 160 380 166 380 175 c 0
 380 184 373 190 364 190 c 0
EndSplineSet
EndChar

StartChar: uni1A37
Encoding: 6711 6711 23
GlifName: uni1A_37
Width: 467
VWidth: 0
GlyphClass: 2
Flags: W
HStem: -10 38.9648<166.513 299.374> 244 56<308.318 340.592> 278 26<111.554 141.459>
VStem: 35.3752 40.1209<95.3835 182.502> 85 26<248.474 277.446> 142 26<248.812 277.362> 392 41<105.826 193.777>
AnchorPoint: "Bottom_Sara_U" 326 -45 basechar 0
AnchorPoint: "Bottom_Sara_UU" 309 -45 basechar 0
AnchorPoint: "BottomSubjoinedConsonant" 233 -45 basechar 0
AnchorPoint: "BottomWithRightVerticalStem" 417 -45 basechar 0
AnchorPoint: "TopCenteredOnCenter" 234 352 basechar 0
AnchorPoint: "TopPositioningForSara_I" 274 352 basechar 0
AnchorPoint: "TopSara_II" 260 352 basechar 0
AnchorPoint: "TopRightAlignedMarks" 402 352 basechar 0
AnchorPoint: "TopPositioningForMaiKang" 296 352 basechar 0
AnchorPoint: "TopPositioningForMaiEekMaiKoo" 296 352 basechar 0
LayerCount: 3
Fore
SplineSet
233 -10 m 0xbe
 199.576191432 -9.19460702246 35.3752470443 1.93084184662 35.3752470443 142.802142926 c 0
 35.3752470443 165.972677784 39.4868329805 188.261684754 54 206 c 0
 68 223 76 231 92 240 c 1
 88 247 85 255 85 263 c 0
 85 286 103 304 126 304 c 0xbe
 149 304 168 286 168 263 c 0
 168 249 158 234 140 224 c 0
 106.444887274 206.290357173 75.4961300811 186.84314399 75.4961300811 140.55509041 c 0
 75.4961300811 36.3283491679 219.92124482 28.9648206676 230.359634532 28.9648206676 c 0
 231.280991323 28.9648206676 232.161903844 28.9767195512 233 29 c 0
 323 29 392 85 392 150 c 0
 392 188 366 227 331 244 c 0xde
 307 257 287 262 287 278 c 0xbe
 287 294 301 300 317 300 c 0xde
 341 300 369 291 369 291 c 1
 369 288 l 1
 363.315496716 288.812071898 357.850813688 289.257776703 353.339824752 289.257776703 c 0
 346.574779008 289.257776703 341.954633238 288.255366987 341.954633238 285.982953416 c 0
 341.954633238 284.172859748 344.88608686 281.55695657 352 278 c 2
 364 271 l 1
 406 242 433 199 433 150 c 0
 433 59 341 -10 233 -10 c 0xbe
126 278 m 0
 117 278 111 272 111 263 c 0
 111 254 117 248 126 248 c 0
 135 248 142 254 142 263 c 0
 142 272 135 278 126 278 c 0
EndSplineSet
EndChar

StartChar: uni1A38
Encoding: 6712 6712 24
GlifName: uni1A_38
Width: 475
VWidth: 0
GlyphClass: 2
Flags: W
HStem: -10 39<165.424 299.673> 278 26<112.554 141.446> 608.504 21.496<381.972 419.893>
VStem: 35.4626 40.0068<95.3737 184.666> 86 26<248.474 277.446> 142 26<248.654 277.446> 321.925 39.4105<408.454 573.155> 394.062 39.8677<115.266 245.972>
AnchorPoint: "Bottom_Sara_U" 324 -45 basechar 0
AnchorPoint: "Bottom_Sara_UU" 307 -45 basechar 0
AnchorPoint: "BottomSubjoinedConsonant" 233 -45 basechar 0
AnchorPoint: "BottomWithRightVerticalStem" 426 -46 basechar 0
AnchorPoint: "TopCenteredOnCenter" 228 352 basechar 0
AnchorPoint: "TopPositioningForSara_I" 169 352 basechar 0
AnchorPoint: "TopSara_II" 148 352 basechar 0
AnchorPoint: "TopRightAlignedMarks" 432 352 basechar 0
AnchorPoint: "TopPositioningForMaiKang" 233 352 basechar 0
AnchorPoint: "TopPositioningForMaiEekMaiKoo" 233 352 basechar 0
LayerCount: 3
Fore
SplineSet
321.92467378 496.458890862 m 0
 321.92467378 598.688492396 365.789463435 630 391 630 c 0
 412 630 426 617 434 600 c 1
 433 598 l 1
 422.592102917 605.032362894 412.97547188 608.504028581 404.394943568 608.504028581 c 0
 375.951630409 608.504028581 361.335170632 571.532565593 361.335170632 508.693133814 c 0
 361.335170632 439.719619365 380.825885841 362.072933039 404 308 c 0
 429.785714286 248.285714286 433.929846939 195.017857143 433.929846939 166.006331997 c 0
 433.929846939 152.264030612 433 143.964285714 433 143 c 0
 428 56 339 -10 233 -10 c 1
 184.182135689 -8.79462063429 35.4626164608 10.8391325836 35.4626164608 140.826482909 c 0
 35.4626164608 164.703325561 40.0747670785 187.758048651 55 206 c 0
 69 223 77 231 93 240 c 1
 89 247 86 255 86 263 c 0
 86 286 104 304 127 304 c 0
 150 304 168 286 168 263 c 0
 168 249 160 230 141 224 c 0
 104.785714286 211.928571429 75.4693877551 187.785714286 75.4693877551 141.162900875 c 0
 75.4693877551 137.576530612 75.6428571429 133.857142857 76 130 c 0
 82 41 211 29 233 29 c 0
 331.984154391 30.2690276204 394.062145709 90.6322316032 394.062145709 166.381387906 c 0
 394.062145709 190.963842776 390.020032103 237.58901503 367 292 c 0
 339.299793595 356.633814945 321.92467378 432.477723902 321.92467378 496.458890862 c 0
127 278 m 0
 118 278 112 272 112 263 c 0
 112 254 118 248 127 248 c 0
 136 248 142 254 142 263 c 0
 142 272 136 278 127 278 c 0
EndSplineSet
EndChar

StartChar: uni1A39
Encoding: 6713 6713 25
GlifName: uni1A_39
Width: 530
VWidth: 0
GlyphClass: 2
Flags: W
HStem: -9.09133 40.0913<91.559 170.553 250.04 329.873> 22 50.0148<196.216 225.449> 162 26<192.554 221.314> 184.123 33.5477<324.976 375.633> 269.955 40.0445<95.9739 181.383 324.559 364.768>
VStem: 35 40<46.625 99.0376 196.522 250.833> 166 26<188.554 218.357> 222 26.0716<188.502 217.402> 279.905 40.0776<223.579 265.494> 378 40<97.0221 187.892>
AnchorPoint: "Bottom_Sara_U" 298 -45 basechar 0
AnchorPoint: "Bottom_Sara_UU" 277 -45 basechar 0
AnchorPoint: "BottomSubjoinedConsonant" 212 -45 basechar 0
AnchorPoint: "BottomWithRightVerticalStem" 415 -45 basechar 0
AnchorPoint: "TopCenteredOnCenter" 214 352 basechar 0
AnchorPoint: "TopPositioningForSara_I" 254 352 basechar 0
AnchorPoint: "TopSara_II" 240 352 basechar 0
AnchorPoint: "TopRightAlignedMarks" 402 352 basechar 0
AnchorPoint: "TopPositioningForMaiKang" 276 352 basechar 0
AnchorPoint: "TopPositioningForMaiEekMaiKoo" 276 352 basechar 0
LayerCount: 3
Fore
SplineSet
210 22 m 0x5fc0
 207.139137107 22 186.812386907 -9.09133086034 125.128980917 -9.09133086034 c 0x8fc0
 83.8748954813 -9.09133086034 35 21.4952180442 35 69 c 0
 35 108 60 136 78 143 c 0
 81 144 87 146 87 148 c 0
 87 151 83 151 79 153 c 0
 60 160 35 189 35 222 c 0
 36 273 82 310 137 310 c 2
 142 310 l 2
 208.374476087 309.023904763 248.07161867 257.551428251 248.07161867 206.731820417 c 0
 248.07161867 180.454030579 227.051678893 162 207 162 c 0
 184 162 166 180 166 203 c 0
 166 223 181 240 200 244 c 1
 182.9973646 261.812284705 159.275526234 269.955472458 137.061125795 269.955472458 c 0
 104.401396636 269.955472458 75 252.353942729 75 222 c 0
 75 179.846177083 139.169795918 181.591761095 139.169795918 144.864979592 c 0
 139.169795918 110.687346939 75 121.428571429 75 68 c 0
 75 46 106 31 129 31 c 0
 186.546961664 32.0095958187 186.384919741 72.0148073269 213.73740733 72.0148073269 c 0
 236.949503321 72.0148073269 243.813401627 27.6484180202 284.555203349 27.6484180202 c 0
 343.726467655 27.6484180202 378 86.6072267516 378 170 c 2
 378 188 l 1x6fc0
 368.238135279 185.453426595 358.296130667 184.12279746 348.670953908 184.12279746 c 0
 334.674184826 184.12279746 279.905313746 187.998916244 279.905313746 248.663691825 c 0
 279.905313746 286.527988231 310.74126438 308.553124604 342.720479221 308.553124604 c 0
 373.90166727 308.553124604 406.169772192 287.613527096 412 240 c 1
 434 249 465 277 494 311 c 1
 496 309 l 1
 490 278 454 229 417 207 c 1
 418 196 418 184 418 170 c 0
 416 135 413 98 397 66 c 0
 376 23 339 -10 287 -10 c 0
 232 -10 219 22 210 22 c 0x5fc0
376 222 m 1
 374 244 368 269 343 269 c 0
 328.635611499 269 319.982936687 256.684117359 319.982936687 244.117833611 c 0
 319.982936687 231.029960838 329.368812151 217.67046875 351.463146484 217.67046875 c 0x1fc0
 358.36734375 217.67046875 366.5125 218.975 376 222 c 1
207 219 m 0
 198 219 192 212 192 203 c 0
 192 194 198 188 207 188 c 0x2fc0
 216 188 222 194 222 203 c 0
 222 211 216 219 207 219 c 0
EndSplineSet
EndChar

StartChar: uni1A3A
Encoding: 6714 6714 26
GlifName: uni1A_3A_
Width: 516
VWidth: 0
GlyphClass: 2
Flags: W
HStem: -9.09133 40.0913<91.559 170.553 248.276 326.626> 22 50.0148<196.216 225.312> 162 26<192.554 221.384> 269.955 40.0445<95.9739 179.866> 310.281 40.643<177.078 354.628> 315 39<290.686 355> 420.215 38.1219<394.606 436.585> 598.047 31.9528<193.639 340.113>
VStem: 35 40<46.3495 99.0555 196.522 250.833> 43.4449 39.8608<416.874 517.035> 166 26<188.554 218.357> 222 26.0684<188.558 218.512> 350.562 39.4961<361.289 415.86> 378.901 39.8437<102.966 301.038> 441.126 40.2805<374.728 415.945>
AnchorPoint: "Bottom_Sara_U" 298 -45 basechar 0
AnchorPoint: "Bottom_Sara_UU" 277 -45 basechar 0
AnchorPoint: "BottomSubjoinedConsonant" 212 -45 basechar 0
AnchorPoint: "BottomWithRightVerticalStem" 415 -45 basechar 0
AnchorPoint: "TopCenteredOnCenter" 214 382 basechar 0
AnchorPoint: "TopPositioningForSara_I" 234 382 basechar 0
AnchorPoint: "TopSara_II" 232 382 basechar 0
AnchorPoint: "TopRightAlignedMarks" 422 482 basechar 0
AnchorPoint: "TopPositioningForMaiKang" 276 382 basechar 0
AnchorPoint: "TopPositioningForMaiEekMaiKoo" 276 382 basechar 0
LayerCount: 3
Fore
SplineSet
210 22 m 0x7736
 207.139137107 22 186.812386907 -9.09133086034 125.128980917 -9.09133086034 c 0xb336
 83.8748954813 -9.09133086034 35 21.4952180442 35 69 c 0
 35 108 60 136 78 143 c 0
 81 144 87 146 87 148 c 0
 87 151 83 151 79 153 c 0
 60 160 35 189 35 222 c 0
 36 273 82 310 137 310 c 2
 140 310 l 2
 206.447293423 309.02283392 248.068394613 257.438429828 248.068394613 206.564565094 c 0
 248.068394613 180.885433404 227.392120525 162 207 162 c 0
 184 162 166 180 166 203 c 0
 166 223 181 240 200 244 c 1
 182.9973646 261.812284705 159.275526234 269.955472458 137.061125795 269.955472458 c 0
 104.401396636 269.955472458 75 252.353942729 75 222 c 0
 75 179.846177083 139.169795918 181.591761095 139.169795918 144.864979592 c 0
 139.169795918 110.687346939 75 121.428571429 75 68 c 0
 75 46 106 31 129 31 c 0
 186.546838309 32.0095936546 186.385621887 72.0148073269 213.736530021 72.0148073269 c 0
 236.893165879 72.0148073269 241.08974619 27.6484180202 281.574982167 27.6484180202 c 0
 307.850923122 27.6484180202 378.900980692 41.6108520976 378.900980692 192.626876406 c 0
 378.900980692 238.099432741 372.053519944 283.518058399 364 315 c 1x77b6
 345.597342369 312.546312316 317.88159502 310.280767858 286.392494571 310.280767858 c 0
 215.214574591 310.280767858 124.757076606 321.856345315 79 369 c 0
 56.406940604 392.445627675 43.4449440924 428.429808917 43.4449440924 465.952716397 c 0
 43.4449440924 560.355930027 117.347117277 630 265 630 c 0
 334 630 423 598 470 545 c 1
 468 542 l 1
 438.138992092 563.517490992 380.355671701 598.047247803 261.000778737 598.047247803 c 0
 258.794464905 598.047247803 83.305775153 593.342446125 83.305775153 467.269983104 c 0
 83.305775153 439.378477648 92.837926794 413.028477389 108 397 c 0
 144.979455038 358.699850139 228.617191375 350.92380954 289.229251845 350.92380954 c 0x3b76
 320.40533111 350.92380954 345.489727519 352.981042234 355 354 c 1
 352.781199215 366.758104513 350.56239843 378.900824411 350.56239843 390.598836677 c 0x377a
 350.56239843 428.52185796 379.213828606 458.336977717 415.755602466 458.336977717 c 0
 449.598307325 458.336977717 481.406471398 433.11218942 481.406471398 393.3686573 c 0
 481.406471398 350.838128563 441.756459043 332.398074377 403 322 c 1
 414.281313424 277.277650357 418.744696531 233.853954107 418.744696531 195.195327973 c 0
 418.744696531 137.903997652 408.941918983 91.0780298647 397 66 c 0
 376 23 339 -10 287 -10 c 0
 232 -10 219 22 210 22 c 0x7736
416.319448049 420.215058806 m 0
 410.645268831 420.215058806 390.058459818 418.265876803 390.058459818 389.978527842 c 0x333a
 390.058459818 381.015034572 392.054887671 370.939754109 395 361 c 1
 428.828610084 365.974795601 441.125945765 381.591485447 441.125945765 395.538151242 c 0
 441.125945765 408.610167486 430.322671595 420.215058806 416.319448049 420.215058806 c 0
207 219 m 0
 198 219 192 212 192 203 c 0
 192 194 198 188 207 188 c 0
 216 188 222 194 222 203 c 0
 222 211 216 219 207 219 c 0
EndSplineSet
EndChar

StartChar: uni1A3B
Encoding: 6715 6715 27
GlifName: uni1A_3B_
Width: 497
VWidth: 0
GlyphClass: 2
Flags: W
HStem: -1.00485 26.0048<150.777 179.24> 56 26<149.603 179.446> 269.014 40.2768<122.117 203.926 293.903 371.078>
VStem: 35.16 40.5977<102.548 211.46> 180 26<25.5409 55.4461> 422.282 40.2054<117.491 209.379>
AnchorPoint: "Bottom_Sara_U" 339 -45 basechar 0
AnchorPoint: "Bottom_Sara_UU" 320 -45 basechar 0
AnchorPoint: "BottomSubjoinedConsonant" 252 -45 basechar 0
AnchorPoint: "BottomWithRightVerticalStem" 447 -45 basechar 0
AnchorPoint: "TopPositioningForSara_I" 303 352 basechar 0
AnchorPoint: "TopRightAlignedMarks" 433 352 basechar 0
AnchorPoint: "TopPositioningForMaiKang" 334 352 basechar 0
AnchorPoint: "TopPositioningForMaiEekMaiKoo" 334 352 basechar 0
AnchorPoint: "TopCenteredOnCenter" 250 352 basechar 0
AnchorPoint: "TopSara_II" 301 352 basechar 0
LayerCount: 3
Fore
SplineSet
35.1600173552 159.413334636 m 0
 35.1600173552 235.436696897 86.2290680089 308.935364804 161.773545276 308.935364804 c 0
 197.931224726 308.935364804 231.875963709 291.855821199 250 267 c 1
 269.760130723 295.228758176 300.145098621 309.291066784 331.886358425 309.291066784 c 0
 407.823016921 309.291066784 462.487484187 234.418368782 462.487484187 160.046707873 c 0
 462.487484187 110.934838544 438.061020551 58.2497285147 367 21 c 0
 361.687652439 18.1667479675 359.009268295 15.5843495937 359.009268295 13.6525914254 c 0
 359.009268295 11.51296659 362.295079537 10.1715397675 368.927060779 10.1715397675 c 0
 373.214271083 10.1715397675 378.899815649 10.7321099373 386 12 c 1
 386 10 l 1
 386 10 357.2 -0.8 333.728 -0.8 c 0
 320.426222424 -0.8 303.96567059 2.87822431623 303.96567059 21.0852531464 c 0
 303.96567059 36.2344177495 324.528241887 41.32153854 347 55 c 0
 383 78 416 106 422 151 c 0
 422.18905978 153.646836924 422.282058634 156.307077698 422.282058634 158.97354229 c 0
 422.282058634 212.722346737 384.494957911 269 334 269 c 0
 333.390531997 269.009522938 332.788318902 269.014239499 332.193246718 269.014239499 c 0
 269.711961275 269.014239499 285.927239237 216.986279844 248.969319044 216.986279844 c 0
 212.751976739 216.986279844 233.875295988 269.013720156 158.148862774 269.013720156 c 0
 107.889978171 269.013720156 75.7577099893 210.861499953 75.7577099893 156.478628144 c 0
 75.7577099893 119.12216808 90.208841158 79.5666094782 126 50 c 1
 127 69 147 82 165 82 c 0
 188 82 206 64 206 41 c 0
 206 18 188 -1 165 -1 c 0
 164.673498978 -1.00323268338 164.347290563 -1.00484557928 164.021378809 -1.00484557928 c 0
 92.4342033483 -1.00484557928 35.1600173552 76.8125591904 35.1600173552 159.413334636 c 0
165 56 m 0
 156 56 149 50 149 41 c 0
 149 32 156 25 165 25 c 0
 174 25 180 32 180 41 c 0
 180 50 174 56 165 56 c 0
EndSplineSet
EndChar

StartChar: uni1A3C
Encoding: 6716 6716 28
GlifName: uni1A_3C_
Width: 497
VWidth: 0
GlyphClass: 2
Flags: W
HStem: -1 26<150.55 179.362> 56 26<149.487 179.459> 269.014 40.2768<122.111 203.593 293.679 371.078> 593.432 35.6086<176.656 328.258>
VStem: 34.8471 40.2451<102.311 210.631> 39 40<275.67 529> 180 26<25.6377 55.3617> 422.282 39.599<117.184 210.572>
AnchorPoint: "Bottom_Sara_U" 339 -45 basechar 0
AnchorPoint: "Bottom_Sara_UU" 320 -45 basechar 0
AnchorPoint: "BottomSubjoinedConsonant" 252 -45 basechar 0
AnchorPoint: "BottomWithRightVerticalStem" 447 -45 basechar 0
AnchorPoint: "TopPositioningForSara_I" 303 352 basechar 0
AnchorPoint: "TopRightAlignedMarks" 433 352 basechar 0
AnchorPoint: "TopPositioningForMaiKang" 334 352 basechar 0
AnchorPoint: "TopPositioningForMaiEekMaiKoo" 334 352 basechar 0
AnchorPoint: "TopCenteredOnCenter" 250 352 basechar 0
AnchorPoint: "TopSara_II" 301 352 basechar 0
LayerCount: 3
Fore
SplineSet
158.148611772 269.013720156 m 0xf7
 107.749207588 269.013720156 75.0922251253 210.497431167 75.0922251253 155.764030575 c 0
 75.0922251253 118.618317915 89.4369747899 79.3781512605 125 50 c 1
 126 69 146 82 164 82 c 0
 187 82 206 64 206 41 c 0
 206 18 187 -1 164 -1 c 0
 97.4554744617 -1 34.8471034826 69.0635511541 34.8471034826 156.804745945 c 0xfb
 34.8471034826 167.953573377 35.8579464697 179.387815073 38 191 c 1
 38 224 39 424 39 498 c 0
 39 574.885305855 133.168848689 629.040199957 242.620259339 629.040199957 c 0
 315.385468725 629.040199957 394.905299414 605.104697365 458 548 c 1
 456 547 l 1
 456 547 381.377751338 593.431621389 275.167439693 593.431621389 c 0
 255.965068631 593.431621389 178.750669812 591.765537165 134 566 c 0
 103 548 79 529 79 498 c 0
 79 447 78 350 78 272 c 1
 102.507090529 297.843840922 132.771975141 308.598290454 161.628729542 308.598290454 c 0
 197.533701556 308.598290454 231.258670853 291.948744112 249 267 c 1
 268.760130723 295.228758176 299.145098621 309.291066784 330.886358425 309.291066784 c 0
 407.603498898 309.291066784 461.881070294 233.0851282 461.881070294 159.20123108 c 0
 461.881070294 110.330935224 437.653409412 58.0360613853 367 21 c 0
 361.524884451 18.0799383741 358.714381371 15.426337995 358.714381371 13.4768706975 c 0
 358.714381371 11.4397775971 361.783219015 10.1715397675 368.087355155 10.1715397675 c 0
 372.278572892 10.1715397675 377.899815649 10.7321099373 385 12 c 1
 385 10 386 10 386 10 c 1
 386 10 356.84 -0.8 333.08 -0.8 c 0
 319.749230243 -0.8 302.967161683 2.81833946326 302.967161683 21.0388425651 c 0
 302.967161683 36.2240438926 324.505309479 41.3075796828 347 55 c 0
 383 78 416 106 422 151 c 0
 422.18905978 153.646836924 422.282058634 156.307077698 422.282058634 158.97354229 c 0
 422.282058634 212.722346737 384.494957911 269 334 269 c 0
 333.390531997 269.009522938 332.788228216 269.014239499 332.192976387 269.014239499 c 0
 269.692791951 269.014239499 284.90799721 216.986279844 247.969570047 216.986279844 c 0
 211.77007592 216.986279844 233.857196807 269.013720156 158.148611772 269.013720156 c 0xf7
164 56 m 0
 155 56 149 50 149 41 c 0
 149 32 155 25 164 25 c 0
 173 25 180 32 180 41 c 0
 180 50 173 56 164 56 c 0
EndSplineSet
EndChar

StartChar: uni1A3D
Encoding: 6717 6717 29
GlifName: uni1A_3D_
Width: 607
VWidth: 0
GlyphClass: 2
Flags: W
HStem: -11 3<452.599 463> -10.0154 39.9955<103.093 200.059> 200 26<64.5539 94.4591> 270.163 40.4824<375.251 466.536> 273.987 37.0132<109.584 201.666>
VStem: 38 26<226.554 254.966> 95 26<226.638 255.337> 270 40<103.124 201.845> 532.488 40.1337<106.568 202.198>
AnchorPoint: "Bottom_Sara_U" 424 -45 basechar 0
AnchorPoint: "Bottom_Sara_UU" 405 -45 basechar 0
AnchorPoint: "BottomSubjoinedConsonant" 376 -45 basechar 0
AnchorPoint: "BottomWithRightVerticalStem" 558 -45 basechar 0
AnchorPoint: "TopPositioningForSara_I" 420 352 basechar 0
AnchorPoint: "TopRightAlignedMarks" 546 352 basechar 0
AnchorPoint: "TopPositioningForMaiKang" 421 352 basechar 0
AnchorPoint: "TopPositioningForMaiEekMaiKoo" 421 352 basechar 0
AnchorPoint: "TopCenteredOnCenter" 292 352 basechar 0
AnchorPoint: "TopSara_II" 418 352 basechar 0
LayerCount: 3
Fore
SplineSet
422.15059744 310.644938218 m 0x3780
 501.677525411 310.644938218 572.621767716 240.646067681 572.621767716 156.185348505 c 0
 572.621767716 130.756735224 566.178503447 105.235782394 553 82 c 1
 529 44 502 15 448 5 c 0
 441.659844463 3.81122083678 438.30310249 1.99435460739 438.30310249 0.0471725231273 c 0
 438.30310249 -2.91954902883 446.09527219 -6.18877916322 463 -8 c 1
 463 -11 463 -11 449 -11 c 0
 426.666811974 -11 385.283331721 -6.67038813015 385.283331721 17.298724638 c 0
 385.283331721 19.0876319861 385.513846508 20.9859355315 386 23 c 0
 390 38 412 39 438 44 c 0
 498.860322176 56.4084152009 532.488073177 105.126925302 532.488073177 155.291485449 c 0
 532.488073177 218.796644848 478.094545166 270.162500172 421.327839936 270.162500172 c 0xb780
 364.66072757 270.162500172 311.46805729 221.93480723 310 150 c 0
 308.012222938 63.5316978044 238.336537678 -10.0153911116 154.815052361 -10.0153911116 c 0
 84.976244975 -10.0153911116 35.9897105723 37.1852096984 35 55 c 0
 35 66 44 75 55 75 c 0
 62 75 67 71 71 66 c 1
 71 66 95.3377777778 29.9800888889 154.579173926 29.9800888889 c 0
 214.161633579 29.9800888889 269.019025337 87.2366469061 270 151 c 1
 269.168492287 226.667201883 215.098793662 273.986795618 149.759235877 273.986795618 c 0
 136.519176465 273.986795618 122.816367534 272.043814888 109 268 c 1
 118 261 121 251 121 241 c 0
 121 218 102 200 79 200 c 0
 56 200 38 218 38 241 c 0
 38 291 115 311 161 311 c 0x6f80
 214 311 263 279 290 231 c 1
 316.332323454 279.056490304 367.800080028 310.644938218 422.15059744 310.644938218 c 0x3780
79 226 m 0
 88 226 95 232 95 241 c 0
 95 250 88 256 79 256 c 0
 70 256 64 250 64 241 c 0
 64 232 70 226 79 226 c 0
EndSplineSet
EndChar

StartChar: uni1A3E
Encoding: 6718 6718 30
GlifName: uni1A_3E_
Width: 467
VWidth: 0
GlyphClass: 2
Flags: W
HStem: -10 38.9663<167.12 298.798> 106.82 47.2554<266.036 324.598> 278 26<111.554 141.455> 289.258 10.5496<309.903 354.572>
VStem: 35.3752 40.2558<95.6528 185.261> 85 26<248.474 277.446> 142 24.7115<248.583 277.316> 392 41<104.943 194.013> 414.52 17.124<-90.1649 -6.95822>
AnchorPoint: "Bottom_Sara_U" 305 -45 basechar 0
AnchorPoint: "Bottom_Sara_UU" 288 -45 basechar 0
AnchorPoint: "BottomSubjoinedConsonant" 234 -45 basechar 0
AnchorPoint: "BottomWithRightVerticalStem" 424 -45 basechar 0
AnchorPoint: "TopCenteredOnCenter" 234 352 basechar 0
AnchorPoint: "TopPositioningForSara_I" 245 352 basechar 0
AnchorPoint: "TopSara_II" 239 352 basechar 0
AnchorPoint: "TopRightAlignedMarks" 404 352 basechar 0
AnchorPoint: "TopPositioningForMaiKang" 312 352 basechar 0
AnchorPoint: "TopPositioningForMaiEekMaiKoo" 312 352 basechar 0
LayerCount: 3
Fore
SplineSet
233 -10 m 0xee80
 206.254783985 -9.33136959961 35.3752470443 0.508526941315 35.3752470443 142.802142926 c 0
 35.3752470443 165.972677784 39.4868329805 188.261684754 54 206 c 0
 68 223 76 231 92 240 c 1
 88 247 85 255 85 263 c 0
 85 286 103 304 126 304 c 0
 151.764652761 304 166.711541594 282.692283174 166.711541594 261.660911537 c 0
 166.711541594 245.959332318 158.380442918 230.411782413 140 224 c 0
 103.415784109 210.867204552 75.6310741502 187.175001984 75.6310741502 139.716293845 c 0
 75.6310741502 40.3687430872 211.072383947 28.9663425432 230.348190827 28.9663425432 c 0
 231.268071717 28.9663425432 232.152680682 28.9777021232 233 29 c 0
 283 29 326 47 355 73 c 1
 334.699813433 91.7386337537 310.741956086 106.819596727 287.41016253 106.819596727 c 0
 280.859145381 106.819596727 274.357484214 105.630683123 268 103 c 1
 262.556128294 91.122461732 251.479016914 85.1230866019 240.465629503 85.1230866019 c 0
 222.632718085 85.1230866019 211.108845602 100.115268786 211.108845602 113.674547943 c 0
 211.108845602 135.006047962 238.381107092 154.075011391 275.609917572 154.075011391 c 0
 306.810939169 154.075011391 345.005357126 140.681131688 380 104 c 1
 388 118 392 134 392 150 c 0
 392 188 368 223 331 244 c 0
 307 257 287 262 287 278 c 0xef
 287.434452302 294.943639765 301.64756718 299.807356175 318.159015405 299.807356175 c 0
 339.652770884 299.807356175 365.041166112 291.565547698 369 291 c 1
 369 288 l 1
 363.315496716 288.812071898 357.997360525 289.257776703 353.660458695 289.257776703 c 0xdf
 347.1440066 289.257776703 342.842872008 288.251515921 342.842872008 285.969856668 c 0
 342.842872008 284.16024974 345.548387097 281.548387097 352 278 c 2
 364 271 l 1
 406 242 433 199 433 150 c 0xef
 433 121 423 93 406 70 c 1
 424.475623588 39.5152210802 431.644072583 7.32369882551 431.644072583 -25.0964504789 c 0
 431.644072583 -62.8664068569 421.914625847 -100.94666951 409 -137 c 1
 406 -136 l 1
 411.744328688 -106.264651496 414.520041065 -82.4665356156 414.520041065 -61.9435780568 c 0
 414.520041065 -21.7300601394 403.862949374 5.90878943976 384 41 c 1
 382 43 l 1
 345 10 292 -10 233 -10 c 0xee80
126 278 m 0
 117 278 111 272 111 263 c 0
 111 254 117 248 126 248 c 0
 135 248 142 254 142 263 c 0
 142 272 135 278 126 278 c 0
EndSplineSet
EndChar

StartChar: uni1A3F
Encoding: 6719 6719 31
GlifName: uni1A_3F_
Width: 636
VWidth: 0
GlyphClass: 2
Flags: W
HStem: -10.6003 36.6003<131.058 241.046> -9.04792 38.9422<417.558 509.091> 275 26<90.5539 119.446>
VStem: 34.8101 40.1099<78.9652 173.095> 64 26<244.627 274.446> 120 26<244.515 274.446> 308.507 40.4927<97.1352 208.725> 416.269 52.0338<250.527 289.374> 560.482 41.2806<83.6142 184.057>
AnchorPoint: "Bottom_Sara_U" 467 -45 basechar 0
AnchorPoint: "Bottom_Sara_UU" 448 -45 basechar 0
AnchorPoint: "BottomSubjoinedConsonant" 437 -45 basechar 0
AnchorPoint: "BottomWithRightVerticalStem" 589 -45 basechar 0
AnchorPoint: "TopPositioningForSara_I" 430 352 basechar 0
AnchorPoint: "TopRightAlignedMarks" 558 352 basechar 0
AnchorPoint: "TopPositioningForMaiKang" 451 352 basechar 0
AnchorPoint: "TopPositioningForMaiEekMaiKoo" 451 352 basechar 0
AnchorPoint: "TopCenteredOnCenter" 315 352 basechar 0
AnchorPoint: "TopSara_II" 423 352 basechar 0
LayerCount: 3
Fore
SplineSet
601.763066904 134.213419286 m 0xb780
 601.763066904 58.6065098385 548.791800986 -9.04792154552 466.111842729 -9.04792154552 c 0x7780
 410.423508567 -9.04792154552 353.733139714 22.0111718847 328 70 c 1
 297.545542806 0.525769526474 222.710007306 -10.0756019692 192.278450832 -10.0756019692 c 0
 190.734070222 -10.0756019692 189.304051743 -10.0482982127 188 -10 c 0
 183.021239408 -10.4036832912 178.153382285 -10.6002713288 173.397989487 -10.6002713288 c 0
 84.4148784468 -10.6002713288 34.8100848526 58.2331674892 34.8100848526 127.058400806 c 0xb780
 34.8100848526 163.891997304 49.0175472299 200.72324364 79 227 c 1
 70 235 64 247 64 260 c 0xaf80
 64 283 82 301 105 301 c 0
 128 301 146 283 146 260 c 0
 146 246 139 234 129 226 c 0
 92.2 196 74.92 158.32 74.92 123.776 c 0
 74.92 71.96 113.8 27.2 184 26 c 1
 273.106568369 26 308.50732328 87.8716096558 308.50732328 149.659246195 c 0
 308.50732328 198.124247475 286.72692515 246.537584097 252 265 c 1
 247 269 245 274 245 280 c 0
 245 291 254 300 265 300 c 0
 270 300 275 298 279 294 c 0
 331 259 348 206 349 151 c 0
 349 127 356 99 371 78 c 1
 393.515072996 51.9669468479 426.921188244 29.894272696 463.903765007 29.894272696 c 0
 514.782961232 29.894272696 560.482436652 70.3422683649 560.482436652 134.587459069 c 0
 560.482436652 153.682938069 556.102988211 172.203238919 548 187 c 0
 500.673117296 272.188388868 416.269264393 229.261177963 416.269264393 271.793334274 c 0
 416.269264393 295.546565531 456.699897678 299 479 299 c 0
 487 299 490 302 493 299 c 0
 494 298 495 297 493 297 c 0
 476.09527219 293.981298605 468.30310249 290.598094886 468.30310249 287.730647783 c 0
 468.30310249 285.848623626 471.659844463 284.188779163 478 283 c 0
 560.954792294 267.445976445 601.763066904 200.453289574 601.763066904 134.213419286 c 0xb780
105 275 m 0
 96 275 90 269 90 260 c 0x2f80
 90 251 96 244 105 244 c 0
 114 244 120 251 120 260 c 0
 120 269 114 275 105 275 c 0
EndSplineSet
EndChar

StartChar: uni1A40
Encoding: 6720 6720 32
GlifName: uni1A_40
Width: 457
VWidth: 0
GlyphClass: 2
Flags: W
HStem: -9.08621 40.0862<91.82 171.057 248.004 327.697> 22 50.0148<197.157 225.385> 162 26<193.554 222.275> 269.821 40.1791<96.7516 179.744> 608.396 21.6042<365.617 403.409>
VStem: 36 40<46.732 100.516 196.789 250.89> 167 26<188.554 218.357> 223 26.1444<188.732 218.119> 305.985 39.2937<405.977 575.161> 376.623 41.0273<95.8442 247.71>
AnchorPoint: "Bottom_Sara_U" 298 -45 basechar 0
AnchorPoint: "Bottom_Sara_UU" 277 -45 basechar 0
AnchorPoint: "BottomSubjoinedConsonant" 212 -45 basechar 0
AnchorPoint: "BottomWithRightVerticalStem" 415 -45 basechar 0
AnchorPoint: "TopCenteredOnCenter" 214 352 basechar 0
AnchorPoint: "TopPositioningForSara_I" 161 352 basechar 0
AnchorPoint: "TopSara_II" 129 352 basechar 0
AnchorPoint: "TopRightAlignedMarks" 402 352 basechar 0
AnchorPoint: "TopPositioningForMaiKang" 224 352 basechar 0
AnchorPoint: "TopPositioningForMaiEekMaiKoo" 224 352 basechar 0
LayerCount: 3
Fore
SplineSet
249.144373585 208.112994726 m 0xbfc0
 249.144373585 177.579038136 225.705136182 162 208 162 c 0
 185 162 167 180 167 203 c 0
 167 223 181 240 200 244 c 1
 183.625410214 261.60268402 159.877322685 269.820916367 137.536682928 269.820916367 c 0
 105.303400408 269.820916367 76 252.713033278 76 222 c 0
 76 180.510525428 139.259181378 183.297830334 139.259181378 143.90996465 c 0
 139.259181378 108.167049733 75 123.006993007 75 68 c 0
 75 46 106 31 129 31 c 0
 186.546838309 32.0095936546 186.385621887 72.0148073269 213.736530021 72.0148073269 c 0
 236.893165879 72.0148073269 241.08974619 27.6484180202 281.574982167 27.6484180202 c 0
 283.621544302 27.6484180202 285.760837961 27.7617912724 288 28 c 0
 349.149487724 34.3697383046 376.622915611 95.5137908028 376.622915611 167.238404846 c 0
 376.622915611 208.115927049 367.699203799 252.43014752 351 292 c 0
 321.925718246 359.663782992 305.985238607 434.313630938 305.985238607 496.598240907 c 0
 305.985238607 552.137815806 318.660151668 597.845295317 346 620 c 0
 354 626 364 630 375 630 c 0
 396 630 409 617 417 600 c 1
 414 599 l 1
 404.26599974 605.403947539 395.450635668 608.395817811 387.637949183 608.395817811 c 0
 370.274317339 608.395817811 345.278898367 593.61504923 345.278898367 508.492820318 c 0
 345.278898367 439.592234617 363.95372594 361.774639472 387 308 c 1
 403.909178659 260.832291109 417.650265097 217.624697494 417.650265097 168.509091219 c 0
 417.650265097 72.0846714603 371.638497864 -12 288 -12 c 0
 233 -12 220 22 211 22 c 0x7fc0
 208.191148907 22 187.704217068 -9.08621048917 126.261173749 -9.08621048917 c 0
 84.0458484902 -9.08621048917 35 23.3545689971 35 69 c 0
 35 108 61 136 79 143 c 0
 82 144 87 146 87 148 c 0
 87 151 83 151 79 153 c 0
 60 160 36 189 36 222 c 0
 37 273 83 310 138 310 c 2
 140 310 l 2
 205.812570161 309.032168086 249.144373585 259.356008244 249.144373585 208.112994726 c 0xbfc0
208 219 m 0
 199 219 193 212 193 203 c 0
 193 194 199 188 208 188 c 0
 217 188 223 194 223 203 c 0
 223 211 217 219 208 219 c 0
EndSplineSet
EndChar

StartChar: uni1A41
Encoding: 6721 6721 33
GlifName: uni1A_41
Width: 407
VWidth: 0
GlyphClass: 2
Flags: W
HStem: -10 40<115.294 205.057> 124 26<61.5539 90.4461> 198.139 39.8607<133 185.172> 269 40<151.594 254.198>
VStem: 35 26<94.4664 123.446> 91 26<94.5332 123.446> 237.045 39.955<63.0804 154.405> 356.598 16.0635<32.8365 136.976>
AnchorPoint: "Bottom_Sara_U" 254 -45 basechar 0
AnchorPoint: "Bottom_Sara_UU" 237 -45 basechar 0
AnchorPoint: "BottomSubjoinedConsonant" 190 -45 basechar 0
AnchorPoint: "BottomWithRightVerticalStem" 359 -45 basechar 0
AnchorPoint: "TopCenteredOnCenter" 190 352 basechar 0
AnchorPoint: "TopPositioningForSara_I" 203 352 basechar 0
AnchorPoint: "TopSara_II" 216 352 basechar 0
AnchorPoint: "TopRightAlignedMarks" 358 352 basechar 0
AnchorPoint: "TopPositioningForMaiKang" 246 352 basechar 0
AnchorPoint: "TopPositioningForMaiEekMaiKoo" 246 352 basechar 0
LayerCount: 3
Fore
SplineSet
199 309 m 1
 330.261659752 306.125657086 372.66139452 199.650039338 372.66139452 117.938037591 c 0
 372.66139452 63.7794609044 357 18 357 18 c 1
 354 18 l 1
 354 18 356.597869822 36.3706508876 356.597869822 62.7204733728 c 0
 356.597869822 97.5398816568 352.061538462 146.292307692 331 185 c 0
 300 243 259 268 199 269 c 0
 186 269 144 267 133 238 c 1
 219 235 279 189 277 106 c 0
 275 41 232 -10 163 -10 c 0
 86 -10 35 47 35 109 c 0
 35 132 53 150 76 150 c 0
 99 150 117 132 117 109 c 0
 117 89 103 72 84 68 c 1
 98 46 124 32 163 30 c 0
 182.241960073 30 237.045008222 36.4026610385 237.045008222 109.346530568 c 0
 237.045008222 178.20379865 178.873414992 198.139286458 119.674633675 198.139286458 c 0
 116.783320175 198.139286458 113.8895564 198.091731949 111 198 c 2
 90 197 l 1
 90 217 l 2
 90 275 132 309 194 309 c 2
 199 309 l 1
76 124 m 0
 67 124 61 118 61 109 c 0
 61 100 67 94 76 94 c 0
 85 94 91 100 91 109 c 0
 91 118 85 124 76 124 c 0
EndSplineSet
EndChar

StartChar: uni1A42
Encoding: 6722 6722 34
GlifName: uni1A_42
Width: 447
VWidth: 0
GlyphClass: 2
Flags: W
HStem: -265 40<133.002 280.339> -193 26<183.554 213.552> -136 28<183.561 213.111> -71 36<141.502 279.334> 180 26<68.7849 98.4591> 273.591 36.4094<92.2278 165.894 265.484 330.421>
VStem: 35 40<-185.054 -116.887> 41.7854 26.2146<206.814 235.168> 99 26<206.638 235.304> 157 26<-166.446 -136.816> 310.301 22.6999<-300.083 -247.404> 371 41<-103.27 230.226> 385.956 23.5035<-292.919 -191.427>
LayerCount: 3
Fore
SplineSet
298 270 m 0xfef0
 242 270 244 222 215 222 c 0
 199 222 196 233 191 238 c 1
 177.092287253 261.390244166 149.996542197 273.590642736 126.134250684 273.590642736 c 0
 112.24983123 273.590642736 99.4601184916 269.460118492 91 261 c 1
 110 257 125 241 125 221 c 0
 125 198 106 180 83 180 c 0
 56.1396328256 180 41.7853769931 202.898513725 41.7853769931 229.474838475 c 0
 41.7853769931 266.221727921 69.2284034214 310 129 310 c 0
 181 310 208 281 215 271 c 1
 221.89568725 277.89568725 246.258906086 310.022253457 296.693273282 310.022253457 c 0
 297.456206307 310.022253457 298.225105286 310.014901821 299 310 c 0
 344 310 408 283 411 175 c 0
 412 120 412 66 412 11 c 2
 412 -67 l 2xfdf0
 412 -105 405 -135 397 -155 c 1
 397 -155 409.459357278 -188.54442344 409.459357278 -230.17284458 c 0
 409.459357278 -262.194706994 402.086956522 -299 376 -329 c 1
 373 -327 l 1
 381.690683283 -305.273291792 385.955899227 -276.760866997 385.955899227 -249.9560496 c 0xfce8
 385.955899227 -227.411803824 382.938819832 -206.075465728 377 -191 c 1
 360 -216 332 -234 332 -234 c 1
 332.690140845 -239.126760563 333.00119024 -244.136877604 333.00119024 -249.003517634 c 0
 333.00119024 -293.4985122 307 -326 307 -326 c 1
 303 -323 l 1
 303 -323 310.301243916 -307.910762574 310.301243916 -283.505364308 c 0
 310.301243916 -272.929691725 308.930232558 -260.604651163 305 -247 c 1
 274 -260 242 -265 216 -265 c 0
 68 -265 35 -196 35 -150 c 0
 35 -74 117 -35 197 -35 c 2
 217 -35 l 1
 267 -38 317 -51 355 -89 c 1
 369 -104 l 1
 370 -93 371 -81 371 -67 c 2
 371 175 l 1
 369 228 350 270 298 270 c 0xfef0
83 236 m 0
 74 236 68 230 68 221 c 0
 68 212 74 206 83 206 c 0
 92 206 99 212 99 221 c 0
 99 230 92 236 83 236 c 0
358 -145 m 1
 346 -122 312 -76 214 -71 c 1
 205 -71 l 2
 162 -71 75 -91 75 -150 c 0xfee0
 75 -210 151 -225 215 -225 c 0
 236 -225 265 -220 290 -210 c 1
 272 -178 252 -166 239 -161 c 1
 235 -179 217 -193 198 -193 c 0
 175 -193 157 -175 157 -152 c 0
 157 -126 178 -108 204 -108 c 0
 219 -108 279 -115 319 -194 c 1
 335 -182 351 -162 358 -145 c 1
198 -136 m 0
 189 -136 183 -143 183 -152 c 0
 183 -161 189 -167 198 -167 c 0
 207 -167 214 -161 214 -152 c 0
 214 -143 207 -136 198 -136 c 0
EndSplineSet
EndChar

StartChar: uni1A43
Encoding: 6723 6723 35
GlifName: uni1A_43
Width: 593
VWidth: 0
GlyphClass: 2
Flags: W
HStem: -10 40<347.472 448.418> -3.03792 26.0379<138.398 167.268> 53 26<138.543 167.446> 270 40.0089<143.885 238.938> 292.061 13.1128<441.705 492.03>
VStem: 35 39.917<93.276 200.579> 168 26<23.4702 52.4461> 268.43 38.96<67.7086 146.562> 287.448 38.6925<146.562 224.465> 518.173 39.8358<97.2756 195.363>
AnchorPoint: "Bottom_Sara_U" 432 -45 basechar 0
AnchorPoint: "Bottom_Sara_UU" 413 -45 basechar 0
AnchorPoint: "BottomSubjoinedConsonant" 404 -45 basechar 0
AnchorPoint: "BottomWithRightVerticalStem" 548 -45 basechar 0
AnchorPoint: "TopPositioningForSara_I" 420 352 basechar 0
AnchorPoint: "TopRightAlignedMarks" 546 352 basechar 0
AnchorPoint: "TopPositioningForMaiKang" 421 352 basechar 0
AnchorPoint: "TopPositioningForMaiEekMaiKoo" 421 352 basechar 0
AnchorPoint: "TopCenteredOnCenter" 292 352 basechar 0
AnchorPoint: "TopSara_II" 418 352 basechar 0
LayerCount: 3
Fore
SplineSet
194 38 m 0xb6c0
 194 14.5938457359 175.242677944 -3.03791648691 150.807729015 -3.03791648691 c 0
 123.035977955 -3.03791648691 104.593279757 15.3304601971 89 28 c 0
 61 50 35 90 35 150 c 0
 35 237 100 310 193 310 c 0
 193.525208897 310.005968283 194.049919108 310.008944452 194.574109374 310.008944452 c 0
 265.057510048 310.008944452 326.140364303 256.200130681 326.140364303 187.344234017 c 0x76c0
 326.140364303 146.303211687 307.389877066 130.486722645 307.389877066 108.339262396 c 0
 307.389877066 86.6240709999 315.84167084 30 404 30 c 0
 454.487903772 30 518.173439934 79.0197774478 518.173439934 140.4482997 c 0
 518.173439934 142.288063878 518.116315094 144.138958489 518 146 c 0
 509.204302789 261.321363433 426.864774887 253.432932593 426.864774887 283.81866578 c 0
 426.864774887 289.746710483 429.256492112 305.173553719 454.152516905 305.173553719 c 0
 478.41322314 305.173553719 510 291 510 291 c 1
 509 289 l 1
 500.459648239 291.13508794 494.152080403 292.060751255 489.907039704 292.060751255 c 0
 485.335308171 292.060751255 483.155776128 290.987130807 483.155776128 289.194335656 c 0
 483.155776128 287.19405926 485.868976954 284.298514815 491 281 c 0
 506.182132659 271.338642854 558.00927935 231.943501635 558.00927935 144.330671398 c 0
 558.00927935 55.1850601835 478.529334821 -10 403 -10 c 0
 314.950342716 -10 268.429861778 42.855315349 268.429861778 103.644204714 c 0xaf40
 268.429861778 145.862891685 287.447900757 161.074864493 287.447900757 185.993150364 c 0
 287.447900757 233.431471479 243.192255236 270 194 270 c 0
 109.401021177 270 74.9170274973 198.137002437 74.9170274973 153.713776604 c 0
 74.9170274973 104.057796743 89.5893964325 79.3922488741 116 56 c 1
 123 70 137 79 153 79 c 0
 176 79 194 61 194 38 c 0xb6c0
153 53 m 0
 144 53 138 47 138 38 c 0
 138 29 144 23 153 23 c 0
 162 23 168 29 168 38 c 0
 168 47 162 53 153 53 c 0
EndSplineSet
EndChar

StartChar: uni1A44
Encoding: 6724 6724 36
GlifName: uni1A_44
Width: 439
VWidth: 0
GlyphClass: 2
Flags: W
HStem: -265 40<139.002 286.339> -193 26<189.554 219.552> -136 28<189.561 219.111> -71 36.9203<146.024 284.784> 0 40<95 207> 180 26<75.7849 104.446> 273.591 36.4094<98.7278 172 270.436 332.738>
VStem: 41 40<-185.054 -117.005> 48.7854 26.2146<206.814 235.168> 105 26<206.554 235.389> 163 26<-166.446 -136.816> 316.301 22.6999<-300.083 -247.404> 363 40<177.888 247.363> 391.956 23.5256<-292.968 -192.061>
LayerCount: 3
Fore
SplineSet
210 40 m 2xfef8
 257.730341306 40 405.375 14.1047163478 405.375 -121.46875 c 0
 405.375 -131.875 404.25 -142 402 -151 c 2
 402 -151 415.48153944 -186.512347792 415.48153944 -230.0083055 c 0
 415.48153944 -262.365054526 408.020979021 -299.13986014 382 -329 c 1
 379 -327 l 1
 387.690683283 -305.273291792 391.955899227 -276.760866997 391.955899227 -249.9560496 c 0
 391.955899227 -227.411803824 388.938819832 -206.075465728 383 -191 c 1
 366 -216 338 -234 338 -234 c 1
 338.690140845 -239.126760563 339.00119024 -244.136877604 339.00119024 -249.003517634 c 0
 339.00119024 -293.4985122 313 -326 313 -326 c 1
 309 -323 l 1
 309 -323 316.301243916 -307.910762574 316.301243916 -283.505364308 c 0
 316.301243916 -272.929691725 314.930232558 -260.604651163 311 -247 c 1
 280 -260 248 -265 222 -265 c 0
 74 -265 41 -196 41 -150 c 0xff74
 41 -74.8893935226 122.600148763 -34.0797345341 208.346779442 -34.0797345341 c 0
 265.300751748 -34.0797345341 324.084060923 -52.0840609228 362 -90 c 1
 341 -5 207 0 207 0 c 1
 35 0 l 1
 34.797315452 2.08722126983 34.3798629542 5.65904067933 35 10 c 0
 35 11 41 38 57 58 c 0
 144 166 363 104 363 212 c 0
 363 258 322 270 299 270 c 0
 251 270 251 222 221 222 c 0
 205 222 202 233 197 238 c 1
 183.092287253 261.390244166 155.996542197 273.590642736 132.134250684 273.590642736 c 0
 118.24983123 273.590642736 105.460118492 269.460118492 97 261 c 1
 116 257 131 241 131 221 c 0
 131 198 113 180 90 180 c 0
 63.1396328256 180 48.7853769931 202.898513725 48.7853769931 229.474838475 c 0
 48.7853769931 266.221727921 76.2284034214 310 136 310 c 0
 193 310 222 271 222 271 c 1
 228 277 253 310 299 310 c 0
 356 310 403 271 403 212 c 0
 403 178 388 136 332 115 c 1
 263 87 151 99 95 40 c 1
 210 40 l 2xfef8
90 236 m 0
 81 236 75 230 75 221 c 0xfef0
 75 212 81 206 90 206 c 0
 99 206 105 212 105 221 c 0
 105 230 99 236 90 236 c 0
364 -145 m 1
 352 -122 318 -76 220 -71 c 1
 211 -71 l 2
 168 -71 81 -91 81 -150 c 0xff70
 81 -210 157 -225 221 -225 c 0
 242 -225 271 -220 296 -210 c 1
 278 -178 258 -166 245 -161 c 1
 241 -179 223 -193 204 -193 c 0
 181 -193 163 -175 163 -152 c 0
 163 -126 184 -108 210 -108 c 0
 225 -108 285 -115 325 -194 c 1
 341 -182 357 -162 364 -145 c 1
204 -136 m 0
 195 -136 189 -143 189 -152 c 0
 189 -161 195 -167 204 -167 c 0
 213 -167 220 -161 220 -152 c 0
 220 -143 213 -136 204 -136 c 0
EndSplineSet
EndChar

StartChar: uni1A45
Encoding: 6725 6725 37
GlifName: uni1A_45
Width: 393
VWidth: 0
GlyphClass: 2
Flags: W
HStem: -10 38<147.524 247.41> 271 39<147.524 247.41>
VStem: 35 40<99.3901 200.523> 319 39<99.3901 200.523>
AnchorPoint: "Bottom_Sara_U" 254 -45 basechar 0
AnchorPoint: "Bottom_Sara_UU" 237 -45 basechar 0
AnchorPoint: "BottomSubjoinedConsonant" 196 -45 basechar 0
AnchorPoint: "BottomWithRightVerticalStem" 349 -45 basechar 0
AnchorPoint: "TopCenteredOnCenter" 196 352 basechar 0
AnchorPoint: "TopPositioningForSara_I" 203 352 basechar 0
AnchorPoint: "TopSara_II" 216 352 basechar 0
AnchorPoint: "TopRightAlignedMarks" 338 352 basechar 0
AnchorPoint: "TopPositioningForMaiKang" 259 352 basechar 0
AnchorPoint: "TopPositioningForMaiEekMaiKoo" 259 352 basechar 0
LayerCount: 3
Fore
SplineSet
196 310 m 0
 285 310 358 238 358 150 c 0
 358 62 285 -10 196 -10 c 0
 107 -10 35 62 35 150 c 0
 35 238 107 310 196 310 c 0
197 271 m 0
 130 271 75 217 75 150 c 0
 75 83 130 28 197 28 c 0
 264 28 319 83 319 150 c 0
 319 217 264 271 197 271 c 0
EndSplineSet
EndChar

StartChar: uni1A46
Encoding: 6726 6726 38
GlifName: uni1A_46
Width: 470
VWidth: 0
GlyphClass: 2
Flags: W
HStem: -0.00916754 26.0092<136.048 163.422> 0.0896333 55.9104<311.045 343.592> 56 26<134.459 163.446> 152 50.8554<271.222 324.385> 271 39<167.949 301.542>
VStem: 34.992 40.008<97.338 193.999> 164 26<26.5539 55.4461> 386.781 20.4286<275.665 346.735> 395 40<106.223 192.498>
AnchorPoint: "Bottom_Sara_U" 275 -45 basechar 0
AnchorPoint: "Bottom_Sara_UU" 258 -45 basechar 0
AnchorPoint: "BottomSubjoinedConsonant" 239 -45 basechar 0
AnchorPoint: "BottomWithRightVerticalStem" 435 -45 basechar 0
AnchorPoint: "TopCenteredOnCenter" 234 352 basechar 0
AnchorPoint: "TopPositioningForSara_I" 274 352 basechar 0
AnchorPoint: "TopSara_II" 260 352 basechar 0
AnchorPoint: "TopRightAlignedMarks" 402 352 basechar 0
AnchorPoint: "TopPositioningForMaiKang" 296 352 basechar 0
AnchorPoint: "TopPositioningForMaiEekMaiKoo" 296 352 basechar 0
LayerCount: 3
Fore
SplineSet
407.209366391 299.795447589 m 0xbf
 407.209366391 299.236145258 406.631976067 266.263952134 396 245 c 1
 421 219 435 186 435 150 c 0
 435 101 408 58 366 29 c 2
 354 21 l 2
 347.752057774 17.7116093547 345.07257485 15.0720294916 345.07257485 13.1523785208 c 0
 345.07257485 10.7424851154 349.295390423 9.46718634066 355.982219767 9.46718634066 c 0
 360.166852265 9.46718634066 365.316462509 9.9666295471 371 11 c 1
 371 9 372 9 372 9 c 1
 372 9 344.938886374 0.0896333182435 321.718569103 0.0896333182435 c 0
 304.518334088 0.0896333182435 289.425531915 4.97872340426 289 22 c 0
 289 38 310 43 334 56 c 0
 369 73 395 112 395 150 c 0x7e80
 395 170 387 190 375 207 c 1
 345 166 304 152 284 152 c 0
 269 152 253 165 253 181 c 0
 253 197 265 212 282 212 c 0
 296.258064516 212 300.66805411 202.855359001 309.38941291 202.855359001 c 0
 312.915758632 202.855359001 330.588760659 207.214923658 351 232 c 1
 322 255 282 271 235 271 c 0
 145 271 75 215 75 150 c 0
 75 122 81 89 111 57 c 1
 117 72 132 82 149 82 c 0
 172 82 190 64 190 41 c 0
 190 18 168 0 149 0 c 0
 148.694060401 -0.00611879197694 148.387634087 -0.00916753550281 148.08073824 -0.00916753550281 c 0
 97.5228058235 -0.00916753550281 34.9920093473 82.2917771251 34.9920093473 151.390212308 c 0
 34.9920093473 237.776264676 127.575757894 310 235 310 c 0
 288 310 337 294 373 267 c 1
 383.565217391 289.695652174 386.780718336 309.941398866 386.780718336 326.179419742 c 0
 386.780718336 351.438563327 379 367 379 367 c 1
 383 369 l 1
 383 369 407.209366391 344.790633609 407.209366391 299.795447589 c 0xbf
149 56 m 0
 140 56 134 50 134 41 c 0
 134 32 140 26 149 26 c 0
 158 26 164 32 164 41 c 0
 164 50 158 56 149 56 c 0
EndSplineSet
EndChar

StartChar: uni1A47
Encoding: 6727 6727 39
GlifName: uni1A_47
Width: 607
VWidth: 0
GlyphClass: 2
Flags: W
HStem: -11 37.2239<109.593 202.344> -9.65194 40.3801<375.421 468.925> 74 26<64.5539 94.4591> 93.8165 56.1835<407.625 477.579> 270.02 39.9958<102.344 200.073> 308 3<452.599 463>
VStem: 35 37<227.98 246.195> 38 26<45.0339 73.4461> 95 26<44.6631 73.3617> 270 40<99.2299 196.774> 526.081 20.3139<-44.9596 25.4445> 532.446 40.0825<97.3871 193.078>
AnchorPoint: "Bottom_Sara_U" 424 -45 basechar 0
AnchorPoint: "Bottom_Sara_UU" 405 -45 basechar 0
AnchorPoint: "BottomSubjoinedConsonant" 376 -45 basechar 0
AnchorPoint: "BottomWithRightVerticalStem" 558 -45 basechar 0
AnchorPoint: "TopPositioningForSara_I" 420 352 basechar 0
AnchorPoint: "TopRightAlignedMarks" 546 352 basechar 0
AnchorPoint: "TopPositioningForMaiKang" 421 352 basechar 0
AnchorPoint: "TopPositioningForMaiEekMaiKoo" 421 352 basechar 0
AnchorPoint: "TopCenteredOnCenter" 292 352 basechar 0
AnchorPoint: "TopSara_II" 418 352 basechar 0
LayerCount: 3
Fore
SplineSet
429.833345833 93.816452367 m 0x1ac0
 419.401666818 93.816452367 401.876715833 103.301021417 401.876715833 122.028666676 c 0
 401.876715833 136.086621252 412.685347573 150 434 150 c 0
 452 150 495 141 522 97 c 1
 528.931164497 111.786484261 532.44607717 127.854062956 532.44607717 144.018805918 c 0
 532.44607717 162.836805685 527.682602603 181.786484261 518 199 c 0
 505 221 488 246 438 256 c 0
 412 261 390 262 386 277 c 0
 385.513846508 279.014064469 385.283331721 280.912368014 385.283331721 282.701275362 c 0
 385.283331721 306.67038813 426.666811974 311 449 311 c 2
 463 311 l 1
 463 308 l 1
 446.09527219 306.188779163 438.30310249 302.919549029 438.30310249 299.952827477 c 0
 438.30310249 298.005645393 441.659844463 296.188779163 448 295 c 0
 502 285 529 257 553 219 c 1
 566.102389442 195.415699005 572.528621863 169.733177233 572.528621863 144.201756063 c 0x16d0
 572.528621863 111.274936581 561.840386355 78.5994305788 541 51 c 1
 544 36 l 2
 545.674418605 25.8139534884 546.394808004 16.3482963764 546.394808004 7.60031192222 c 0
 546.394808004 -46.345592212 519 -73 519 -73 c 1
 516 -71 l 1
 516 -71 526.080946746 -52.6710059172 526.080946746 -23.1472262176 c 0
 526.080946746 -9.05633136095 523.784615385 7.58461538462 517 26 c 1
 516.283411582 25.2834115824 477.799710798 -9.65194211175 422.137371807 -9.65194211175 c 0x54e0
 371.539315109 -9.65194211175 321.100977905 17.5881793818 290 69 c 1
 263 21 214 -11 161 -11 c 0
 115 -11 38 9 38 59 c 0
 38 82 56 100 79 100 c 0xa1e0
 102 100 121 82 121 59 c 0
 121 49 118 39 109 32 c 1
 123.173161582 28.0901623221 136.974768252 26.2238766606 150.154052972 26.2238766606 c 0
 217.87399204 26.2238766606 269.162909903 75.4989813887 270 150 c 1
 269.017905205 213.83616166 214.087188224 270.019911111 154.579702519 270.019911111 c 0
 95.3642666667 270.019911111 72 234 72 234 c 0
 68 229 62 226 55 226 c 0
 44 226 35 235 35 246 c 0
 35 250.5 35 250.5 40 258 c 0
 44.9474037361 263.936884483 83.1832605426 310.015727081 154.707570419 310.015727081 c 0
 238.651161641 310.015727081 308.018520935 236.194339319 310 150 c 1
 310 79.6657776116 364.680298585 30.7281938001 422.237689244 30.7281938001 c 0
 448.151099111 30.7281938001 474.647686392 40.6476863918 497 63 c 1
 476.900952633 90.4077918645 460.511470969 95.1872329398 447.605619442 95.1872329398 c 0
 440.693964008 95.1872329398 434.781440574 93.816452367 429.833345833 93.816452367 c 0x1ac0
79 74 m 0x21c0
 70 74 64 68 64 59 c 0
 64 50 70 44 79 44 c 0
 88 44 95 50 95 59 c 0
 95 68 88 74 79 74 c 0x21c0
EndSplineSet
EndChar

StartChar: uni1A48
Encoding: 6728 6728 40
GlifName: uni1A_48
Width: 607
VWidth: 0
GlyphClass: 2
Flags: W
HStem: -11 37.2239<109.593 202.344> -9.65194 40.2272<374.796 466.556> 74 26<64.5539 94.4591> 270.02 39.9958<101.888 200.046> 308 3<452.599 463>
VStem: 38 26<45.0339 73.4461> 95 26<44.6631 73.3617> 270 40<99.2299 196.866> 532.358 40.2639<99.0189 195.133>
AnchorPoint: "Bottom_Sara_U" 424 -45 basechar 0
AnchorPoint: "Bottom_Sara_UU" 405 -45 basechar 0
AnchorPoint: "BottomSubjoinedConsonant" 376 -45 basechar 0
AnchorPoint: "BottomWithRightVerticalStem" 558 -45 basechar 0
AnchorPoint: "TopPositioningForSara_I" 420 352 basechar 0
AnchorPoint: "TopRightAlignedMarks" 546 352 basechar 0
AnchorPoint: "TopPositioningForMaiKang" 421 352 basechar 0
AnchorPoint: "TopPositioningForMaiEekMaiKoo" 421 352 basechar 0
AnchorPoint: "TopCenteredOnCenter" 292 352 basechar 0
AnchorPoint: "TopSara_II" 418 352 basechar 0
LayerCount: 3
Fore
SplineSet
270 150 m 1xa780
 269.017983633 213.831063847 214.092326645 270.019911111 154.579173926 270.019911111 c 0
 95.3377777778 270.019911111 71 234 71 234 c 0
 67 229 62 226 55 226 c 0
 44 226 35 235 35 246 c 0
 35 263.810906694 85.9131995584 310.015713141 154.799910223 310.015713141 c 0xb780
 238.369930339 310.015713141 308.012861295 236.440533651 310 150 c 1
 310 81.277908054 362.966171162 30.5752351631 420.882375134 30.5752351631 c 0
 478.042129629 30.5752351631 532.357850195 82.5753742856 532.357850195 145.938987126 c 0
 532.357850195 195.606775769 499.206550077 243.640985081 438 256 c 0
 412 261 390 262 386 277 c 0
 385.513846508 279.014064469 385.283331721 280.912368014 385.283331721 282.701275362 c 0
 385.283331721 306.67038813 426.666811974 311 449 311 c 2
 463 311 l 1
 463 308 l 1
 446.09527219 306.188779163 438.30310249 302.919549029 438.30310249 299.952827477 c 0
 438.30310249 298.005645393 441.659844463 296.188779163 448 295 c 0
 536.240725293 278.659124946 572.621767716 200.069591257 572.621767716 144.814651495 c 4
 572.621767716 60.9693245976 502.376027656 -9.65194211175 422.137371807 -9.65194211175 c 0x6f80
 371.539315109 -9.65194211175 321.100977905 17.5881793818 290 69 c 1
 263 21 214 -11 161 -11 c 0
 115 -11 38 9 38 59 c 0
 38 82 56 100 79 100 c 0
 102 100 121 82 121 59 c 0
 121 49 118 39 109 32 c 1
 123.173161582 28.0901623221 136.974768252 26.2238766606 150.154052972 26.2238766606 c 0
 217.87399204 26.2238766606 269.162909903 75.4989813887 270 150 c 1xa780
79 74 m 0
 70 74 64 68 64 59 c 0
 64 50 70 44 79 44 c 0
 88 44 95 50 95 59 c 0
 95 68 88 74 79 74 c 0
EndSplineSet
EndChar

StartChar: uni1A49
Encoding: 6729 6729 41
GlifName: uni1A_49
Width: 590
VWidth: 0
GlyphClass: 2
Flags: W
HStem: -10.0175 40.0175<131.234 235.24> -4.87755 13.5803<447.545 488.763> 271 40<345.002 445.557> 278 26<97.6383 126.447>
VStem: 35 40<76.7673 156.904> 71 26<247.417 277.459> 127 27.4179<247.328 277.365> 264.353 40.3189<153.551 233.396> 284.358 39.418<74.3466 154.7> 515.012 40.0245<99.5682 201.049>
AnchorPoint: "Bottom_Sara_U" 424 -45 basechar 0
AnchorPoint: "Bottom_Sara_UU" 405 -45 basechar 0
AnchorPoint: "BottomSubjoinedConsonant" 376 -45 basechar 0
AnchorPoint: "BottomWithRightVerticalStem" 558 -45 basechar 0
AnchorPoint: "TopPositioningForSara_I" 420 352 basechar 0
AnchorPoint: "TopRightAlignedMarks" 546 352 basechar 0
AnchorPoint: "TopPositioningForMaiKang" 421 352 basechar 0
AnchorPoint: "TopPositioningForMaiEekMaiKoo" 421 352 basechar 0
AnchorPoint: "TopCenteredOnCenter" 292 352 basechar 0
AnchorPoint: "TopSara_II" 418 352 basechar 0
LayerCount: 3
Fore
SplineSet
323.776352992 115.662050238 m 0x62c0
 323.776352992 43.7055304336 259.536631851 -10.0174639338 192.064395211 -10.0174639338 c 0
 191.375514494 -10.0174639338 190.687350079 -10.0116500013 190 -10 c 0
 81 -10 35 60 35 119 c 0xaac0
 35 187 84 202 100 223 c 1
 83 228 71 244 71 262 c 0xa640
 71 285 89 304 112 304 c 0
 132.655363984 304 154.417935739 286.284675655 154.417935739 258.028859759 c 0
 154.417935739 239.773864166 145.334336265 217.119314854 121 192 c 0
 92 163 75 155 75 119 c 0
 75 66 119 30 191 30 c 0
 242.87648616 30 284.358320605 69.5783250572 284.358320605 112.435602415 c 0x9ac0
 284.358320605 140.191417597 264.352790506 159.353471292 264.352790506 195.528842029 c 0
 264.352790506 243.943202977 297.751932354 311 400 311 c 0
 475.078413097 311 555.036299975 245.61505132 555.036299975 157.263834289 c 0
 555.036299975 152.673834231 554.280128695 69.7100965212 500 29 c 2
 487 19 l 2
 482.182873941 15.9032761049 479.733574766 13.2801175867 479.733574766 11.4564136051 c 0
 479.733574766 9.71516484183 481.966400278 8.70271332097 486.502964869 8.70271332097 c 0
 491.0239606 8.70271332097 497.832910319 9.70822757969 507 12 c 1
 508 10 507 10 507 10 c 1
 507 10 474.765306122 -4.87755102041 450.412172012 -4.87755102041 c 0
 444.677574978 -4.87755102041 423.915562731 -3.55551601776 423.915562731 15.5891422909 c 0
 423.915562731 33.4630001607 456.566706827 41.5667068274 476 61 c 1
 483.963257518 67.5153925149 515.011754761 96.7523548155 515.011754761 156.527870724 c 0
 515.011754761 220.797414966 452.591873112 271 401 271 c 0
 350 271 315 253 306 206 c 0
 305.075356827 201.26120374 304.67170795 196.963248806 304.67170795 192.982613708 c 0x6340
 304.67170795 165.597157516 323.776352992 153.230404811 323.776352992 115.662050238 c 0x62c0
112 278 m 0x1640
 103 278 97 271 97 262 c 0
 97 253 103 247 112 247 c 0
 121 247 127 253 127 262 c 0
 127 271 121 278 112 278 c 0x1640
EndSplineSet
EndChar

StartChar: uni1A4A
Encoding: 6730 6730 42
GlifName: uni1A_4A_
Width: 486
VWidth: 0
GlyphClass: 2
Flags: W
HStem: -330 40<159.826 344.556> -118.917 25.4996<185.176 323.508> -10 21G<434.716 439> -0.4357 42.4357<83.2293 117.987> 19.5886 21.1472<226.801 255.227> 80 43<195.76 254.126> 270 40<162.664 305.422>
VStem: 36 41<42.3166 82.5431 159.95 201.851> 43 40<-236.785 1> 73 45.2517<118.714 145.617> 217 3<51.8633 55> 256.266 40.734<42.6745 77.4153> 403 40<-250.04 -177.283> 435.723 3.27689<-10 -1.66261>
AnchorPoint: "Bottom_Sara_U" 257 -44 basechar 0
AnchorPoint: "Bottom_Sara_UU" 232 -45 basechar 0
AnchorPoint: "BottomSubjoinedConsonant" 238 -44 basechar 0
AnchorPoint: "BottomWithRightVerticalStem" 442 -45 basechar 0
AnchorPoint: "TopCenteredOnCenter" 240 352 basechar 0
AnchorPoint: "TopPositioningForSara_I" 302 352 basechar 0
AnchorPoint: "TopSara_II" 288 352 basechar 0
AnchorPoint: "TopRightAlignedMarks" 430 352 basechar 0
AnchorPoint: "TopPositioningForMaiKang" 324 352 basechar 0
AnchorPoint: "TopPositioningForMaiEekMaiKoo" 324 352 basechar 0
LayerCount: 3
Fore
SplineSet
87 -150 m 1xd6b8
 107.609561063 -135.602287526 175.694279333 -93.4178528579 266.003461643 -93.4178528579 c 0
 391.295725267 -93.4178528579 443 -148.131575822 443 -218 c 0
 442 -264 417 -330 243 -330 c 0
 168 -330 43 -304 43 -202 c 2
 43 30 l 1xd6b8
 39 38 36 47 36 57 c 0xd730
 36 99 73 127 73 136 c 0
 73 148.738484454 35.0974692665 146.866616691 35.0974692665 173.032917549 c 0
 35.0974692665 177.298991309 35.9188611699 181.95468546 37 187 c 0
 66 271 138 310 232 310 c 0
 289 310 339 299 380 258 c 0
 437.778280543 199.199095023 451.896050449 133.862185459 451.896050449 82.3082604084 c 0
 451.896050449 33.035482484 439 -3.64705882353 439 -10 c 1
 435 -10 l 1
 434.431113585 -3.74224943578 435.72310975 11.577190215 435.72310975 32.138042516 c 0
 435.72310975 83.8617509338 427.546781706 168.755456597 361 226 c 0
 322 260 280 270 232 270 c 1
 158 268 104 241 80 187 c 0
 79.5919243076 186.251861231 79.4012572603 185.559231051 79.4012572603 184.908266753 c 0
 79.4012572603 175.814074299 118.251697601 174.513105229 118.251697601 142.245706635 c 0xe674
 118.251697601 113.713444998 77 77.1063829787 77 57 c 0
 77 46 84 42 92.375 42 c 0
 133.350895485 42 151.061913157 123 232 123 c 0
 275 123 297 89 297 66 c 0
 297 21.9734553567 260.006622657 19.588636802 251.990603467 19.588636802 c 0
 235.838048293 19.588636802 220.417424305 28.5084591472 217 53 c 1
 220 55 l 1
 223.850657381 43.9293600309 231.176524666 40.7358625137 237.963049056 40.7358625137 c 0xef30
 244.97704546 40.7358625137 256.265986324 42.8945494989 256.265986324 56.7917797679 c 0
 256.265986324 58.2659863237 256.183503419 59.9814623902 256 62 c 0
 256 66 253 80 231 80 c 0
 173.34 80 156.3303 -0.4357 97.122129 -0.4357 c 0
 92.6656 -0.4357 87.97 0.02 83 1 c 1
 83 -202 l 2
 83 -275 193 -290 243 -290 c 0
 352 -290 400 -267 403 -218 c 1
 403 -139 311 -120 243 -119 c 0
 240.611111111 -118.944444444 238.236111111 -118.917438272 235.876071674 -118.917438272 c 0
 153.274691358 -118.917438272 89 -152 89 -152 c 1
 87 -150 l 1xd6b8
EndSplineSet
EndChar

StartChar: uni1A4B
Encoding: 6731 6731 43
GlifName: uni1A_4B_
Width: 488
VWidth: 0
GlyphClass: 2
Flags: W
HStem: -10.5462 36.7108<99.289 188.834 302.492 359.711> 64 39.6361<299.48 369.237> 162 26<188.554 218.435> 169 25<287.638 317.362> 225 26<305 317.3> 269.995 40.0046<94.625 175.214 311.223 377.802>
VStem: 35 39.9554<46.2307 103.734 194.205 252.941> 162 26<188.554 218.357> 219 26.0751<188.684 217.704> 259 38.8481<33.233 60.5155> 261 26<194.707 224.137> 318 26<194.61 224.647> 413.644 40.3718<95.0654 224.234> 429.992 21.0908<-99.7134 -11.0393>
AnchorPoint: "Bottom_Sara_U" 339 -45 basechar 0
AnchorPoint: "Bottom_Sara_UU" 320 -45 basechar 0
AnchorPoint: "BottomSubjoinedConsonant" 252 -45 basechar 0
AnchorPoint: "BottomWithRightVerticalStem" 447 -45 basechar 0
AnchorPoint: "TopPositioningForSara_I" 303 352 basechar 0
AnchorPoint: "TopRightAlignedMarks" 433 352 basechar 0
AnchorPoint: "TopPositioningForMaiKang" 334 352 basechar 0
AnchorPoint: "TopPositioningForMaiEekMaiKoo" 334 352 basechar 0
AnchorPoint: "TopCenteredOnCenter" 250 352 basechar 0
AnchorPoint: "TopSara_II" 301 352 basechar 0
LayerCount: 3
Fore
SplineSet
413.644417675 164.008401808 m 0xdfd8
 413.644417675 178.607750908 410.901518194 269.824949646 342.35299459 269.824949646 c 0
 326.735012901 269.824949646 313.186654182 264.098646692 305 251 c 1
 326 250 344 232 344 210 c 0
 344 187 326 169 303 169 c 0
 280 169 261 187 261 210 c 0
 261 239 263 271 301 300 c 0
 311 307 324 310 339 310 c 2
 342 310 l 2
 418.391083947 310 454.016250503 238.009124606 454.016250503 162.285121032 c 0xdfb8
 454.016250503 123.022087367 444.438633335 82.7554240769 426 51 c 1
 444.935064935 20.4935064935 451.082813291 -8.53752740766 451.082813291 -33.3769147028 c 0
 451.082813291 -79.3757800641 430 -111 430 -111 c 1
 427 -110 l 1
 427 -110 429.991964938 -94.6661796932 429.991964938 -73.2978895623 c 0xdf94
 429.991964938 -45.2520087655 424.837837838 -6.81081081081 401 21 c 1
 376.118997897 -1.1596424979 349.12205348 -10.6236311105 325.414861387 -10.6236311105 c 0
 288.141378839 -10.6236311105 259 12.77087684 259 47 c 0
 259 80.815660771 291.139762358 103.636139683 330.668665338 103.636139683 c 0
 351.925295099 103.636139683 375.318672458 97.0370497471 397 82 c 1
 407.935331693 106.692684468 413.644417675 135.989442538 413.644417675 164.008401808 c 0xdfd8
136 310 m 2
 207.172139491 309.025039185 245.075078309 251.017162929 245.075078309 206.409191007 c 0
 245.075078309 181.238964849 223.617007096 162 203 162 c 0xef90
 180 162 162 180 162 203 c 0
 162 223 177 240 196 244 c 1
 179.310501212 261.523973727 155.135256861 269.995417937 132.771631895 269.995417937 c 0
 102.172250694 269.995417937 74.9644946362 254.135594728 74.9644946362 223.904456494 c 0
 74.9644946362 174.433292063 139 179.203168629 139 148 c 0
 139 115.492537313 74.9554466474 128.59255959 74.9554466474 70.6816263969 c 0
 74.9554466474 43.157788014 110.742486144 26.1645439122 146.344175931 26.1645439122 c 0
 177.086934545 26.1645439122 215.31180566 37.7011240806 256 70 c 1
 258 68 l 1
 229.368385162 12.1001805535 180.702094404 -10.5462077291 136.125110211 -10.5462077291 c 0
 82.6164635369 -10.5462077291 35 22.0844266049 35 69 c 0
 35 108 61 136 79 143 c 0
 82 144 87 146 87 148 c 0
 87 151 83 151 79 153 c 0
 60 160 35 189 35 222 c 0
 36 273 78 310 133 310 c 2
 136 310 l 2
303 225 m 0
 294 225 287 219 287 210 c 0
 287 201 294 194 303 194 c 0xdfb0
 312 194 318 201 318 210 c 0
 318 219 312 225 303 225 c 0
203 219 m 0
 194 219 188 212 188 203 c 0
 188 194 194 188 203 188 c 0xef90
 212 188 219 194 219 203 c 0
 219 211 212 219 203 219 c 0
330 64 m 0
 308.145381433 64 297.848092882 55.7447642743 297.848092882 47.2527385102 c 0xcfd0
 297.848092882 38.2591623995 309.397643996 29 331 29 c 0
 347 29 362 37 375 49 c 1
 360 59 349 64 330 64 c 0
EndSplineSet
EndChar

StartChar: uni1A4C
Encoding: 6732 6732 44
GlifName: uni1A_4C_
Width: 590
VWidth: 0
GlyphClass: 2
Flags: W
HStem: -330 40<166.495 397.558> -120.977 32.5212<172.018 374.387> -10.0175 40.0175<131.234 235.24> -4.87755 13.5803<447.545 488.763> 271 40<345.002 445.557> 278 26<97.6383 126.447>
VStem: 36 40<-241.817 -177.698 75.8093 157.38> 71 26<247.417 277.459> 127 27.4179<247.328 277.365> 264.353 40.3189<153.551 233.396> 284.358 39.418<74.3466 154.7> 513 40<-229.135 42 94.9537 204.26>
AnchorPoint: "Bottom_Sara_U" 424 -45 basechar 0
AnchorPoint: "Bottom_Sara_UU" 405 -45 basechar 0
AnchorPoint: "BottomSubjoinedConsonant" 376 -45 basechar 0
AnchorPoint: "BottomWithRightVerticalStem" 558 -45 basechar 0
AnchorPoint: "TopPositioningForSara_I" 420 352 basechar 0
AnchorPoint: "TopRightAlignedMarks" 546 352 basechar 0
AnchorPoint: "TopPositioningForMaiKang" 421 352 basechar 0
AnchorPoint: "TopPositioningForMaiEekMaiKoo" 421 352 basechar 0
AnchorPoint: "TopCenteredOnCenter" 292 352 basechar 0
AnchorPoint: "TopSara_II" 418 352 basechar 0
LayerCount: 3
Fore
SplineSet
323.776352992 115.662050238 m 0xd8b0
 323.776352992 43.7055304336 259.536631851 -10.0174639338 192.064395211 -10.0174639338 c 0
 191.375514494 -10.0174639338 190.687350079 -10.0116500013 190 -10 c 0
 81 -10 35 60 35 119 c 0
 35 187 84 202 100 223 c 1
 83 228 71 244 71 262 c 0
 71 285 89 304 112 304 c 0
 132.655363984 304 154.417935739 286.284675655 154.417935739 258.028859759 c 0
 154.417935739 239.773864166 145.334336265 217.119314854 121 192 c 0
 92 163 75 155 75 119 c 0
 75 66 119 30 191 30 c 0
 242.87648616 30 284.358320605 69.5783250572 284.358320605 112.435602415 c 0xe5b0
 284.358320605 140.191417597 264.352790506 159.353471292 264.352790506 195.528842029 c 0
 264.352790506 243.943202977 297.751932354 311 400 311 c 0
 475.078413097 311 555.036299975 245.61505132 555.036299975 157.263834289 c 0
 555.036299975 146.290399803 554.57617023 142.609361837 553 130 c 1
 553 -201 l 2
 553 -309 367 -330 293 -330 c 0
 74 -330 36 -259 36 -212 c 0
 36 -165.248268659 74.2342457736 -88.4553442099 264.485415369 -88.4553442099 c 0
 318.665718557 -88.4553442099 418.741558698 -93.617965582 496 -158 c 1
 495 -160 l 1
 416.003447077 -128.880145818 367.232300175 -120.976558684 286.754709668 -120.976558684 c 0
 156.425890023 -120.976558684 76 -151.968986627 76 -213 c 0
 76 -289 256 -290 293 -290 c 0
 353 -290 513 -272 513 -201 c 2
 513 42 l 1
 508 36 504 32 500 29 c 2
 487 19 l 2
 482.182873941 15.9032761049 479.733574766 13.2801175867 479.733574766 11.4564136051 c 0
 479.733574766 9.71516484183 481.966400278 8.70271332097 486.502964869 8.70271332097 c 0
 491.0239606 8.70271332097 497.832910319 9.70822757969 507 12 c 1
 508 10 507 10 507 10 c 1
 507 10 474.765306122 -4.87755102041 450.412172012 -4.87755102041 c 0
 444.677574978 -4.87755102041 423.915562731 -3.55551601776 423.915562731 15.5891422909 c 0
 423.915562731 33.4630001607 456.566706827 41.5667068274 476 61 c 1
 483.963257518 67.5153925149 515.011754761 96.7523548155 515.011754761 156.527870724 c 0
 515.011754761 220.797414966 452.591873112 271 401 271 c 0
 350 271 315 253 306 206 c 0
 305.075356827 201.26120374 304.67170795 196.963248806 304.67170795 192.982613708 c 0xdad0
 304.67170795 165.597157516 323.776352992 153.230404811 323.776352992 115.662050238 c 0xd8b0
112 278 m 0
 103 278 97 271 97 262 c 0
 97 253 103 247 112 247 c 0
 121 247 127 253 127 262 c 0
 127 271 121 278 112 278 c 0
EndSplineSet
EndChar

StartChar: uni1A4D
Encoding: 6733 6733 45
GlifName: uni1A_4D_
Width: 497
VWidth: 0
GlyphClass: 2
Flags: W
HStem: -256.063 33.4998<134.121 162.261> -241 17.4066<238.443 257.305> -199.085 34.8634<211.043 257.743> -64.2153 32.3201<184.265 298.433> -1 26<151.044 179.362> 56 26<150.487 179.446> 269 40<123.109 204.352 294.491 371.846>
VStem: 35.4214 40.928<101.287 213.085> 180 26<25.5409 55.4461> 231 3<-218.258 -215.045> 257.878 31.9529<-223.299 -199.521> 386.479 11.3998<-253.712 -186.344> 423.282 39.7659<116.87 208.466>
LayerCount: 3
Fore
SplineSet
35.4213948776 159.237369037 m 0x3ff8
 35.4213948776 239.186850746 90.6569162912 309 156 309 c 0
 210 309 238 285 250 267 c 1
 259 281 284 309 335 309 c 0
 402.897066316 309 463.047841325 240.251664647 463.047841325 153.253860053 c 0
 463.047841325 133.339065884 455.956986544 67.1892045519 367 21 c 0
 361.687652439 18.1667479675 359.009268295 15.5843495937 359.009268295 13.6525914254 c 0
 359.009268295 11.51296659 362.295079537 10.1715397675 368.927060779 10.1715397675 c 0
 373.214271083 10.1715397675 378.899815649 10.7321099373 386 12 c 1
 386 10 l 1
 386 10 357.2 -0.8 333.728 -0.8 c 0
 320.426222424 -0.8 303.96567059 2.87822431623 303.96567059 21.0852531464 c 0
 303.96567059 36.2344177495 324.528241887 41.32153854 347 55 c 0
 383 78 417 106 423 151 c 0
 423.188952576 153.550859775 423.281953135 156.124033973 423.281953135 158.711722313 c 0
 423.281953135 210.903670127 385.449140225 269 334 269 c 0
 283 269 286 239 268 225 c 0
 264 222 258 217 250 217 c 0
 212 217 236 269 156 269 c 0
 110.996826391 269 76.3493864888 215.002245674 76.3493864888 156.26491903 c 0
 76.3493864888 118.418786707 90.7335895242 78.6049773859 126 50 c 1
 127 69 147 82 165 82 c 0
 188 82 206 64 206 41 c 0
 206 18 188 -1 165 -1 c 0
 92.3467304645 -1 35.4213948776 76.6249643263 35.4213948776 159.237369037 c 0x3ff8
165 56 m 0
 156 56 150 50 150 41 c 0
 150 32 156 25 165 25 c 0
 174 25 180 32 180 41 c 0
 180 50 174 56 165 56 c 0
100.630846588 -129.051985744 m 0
 100.630846588 -102.976133839 135.817281729 -32 239 -32 c 0
 241.278483932 -31.9309550324 243.561735072 -31.8952805176 245.847120206 -31.8952805176 c 0
 276.661687347 -31.8952805176 307.864214127 -38.380899353 333 -57 c 0
 357 -76 377 -101 388 -129 c 0
 394.86038982 -149.091141616 397.878743029 -171.103301537 397.878743029 -193.271443903 c 0
 397.878743029 -216.341837723 394.609693713 -239.58116946 389 -261 c 1
 386 -261 l 1
 386.312931993 -255.054292128 386.478974338 -249.05962104 386.478974338 -243.038969971 c 0
 386.478974338 -210.580646702 381.653010051 -177.367224121 369 -147 c 1
 348.635504043 -90.3096463908 292.828067705 -64.2153353328 240.425966465 -64.2153353328 c 0
 197.619340222 -64.2153353328 157.085112261 -81.6282083482 140 -114 c 0
 139 -117 133 -121 138 -124 c 0
 147 -130 161 -135 162 -148 c 1
 166 -173 130 -200 134 -217 c 0
 135.880126052 -220.94826471 138.679319337 -222.563512598 142.005465345 -222.563512598 c 0xbff8
 156.370399166 -222.563512598 180.564037816 -192.435962184 183 -190 c 0
 200.334332732 -171.60438159 219.796172567 -164.22174112 237.312457953 -164.22174112 c 0
 266.22144862 -164.22174112 289.831057331 -184.330883644 289.831057331 -208.229183975 c 0
 289.831057331 -237.569640931 262.532939436 -241 255 -241 c 0
 242 -241 233 -228 231 -216 c 1
 232 -215 232 -216 234 -215 c 1
 235.793600119 -221.098240404 240.289481402 -223.593439255 244.902677547 -223.593439255 c 0x7ff8
 251.278358447 -223.593439255 257.878118955 -218.827434555 257.878118955 -212.219928063 c 0
 257.878118955 -210.17844612 257.163390845 -199.085108797 241.629132049 -199.085108797 c 0
 237.87723165 -199.085108797 234.070367517 -199.61620406 231 -200 c 0
 212 -204 201 -222 188 -234 c 1
 177.467437405 -245.490068285 163.267606222 -256.063319423 147.156221721 -256.063319423 c 0xbff8
 146.441194993 -256.063319423 145.722403263 -256.04249431 145 -256 c 0
 121.168335826 -256 100.404293196 -238.908965683 100.404293196 -213.139949695 c 0
 100.404293196 -183.975675259 125.786129932 -161.855480272 127 -157 c 1
 122.426336522 -147.852673045 100.630846588 -150.760311574 100.630846588 -129.051985744 c 0
EndSplineSet
EndChar

StartChar: uni1A4E
Encoding: 6734 6734 46
GlifName: uni1A_4E_
Width: 606
VWidth: 0
GlyphClass: 2
Flags: W
HStem: -256.063 33.4998<113.121 141.261> -241 17.4066<217.078 236.305> -199.085 34.8634<190.043 236.743> -176 40<418.32 476.507> -71.0276 51.9995<344.413 370.438> -63.8145 31.8145<158.262 253.757> -1 26<150.044 178.362> 56 26<149.487 178.446> 253.856 46.1441<520.245 556.617> 269 40<122.109 203.352 293.491 370.846>
VStem: 34.4214 40.928<101.287 213.085> 179 26<25.5409 55.4461> 210 3<-218.279 -215.045> 236.878 31.9529<-223.299 -199.521> 343.479 12.0872<-253.269 -185.811> 422.282 39.7659<116.87 208.466> 511.25 39.75<-85.6599 253.854>
LayerCount: 3
Fore
SplineSet
34.4213948776 159.237369037 m 0x037f80
 34.4213948776 239.186850746 89.6569162912 309 155 309 c 0
 209 309 237 285 249 267 c 1
 258 281 283 309 334 309 c 0
 401.897066316 309 462.047841325 240.251664647 462.047841325 153.253860053 c 0
 462.047841325 133.339065884 454.956986544 67.1892045519 366 21 c 0
 360.687652439 18.1667479675 358.009268295 15.5843495937 358.009268295 13.6525914254 c 0
 358.009268295 11.51296659 361.295079537 10.1715397675 367.927060779 10.1715397675 c 0
 372.214271083 10.1715397675 377.899815649 10.7321099373 385 12 c 1
 385 10 l 1
 385 10 356.2 -0.8 332.728 -0.8 c 0
 319.426222424 -0.8 302.96567059 2.87822431623 302.96567059 21.0852531464 c 0
 302.96567059 36.2344177495 323.528241887 41.32153854 346 55 c 0
 382 78 416 106 422 151 c 0
 422.188952576 153.550859775 422.281953135 156.124033973 422.281953135 158.711722313 c 0
 422.281953135 210.903670127 384.449140225 269 333 269 c 0
 282 269 285 239 267 225 c 0
 263 222 257 217 249 217 c 0
 211 217 235 269 155 269 c 0
 109.996826391 269 75.3493864888 215.002245674 75.3493864888 156.26491903 c 0
 75.3493864888 118.418786707 89.7335895242 78.6049773859 125 50 c 1
 126 69 146 82 164 82 c 0
 187 82 205 64 205 41 c 0
 205 18 187 -1 164 -1 c 0
 91.3467304645 -1 34.4213948776 76.6249643263 34.4213948776 159.237369037 c 0x037f80
511 245 m 0
 511 252.659574468 509.189225894 263.759619737 509.189225894 273.985099641 c 0
 509.189225894 287.78949751 512.489361702 300 528 300 c 0
 556 300 571 233 571 233 c 1
 569 232 l 1
 562.722813233 247.065248242 557.23368794 253.855851004 554.016666838 253.855851004 c 0
 552.108747069 253.855851004 551 251.467375879 551 247 c 0
 550 156 550 66 550 -25 c 1
 547 -140 490 -176 450 -176 c 0
 393 -176 363 -130 355 -75 c 0
 354.125492134 -72.3764764008 352.996062931 -71.0275594823 351.760332868 -71.0275594823 c 0
 348.756889871 -71.0275594823 345.125492134 -78.9960629311 343 -96 c 1
 341 -96 340 -95 340 -95 c 1
 340 -95 337.349816358 -19.0280689182 369.412693867 -19.0280689182 c 0
 371.463226731 -19.0280689182 373.655737705 -19.3387978142 376 -20 c 0
 403 -30 385 -136 447 -136 c 0x1bbf80
 472 -136 507 -116 510 -24 c 0
 511 29.5 511.25 94.25 511.25 146.875 c 0
 511.25 199.5 511 240 511 245 c 0
164 56 m 0
 155 56 149 50 149 41 c 0
 149 32 155 25 164 25 c 0
 173 25 179 32 179 41 c 0
 179 50 173 56 164 56 c 0
79.6308465882 -129.051985744 m 0
 79.6308465882 -107.440530207 113.182700334 -32 203 -32 c 2
 207 -32 l 2
 278.840707302 -32.8353570617 355.566164547 -84.6116778162 355.566164547 -191.409472623 c 0
 355.566164547 -212.45855876 352.585717534 -235.644987494 346 -261 c 1
 343 -261 l 1
 343.312931993 -255.054292128 343.478974338 -249.05962104 343.478974338 -243.038969971 c 0
 343.478974338 -210.580646702 338.653010051 -177.367224121 326 -147 c 1
 308.936111262 -99.4648813722 255.103786825 -63.8145096371 203.886062142 -63.8145096371 c 0
 171.06102769 -63.8145096371 139.309920915 -78.457638399 119 -114 c 0
 117 -117 112 -121 117 -124 c 0
 126 -130 140 -135 141 -148 c 1
 145 -173 109 -200 113 -217 c 0
 114.880126052 -220.94826471 117.679319337 -222.563512598 121.005465345 -222.563512598 c 0xa73f80
 135.370399166 -222.563512598 159.564037816 -192.435962184 162 -190 c 0
 179.334332732 -171.60438159 198.796172567 -164.22174112 216.312457953 -164.22174112 c 0
 245.22144862 -164.22174112 268.831057331 -184.330883644 268.831057331 -208.229183975 c 0
 268.831057331 -237.569640931 241.532939436 -241 234 -241 c 0
 221 -241 212 -229 210 -216 c 1
 211 -215 211 -216 213 -215 c 1
 214.793600119 -221.098240404 219.289481402 -223.593439255 223.902677547 -223.593439255 c 0x633f80
 230.278358447 -223.593439255 236.878118955 -218.827434555 236.878118955 -212.219928063 c 0
 236.878118955 -210.17844612 236.163390845 -199.085108797 220.629132049 -199.085108797 c 0
 216.87723165 -199.085108797 213.070367517 -199.61620406 210 -200 c 0
 191 -204 180 -222 167 -234 c 1
 156.467437405 -245.490068285 142.267606222 -256.063319423 126.156221721 -256.063319423 c 0xa33f80
 125.441194993 -256.063319423 124.722403263 -256.04249431 124 -256 c 0
 100.168335826 -256 79.4042931956 -238.908965683 79.4042931956 -213.139949695 c 0
 79.4042931956 -183.975675259 104.786129932 -161.855480272 106 -157 c 1
 101.426336522 -147.852673045 79.6308465882 -150.760311574 79.6308465882 -129.051985744 c 0
EndSplineSet
EndChar

StartChar: uni1A4F
Encoding: 6735 6735 47
GlifName: uni1A_4F_
Width: 366
VWidth: 0
GlyphClass: 2
Flags: W
HStem: -330 33<177.733 371.087> 0 39<103.366 240.022> 182 26<61.6377 91.3617> 226 41.8819<161.399 178.492> 270.834 37.2549<82.4873 124.092 214.569 256.399>
VStem: 35 26<208.68 237.93> 35.995 40.005<-232.899 19> 92 26<208.541 238.378> 285.07 39.9718<85.4107 232.865>
LayerCount: 3
Fore
SplineSet
71 71 m 1xfd80
 80.9888761028 61.0111238972 101.803030303 40.196969697 182 39 c 1
 244.503490036 42.9064681273 285.070021055 55.396963696 285.070021055 150.058296114 c 0
 285.070021055 152.324755588 285.046765936 154.638320213 285 157 c 0
 285.063855925 159.234957359 285.099168795 161.596319669 285.099168795 164.061434082 c 0
 285.099168795 177.33469448 283.275277253 269.065010957 232.853927704 269.065010957 c 0
 205.104455807 269.065010957 209.351351351 226 168 226 c 0
 130.254800319 226 134.825033458 270.833858761 101.089771407 270.833858761 c 0
 93.9513203748 270.833858761 87.1031729828 268.66190379 81 265 c 1
 102 263 118 245 118 224 c 0
 118 201 100 182 77 182 c 0
 54 182 35 201 35 224 c 0xfd80
 34.0198330001 236.742170999 35.9218480434 308.088710213 109.448191813 308.088710213 c 0
 110.935946431 308.088710213 112.453025995 308.059499 114 308 c 0
 152.436128869 308 162.846029904 267.881851462 170.189230192 267.881851462 c 0
 175.535934953 267.881851462 177.949546455 285.212159841 195 298 c 0
 202 304 211 309 222 310 c 1
 228 310 l 1
 260.625433863 307.72380694 325.04185887 298.719386129 325.04185887 152.322150776 c 0
 325.04185887 20.5270416013 256.007041904 3.94405869883 186 0 c 1
 181 0 l 1
 130 1 97 9 75 19 c 1
 75 -116 l 2
 75 -142 76 -161 76 -198 c 0
 76 -277 202 -297 276 -297 c 0
 445 -297 509 -249 509 -249 c 1
 510 -251 l 1
 510 -251 426 -330 275 -330 c 0
 184.30403763 -330 35.9949922695 -312.120077693 35.9949922695 -199.139434947 c 0xfb80
 35.9949922695 -198.529473939 36.28 -177.639753172 36.28 -138.144 c 0
 36.28 -50.08 35 60 35 60 c 2
 35 76 50 80 54 80 c 0
 66 80 71 71 71 71 c 1xfd80
77 239 m 0
 68 239 61 233 61 224 c 0
 61 215 68 208 77 208 c 0
 86 208 92 215 92 224 c 0
 92 233 86 239 77 239 c 0
EndSplineSet
EndChar

StartChar: uni1A50
Encoding: 6736 6736 48
GlifName: uni1A_50
Width: 361
VWidth: 0
GlyphClass: 2
Flags: W
HStem: -330 33<177.733 371.087> -1 40<103.144 240.022> 182 26<61.6377 91.3617> 226 41.8819<161.399 178.492> 270.834 37.3204<81.3025 124.092 214.569 256.399> 596 34<175.062 350.506>
VStem: 35 26<208.68 224 224.002 238.483> 36.28 38.72<-232.899 19 300 533.03> 92 26<208.541 238.378> 285.07 39.9718<85.2927 232.865>
LayerCount: 3
Fore
SplineSet
228 310 m 1xfdc0
 260.625808448 307.723780806 325.04185887 298.719373767 325.04185887 152.321569479 c 0
 325.04185887 20.49926654 256.007041904 2.94405869883 186 -1 c 1
 180 -1 l 1
 129 0 97 9 75 19 c 1
 75 -116 l 2
 75 -142 76 -161 76 -198 c 0
 76 -277 202 -297 276 -297 c 0
 445 -297 509 -249 509 -249 c 1
 510 -251 l 1
 510 -251 426 -330 275 -330 c 0
 184.30403763 -330 35.9949922695 -312.120077693 35.9949922695 -199.139434947 c 0
 35.9949922695 -198.529473939 36.28 -177.639753172 36.28 -138.144 c 0xfdc0
 36.28 -50.08 35 60 35 60 c 2
 35 76 50 80 54 80 c 0
 66 80 71 70 71 70 c 1
 74 68 l 1
 87 55 115 40 182 39 c 1
 244.503490036 42.9064681273 285.070021055 55.396963696 285.070021055 150.058296114 c 0
 285.070021055 152.324755588 285.046765936 154.638320213 285 157 c 0
 285.063855925 159.234957359 285.099168795 161.596319669 285.099168795 164.061434082 c 0
 285.099168795 177.33469448 283.275277253 269.065010957 232.853927704 269.065010957 c 0
 205.104455807 269.065010957 209.351351351 226 168 226 c 0
 130.254800319 226 134.825033458 270.833858761 101.089771407 270.833858761 c 0
 93.9513203748 270.833858761 87.1031729828 268.66190379 81 265 c 1
 102 263 118 245 118 224 c 0
 118 201 100 182 77 182 c 0
 54 182 35 201 35 224 c 1
 35 224 34.5555555556 227.111111111 34.5555555556 231.851851852 c 0
 34.5555555556 234.222222222 34.6666666667 237 35 240 c 0xfec0
 35 299 36 445 36 499 c 0
 35 613 184 630 275 630 c 0
 419 630 510 512 510 512 c 1
 509 510 l 1
 509 510 405 595 276 596 c 0
 202 596 76 578 76 499 c 0
 76 462 75 442 75 416 c 2
 75 382 l 1
 73 300 l 1
 81.9564392374 304.478219619 94.1215906273 308.154261199 108.776988284 308.154261199 c 0
 110.484563979 308.154261199 112.225946704 308.104356076 114 308 c 0
 152.436128869 308 162.846029904 267.881851462 170.189230192 267.881851462 c 0
 175.535934953 267.881851462 177.949546455 285.212159841 195 298 c 0
 202 304 211 309 222 310 c 1
 228 310 l 1xfdc0
77 239 m 0
 68 239 61 233 61 224 c 0xfec0
 61 215 68 208 77 208 c 0
 86 208 92 215 92 224 c 0
 92 233 86 239 77 239 c 0
EndSplineSet
EndChar

StartChar: uni1A51
Encoding: 6737 6737 49
GlifName: uni1A_51
Width: 362
VWidth: 0
GlyphClass: 2
Flags: W
HStem: -330 33<177.565 371.087> 182 26<269.638 298.362> 226 41.8248<180.747 199.196> 269.065 40.935<103.507 147.584 233.027 279.184>
VStem: 35 40<-232.063 -40.406 84.2721 231.925> 243 26<208.541 238.378> 299 26<208.541 238.588>
LayerCount: 3
Fore
SplineSet
128.127948986 269.065010957 m 0
 94.1470463851 269.065010957 74.9114125912 222.275319462 74.9114125912 163.332420375 c 0
 74.9114125912 161.130042568 74.9424653533 159.013712633 75 157 c 0
 75 83 86 90 86 84 c 1
 128 21 186 44 186 11 c 0
 186 -5 169 -9 169 -9 c 1
 129 -15 75 -31 75 -65 c 2
 75 -116 l 2
 75 -142 76 -161 76 -198 c 0
 76 -277 202 -297 276 -297 c 0
 445 -297 509 -249 509 -249 c 1
 510 -251 l 1
 510 -251 426 -330 275 -330 c 0
 184 -330 35 -312 36 -198 c 0
 36 -158 35 -115 35 -63 c 0
 35 -32 54 -3 102 15 c 1
 57 40 35 71 35 158 c 1
 37 287 90 307 132 310 c 1
 139 310 l 1
 171.313996293 306.409555967 184.064159946 267.824757898 191.530704646 267.824757898 c 0
 196.254819928 267.824757898 197.004598394 283.849514211 215 297 c 0
 223 303 234 308 246 308 c 0
 247.544769418 308.055170336 249.059101175 308.082270386 250.543598561 308.082270386 c 0
 329.781686028 308.082270386 324.018390112 230.871269215 325 224 c 0
 325 201 307 182 284 182 c 0
 261 182 243 201 243 224 c 0
 243 245 259 263 280 265 c 1
 273.648501556 268.969686528 266.351498444 271.04836372 259.234997807 271.04836372 c 0
 248.424388614 271.04836372 238.030313472 266.251532903 232 256 c 0
 229 251 216 226 193 226 c 0
 150.72972973 226 155.746530314 269.065010957 128.127948986 269.065010957 c 0
284 239 m 0
 275 239 269 233 269 224 c 0
 269 215 275 208 284 208 c 0
 293 208 299 215 299 224 c 0
 299 233 293 239 284 239 c 0
EndSplineSet
EndChar

StartChar: uni1A52
Encoding: 6738 6738 50
GlifName: uni1A_52
Width: 771
VWidth: 0
GlyphClass: 2
Flags: W
HStem: -11.116 36.0303<380.947 468.634> -10.6236 39.6236<135.975 206.752 582.404 646.103> 64 39.6361<581.48 651.237> 71 26<225.707 255.362> 162 26<470.554 500.4> 169 25<569.638 599.362> 225 26<587 599.3> 269.995 40.0046<184.773 235 375.781 458.089 593.223 658.533> 592.008 37.9799<186.579 365.028>
VStem: 35 38<391.708 506.861> 35.9056 42.0817<94.5321 200.279> 200 25<40.5612 70.3623> 256 26<40.4761 70.4591> 317 39.9554<45.999 103.734 194.205 252.941> 444 26<188.554 218.357> 501 26.077<188.658 217.745> 541 38.8481<33.233 60.5155> 543 26<194.707 224.137> 600 26<194.61 224.647> 695.644 40.9196<95.4463 224.848> 712.604 20.4786<-99.0653 -12.9272>
LayerCount: 3
Fore
SplineSet
695.644417675 164.008401808 m 0x679fb0
 695.644417675 178.607750908 692.901518194 269.824949646 624.35299459 269.824949646 c 0
 608.735012901 269.824949646 595.186654182 264.098646692 587 251 c 1
 608 250 626 232 626 210 c 0
 626 187 608 169 585 169 c 0
 562 169 543 187 543 210 c 0
 543 239 545 271 583 300 c 0
 593 307 606 310 621 310 c 2
 626 310 l 2
 701.751551035 310 736.563999924 239.209469205 736.563999924 164.186140737 c 0x679f70
 736.563999924 124.324612283 726.736346932 83.2681530495 708 51 c 1
 726.935064935 20.4935064935 733.082813291 -8.53752740766 733.082813291 -33.3769147028 c 0
 733.082813291 -79.3757800641 712 -111 712 -111 c 1
 710 -110 l 1
 710 -110 712.604166667 -95.7638888889 712.604166667 -75.6105324074 c 0x679f28
 712.604166667 -47.3958333333 707.5 -7.58333333333 683 21 c 1
 658.118997897 -1.1596424979 631.12205348 -10.6236311105 607.414861387 -10.6236311105 c 0
 570.141378839 -10.6236311105 541 12.77087684 541 47 c 0
 541 80.815660771 573.139762358 103.636139683 612.668665338 103.636139683 c 0
 633.925295099 103.636139683 657.318672458 97.0370497471 679 82 c 1
 689.935331693 106.692684468 695.644417675 135.989442538 695.644417675 164.008401808 c 0x679fb0
419 310 m 2
 490.126355527 309.025666363 527.076973726 251.091770513 527.076973726 206.495294531 c 0
 527.076973726 181.030365123 505.450771488 162 485 162 c 0
 462 162 444 180 444 203 c 0
 444 223 459 240 478 244 c 1
 461.310501212 261.523973727 437.135256861 269.995417937 414.771631895 269.995417937 c 0
 384.172250694 269.995417937 356.964494636 254.135594728 356.964494636 223.904456494 c 0
 356.964494636 174.433292063 421 179.203168629 421 148 c 0
 421 115.492537313 356.955446647 128.59255959 356.955446647 70.6816263969 c 0
 356.955446647 43.1387918373 391.007859547 24.9142826546 426.812375373 24.9142826546 c 0
 456.274489724 24.9142826546 493.023682689 36.2662223407 533 68 c 1
 536 67 l 1
 507.510553308 11.3777469351 460.00288609 -11.1159929541 416.503594417 -11.1159929541 c 0x8b9f20
 363.810938066 -11.1159929541 317 21.8903558015 317 69 c 0
 317 108 343 136 361 143 c 0
 364 144 369 146 369 148 c 0
 369 151 365 151 361 153 c 0
 342 160 317 189 317 222 c 0
 318 273 359 310 414 310 c 2
 419 310 l 2
585 225 m 0
 576 225 569 219 569 210 c 0
 569 201 576 194 585 194 c 0x079f60
 594 194 600 201 600 210 c 0
 600 219 594 225 585 225 c 0
485 219 m 0
 476 219 470 212 470 203 c 0
 470 194 476 188 485 188 c 0x0b9f20
 494 188 501 194 501 203 c 0
 501 211 494 219 485 219 c 0
612 64 m 0x239fa0
 590.145381433 64 579.848092882 55.7447642743 579.848092882 47.2527385102 c 0
 579.848092882 38.2591623995 591.397643996 29 613 29 c 0
 629 29 644 37 657 49 c 1
 642 59 631 64 612 64 c 0x239fa0
35.9055885686 144.917175317 m 0x13bf20
 35.9055885686 234.626246696 86.4862160249 272.900135084 150 290 c 1
 57 321 35 393 35 459 c 0
 35 567.333333333 143.950617284 629.987654321 272.68861454 629.987654321 c 0
 375.679012346 629.987654321 491.333333333 589.888888889 574 501 c 1
 569 497 l 1
 569 497 453.209294209 592.007758598 268.885627837 592.007758598 c 0
 267.925608741 592.007758598 266.96373057 592.005181347 266 592 c 0
 157 592 73 539 73 459 c 0x13df60
 73 342 140 331 235 309 c 1
 235 309 251 305 251 290 c 0
 251 275 235 271 235 271 c 1
 135.848494834 264.059394638 77.9872777699 225.659522151 77.9872777699 151.90134043 c 0
 77.9872777699 84.3166503134 118.453082802 27.9057792165 185.204806203 27.9057792165 c 0
 192.51167406 27.9057792165 200.117983056 28.58527901 208 30 c 1
 202 37 200 45 200 55 c 0
 200 78 218 97 241 97 c 0
 264 97 282 78 282 55 c 1
 276 8 220 -10 171 -10 c 0
 103.452794284 -10 35.9055885686 51.3333333333 35.9055885686 144.917175317 c 0x13bf20
241 71 m 0
 232 71 225 64 225 55 c 0
 225 46 232 40 241 40 c 0
 250 40 256 46 256 55 c 0
 256 64 250 71 241 71 c 0
EndSplineSet
EndChar

StartChar: uni1A53
Encoding: 6739 6739 51
GlifName: uni1A_53
Width: 602
VWidth: 0
GlyphClass: 2
Flags: W
HStem: -10 39.8452<347.681 449.197> -3.03792 26.0379<138.398 167.268> 53 26<138.543 167.446> 270 40.0089<143.885 238.938> 304.766 40.2337<336.354 426> 400 38.6838<472.637 511.402> 596 33<294.721 450.976>
VStem: 35 39.917<93.276 200.579> 168 26<23.4702 52.4461> 174.926 39.8745<433.886 527.461> 268.43 38.96<68.0293 146.562> 287.448 38.6925<146.562 224.465> 424.69 40.0719<348.166 392.438> 517.467 40.9873<99.5343 204.494 361.426 395.48>
LayerCount: 3
Fore
SplineSet
194 38 m 0xb79c
 194 14.5938457359 175.242677944 -3.03791648691 150.807729015 -3.03791648691 c 0
 123.035977955 -3.03791648691 104.593279757 15.3304601971 89 28 c 0
 61 50 35 90 35 150 c 0
 35 237 100 310 193 310 c 0
 193.525208897 310.005968283 194.049919108 310.008944452 194.574109374 310.008944452 c 0
 265.057510048 310.008944452 326.140364303 256.200130681 326.140364303 187.344234017 c 0x779c
 326.140364303 146.303211687 307.389877066 130.486722645 307.389877066 108.339262396 c 0
 307.389877066 76.9356823634 326.918186616 29.8451732249 397.650102546 29.8451732249 c 0
 464.877762608 29.8451732249 517.466569061 81.6046831552 517.466569061 151.258324404 c 0
 517.466569061 225.898319329 465.641468086 249.192098872 440 305 c 1
 435.147894821 304.844732634 430.28072217 304.766309375 425.406670251 304.766309375 c 0
 403.108606094 304.766309375 174.925971147 308.888162077 174.925971147 477.609392348 c 0
 174.925971147 507.710062881 184.324028853 543.520181276 210 573 c 1
 248 610 304 629 357 629 c 0
 520 629 595 535 595 535 c 1
 593 530 l 1
 578 538 514 596 364 596 c 0
 263.15672498 596 214.800500886 538.43355705 214.800500886 480.030692948 c 0
 214.800500886 404.969931769 288.756495494 345 426 345 c 1
 425.118170701 350.437947343 424.689954768 355.789492139 424.689954768 361.013363563 c 0
 424.689954768 405.949855765 456.583171558 438.683844616 492.487117717 438.683844616 c 0
 526.270301702 438.683844616 555.2124021 410.628469226 555.2124021 376.939616509 c 0
 555.2124021 343.39238725 526.77380885 317.621073847 482 310 c 1
 507.620731 266.349865703 558.453824135 232.604587959 558.453824135 153.225351121 c 0
 558.453824135 43.396605719 468.603407873 -10 403 -10 c 0
 314.950342716 -10 268.429861778 42.855315349 268.429861778 103.644204714 c 0xaf6c
 268.429861778 145.862891685 287.447900757 161.074864493 287.447900757 185.993150364 c 0
 287.447900757 233.431471479 243.192255236 270 194 270 c 0
 109.401021177 270 74.9170274973 198.137002437 74.9170274973 153.713776604 c 0
 74.9170274973 104.057796743 89.5893964325 79.3922488741 116 56 c 1
 123 70 137 79 153 79 c 0
 176 79 194 61 194 38 c 0xb79c
494 400 m 0
 480.752093295 400 464.761889214 388.345236152 464.761889214 364.468056896 c 0
 464.761889214 359.507860059 465.451947522 354.020204082 467 348 c 1
 509.666666667 355.111111111 515.197530864 367.75308642 515.197530864 375.390946502 c 0
 515.197530864 387.730801321 507.247451515 400 494 400 c 0
153 53 m 0
 144 53 138 47 138 38 c 0
 138 29 144 23 153 23 c 0
 162 23 168 29 168 38 c 0
 168 47 162 53 153 53 c 0
EndSplineSet
EndChar

StartChar: uni1A54
Encoding: 6740 6740 52
GlifName: uni1A_54
Width: 868
VWidth: 0
GlyphClass: 2
Flags: W
HStem: -11 37.2239<109.593 202.518> -9.65194 40.1964<374.896 467.278 633.17 726.882> 74 26<64.5409 94.4461> 270.02 39.9946<102.564 200.153> 308 3<452.599 463 712.599 723>
VStem: 35 37<227.98 246.195> 38 26<45.1184 73.3617> 95 26<44.3613 73.4461> 271 40<96.4223 196.919> 532.358 40.3921<98.4035 195.063> 792.358 40.9894<96.4656 194.914>
AnchorPoint: "Bottom_Sara_U" 710 -45 basechar 0
AnchorPoint: "Bottom_Sara_UU" 691 -45 basechar 0
AnchorPoint: "BottomSubjoinedConsonant" 682 -45 basechar 0
AnchorPoint: "BottomWithRightVerticalStem" 824 -45 basechar 0
AnchorPoint: "TopPositioningForSara_I" 690 352 basechar 0
AnchorPoint: "TopRightAlignedMarks" 816 352 basechar 0
AnchorPoint: "TopPositioningForMaiKang" 691 352 basechar 0
AnchorPoint: "TopPositioningForMaiEekMaiKoo" 691 352 basechar 0
AnchorPoint: "TopCenteredOnCenter" 540 352 basechar 0
AnchorPoint: "TopSara_II" 688 352 basechar 0
LayerCount: 3
Fore
SplineSet
271 150 m 1xa3e0
 270.017192145 213.882510563 214.044037415 270.019911111 154.579702519 270.019911111 c 0
 95.3642666667 270.019911111 72 234 72 234 c 0
 68 229 62 226 55 226 c 0
 44 226 35 235 35 246 c 0
 35 259.864258313 82.0737123007 310.014503191 154.854877444 310.014503191 c 0xb5e0
 238.203641085 310.014503191 309.009567244 236.583824901 311 150 c 1
 311 79.4799688486 363.342475584 30.5444637111 420.460506536 30.5444637111 c 0
 478.115124223 30.5444637111 532.357850195 82.5776272352 532.357850195 145.938987126 c 0
 532.357850195 195.606775769 499.206550077 243.640985081 438 256 c 0
 412 261 391 262 387 277 c 0
 386.513846508 279.014064469 386.283331721 280.912368014 386.283331721 282.701275362 c 0
 386.283331721 306.67038813 427.666811974 311 450 311 c 2
 463 311 l 1
 463 308 l 1
 446.09527219 306.188779163 438.30310249 302.919549029 438.30310249 299.952827477 c 0
 438.30310249 298.005645393 441.659844463 296.188779163 448 295 c 0
 502 285 530 257 554 219 c 1
 566.5 196.5 572.75 171.222222222 572.75 146.060185185 c 0
 572.75 141.027777778 572.5 136 572 131 c 1
 581.857113635 67.6328409177 629.885283747 30.5392661636 680.134219566 30.5392661636 c 0
 738.891066544 30.5392661636 792.357850195 83.1912591249 792.357850195 145.938987126 c 0
 792.357850195 195.606775769 759.206550077 243.640985081 698 256 c 0
 672 261 651 262 647 277 c 0
 646.513846508 279.014064469 646.283331721 280.912368014 646.283331721 282.701275362 c 0
 646.283331721 306.67038813 687.666811974 311 710 311 c 2
 723 311 l 1
 723 308 l 1
 706.09527219 306.188779163 698.30310249 302.919549029 698.30310249 299.952827477 c 0
 698.30310249 298.005645393 701.659844463 296.188779163 708 295 c 0
 762 285 790 257 814 219 c 1
 827.018790429 196.045816875 833.347229375 170.86151659 833.347229375 145.739211876 c 0
 833.347229375 61.7413723701 762.149820407 -9.77124040494 683.213881677 -9.77124040494 c 0
 625.329428204 -9.77124040494 572.34227747 26.3154450606 552 67 c 1
 537.692580859 42.2871851193 492.499334766 -9.65194211175 422.137371807 -9.65194211175 c 0x6de0
 371.539315109 -9.65194211175 321.100977905 17.5881793818 290 69 c 1
 263 21 214 -11 161 -11 c 0
 115 -11 38 9 38 59 c 0
 38 82 57 100 80 100 c 0
 103 100 121 82 121 59 c 0
 121 49 118 39 109 32 c 1
 123.173161582 28.0901623221 137.001307889 26.2238766606 150.225024743 26.2238766606 c 0
 218.17327221 26.2238766606 270.162909903 75.4989813887 271 150 c 1xa3e0
80 74 m 0
 71 74 64 68 64 59 c 0x23e0
 64 50 71 44 80 44 c 0
 89 44 95 50 95 59 c 0
 95 68 89 74 80 74 c 0
EndSplineSet
EndChar

StartChar: uni1A55
Encoding: 6741 6741 53
GlifName: uni1A_55
Width: 113
VWidth: 0
GlyphClass: 2
Flags: W
HStem: -199.703 7.70333<187.795 224> 593.04 37.9601<189.227 395.418>
VStem: 35 40<-109.555 523.84>
LayerCount: 3
Fore
SplineSet
628 478 m 1
 619.991683947 485.671181178 504.222723474 593.039864993 297.890837323 593.039864993 c 0
 201.130296382 593.039864993 167.065148191 575.572639173 133 560 c 0
 116.767001769 552.360942009 75 529.100874056 75 492 c 2
 75 -20 l 1
 77 -113 83 -187 224 -192 c 1
 225 -196 l 1
 207.452921442 -198.236392365 190.320164254 -199.703330759 173.978471845 -199.703330759 c 0
 95.3269937266 -199.703330759 35 -165.722687979 35 -20 c 2
 35 492 l 2
 35 540.940750773 70.5219395144 573.867590245 117 596 c 0
 176 626 232 631 306 631 c 0
 508 631 630 480 630 480 c 1
 628 478 l 1
EndSplineSet
Substitution2: "prefPreBaseFormsinlanalookup0 subtable" uni1A55
EndChar

StartChar: uni1A60
Encoding: 6752 6752 54
GlifName: uni1A_60
Width: 0
VWidth: 0
GlyphClass: 2
Flags: W
HStem: -188 40<-242 -165 -125 -48>
VStem: -165 40<-265 -188 -148 -71>
LayerCount: 3
Fore
SplineSet
-125 -71 m 5
 -125 -148 l 5
 -48 -148 l 5
 -48 -188 l 5
 -125 -188 l 5
 -125 -265 l 5
 -165 -265 l 5
 -165 -188 l 5
 -242 -188 l 5
 -242 -148 l 5
 -165 -148 l 5
 -165 -71 l 5
 -125 -71 l 5
EndSplineSet
EndChar

StartChar: uni1A65
Encoding: 6757 6757 55
GlifName: uni1A_65
Width: 0
VWidth: 0
GlyphClass: 4
Flags: W
HStem: 352.979 33.6244<-207.041 -173.424> 415.793 15.9499<-192.458 -164.435> 496 40<-167.662 -71.8181>
VStem: -250 35.4554<393.737 456.999> -172.225 33.374<387.537 415.308> -25.0447 23.8651<376.36 449.438>
AnchorPoint: "TopPositioningForSara_I" -117 352 mark 0
LayerCount: 3
Fore
SplineSet
-250 428 m 0
 -250 483.671282337 -192.549668454 536 -119 536 c 0
 -51.3194127907 536 -1.17956433138 481.834021003 -1.17956433138 420.929144758 c 0
 -1.17956433138 392.794976975 -12.6316429732 364.325732689 -43 346 c 1
 -45 348 l 1
 -31.3860761174 364.90004344 -25.0446664736 385.54653361 -25.0446664736 405.594315732 c 0
 -25.0446664736 428.251758535 -33.1444782315 450.144478231 -48 465 c 1
 -67 486 -88 496 -118 496 c 0
 -150 496 -171 485 -192 469 c 0
 -207.270970488 457.122578509 -214.544597367 439.806963365 -214.544597367 423.747534321 c 0
 -214.544597367 404.136712659 -203.129430108 386.603499871 -188.757557034 386.603499871 c 0
 -178.534048705 386.603499871 -172.224740817 394.7413006 -172.224740817 402.597835543 c 0
 -172.224740817 410.038352952 -178.553530665 415.793457677 -187.722802898 415.793457677 c 0
 -190.575309467 415.793457677 -193.702716627 415.236481265 -197 414 c 1
 -199 416 l 1
 -191.966817072 426.901433538 -182.089358574 431.74332347 -172.368271062 431.74332347 c 0
 -155.370477509 431.74332347 -138.850776061 416.939622377 -138.850776061 393.841858766 c 0
 -138.850776061 367.029993613 -166.540109267 353 -186 353 c 0
 -186.586748751 352.986029792 -187.169594167 352.979085585 -187.748530797 352.979085585 c 0
 -228.6103955 352.979085585 -250 387.572778543 -250 428 c 0
EndSplineSet
EndChar

StartChar: uni1A66
Encoding: 6758 6758 56
GlifName: uni1A_66
Width: 0
VWidth: 0
GlyphClass: 4
Flags: W
HStem: 346 2<-82 -80.689> 352.979 33.6244<-278.041 -244.424> 416.689 15.0539<-262.665 -235.792> 496 40<-238.662 -142.818>
VStem: -321 35.4554<393.737 456.999> -243.269 33.4187<387.533 415.959> -96.0447 23.8651<376.36 449.438> -36.7088 35.5526<400.254 477.671>
AnchorPoint: "TopSara_II" -155 352 mark 0
LayerCount: 3
Fore
SplineSet
-321 428 m 0
 -321 483.671282337 -263.549668454 536 -190 536 c 0
 -122.319412791 536 -72.1795643314 481.834021003 -72.1795643314 420.929144758 c 0
 -72.1795643314 392.794976975 -83.6316429732 364.325732689 -114 346 c 1
 -116 348 l 1
 -102.386076117 364.90004344 -96.0446664736 385.54653361 -96.0446664736 405.594315732 c 0
 -96.0446664736 428.251758535 -104.144478231 450.144478231 -119 465 c 1
 -138 486 -159 496 -189 496 c 0
 -221 496 -242 485 -263 469 c 0
 -278.270970488 457.122578509 -285.544597367 439.806963365 -285.544597367 423.747534321 c 0
 -285.544597367 404.136712659 -274.129430108 386.603499871 -259.757557034 386.603499871 c 0
 -249.614756082 386.603499871 -243.269483237 394.653116737 -243.269483237 402.386533826 c 0
 -243.269483237 410.231433189 -250.365168138 416.689388203 -260.119403605 416.689388203 c 0
 -262.898054827 416.689388203 -265.892443989 416.165333504 -269 415 c 1
 -270 416 l 1
 -262.966817072 426.901433538 -253.089358574 431.74332347 -243.368271062 431.74332347 c 0
 -226.370477509 431.74332347 -209.850776061 416.939622377 -209.850776061 393.841858766 c 0
 -209.850776061 367.029993613 -237.540109267 353 -257 353 c 0
 -257.586748751 352.986029792 -258.169594167 352.979085585 -258.748530797 352.979085585 c 0
 -299.6103955 352.979085585 -321 387.572778543 -321 428 c 0
-59.1533878182 503.437506686 m 0
 -59.1533878182 516.675066655 -43.3248948101 525 -36 525 c 0
 -28 525 -22 521 -19 515 c 0
 -10.235861462 497.471722924 -1.15622586109 479.312451722 -1.15622586109 450.079519548 c 0
 -1.15622586109 404.613339564 -27.0422521242 358.263124517 -81 346 c 1
 -82 348 l 1
 -53.8590311466 366.253601418 -36.7088354357 398.968746445 -36.7088354357 432.066754925 c 0
 -36.7088354357 470.188418937 -59.1533878182 491.450013171 -59.1533878182 503.437506686 c 0
EndSplineSet
EndChar

StartChar: uni1A67
Encoding: 6759 6759 57
GlifName: uni1A_67
Width: 0
VWidth: 0
GlyphClass: 4
Flags: W
HStem: 352.98 34.2919<-230.849 -197.336> 353.347 27.1535<-66.5697 -36.6723> 417.596 15.1474<-215.665 -188.919> 497 40<-184.408 -79.0005>
VStem: -273 34.8497<394.287 454.985> -196.225 33.374<388.309 416.946> -92.0492 24.2611<381.095 424.393> -31.2973 30.4868<384.498 454.527>
AnchorPoint: "TopPositioningForSara_I" -132 352 mark 0
LayerCount: 3
Fore
SplineSet
-273 429 m 4xbf
 -273 490.735733065 -205.404753413 537 -135 537 c 4
 -45.9940959026 537 -0.810499613777 474.215772696 -0.810499613777 416.225604944 c 0
 -0.810499613777 381.571688795 -19.1432607597 353.346991395 -48.8345656728 353.346991395 c 0
 -52.931945848 353.346991395 -92.0492112807 354.396421476 -92.0492112807 394.473743552 c 0
 -92.0492112807 431.728182702 -53.5490555383 442.441172621 -39 444 c 5
 -39 442 l 5
 -48.6097196277 435.822323097 -67.788140817 423.493338046 -67.788140817 398.60208321 c 0
 -67.788140817 395.090048409 -66.8967296185 380.5005401 -52.0840214509 380.5005401 c 0x7f
 -40.534415953 380.5005401 -31.2972702646 394.467866775 -31.2972702646 416.377836695 c 0
 -31.2972702646 453.265983023 -62.1547353515 497 -134 497 c 4
 -176.454110219 495.673309056 -238.150341891 470.05260789 -238.150341891 423.060573605 c 0
 -238.150341891 403.750304379 -226.212192607 387.271571747 -212.028666311 387.271571747 c 0
 -202.001426996 387.271571747 -196.224740817 394.948838223 -196.224740817 402.692469897 c 0
 -196.224740817 410.699471694 -202.99227016 417.595917942 -212.670068381 417.595917942 c 0
 -215.262584609 417.595917942 -218.063945295 417.101020514 -221 416 c 5
 -223 417 l 5
 -215.966817072 427.901433538 -206.089358574 432.74332347 -196.368271062 432.74332347 c 0
 -179.370477509 432.74332347 -162.850776061 417.939622377 -162.850776061 394.841858766 c 0
 -162.850776061 368.221720263 -190.313496224 353 -210 353 c 4
 -210.570923591 352.986406581 -211.13796678 352.979650061 -211.701129567 352.979650061 c 0
 -252.567043189 352.979650061 -273 388.557330172 -273 429 c 4xbf
EndSplineSet
EndChar

StartChar: uni1A68
Encoding: 6760 6760 58
GlifName: uni1A_68
Width: 0
VWidth: 0
GlyphClass: 4
Flags: W
HStem: 351.705 28.5104<-105.321 -75.983> 351.98 34.2919<-270.702 -236.355> 415.689 16.0539<-255.458 -227.455> 496 40<-223.206 -117.693>
VStem: -313 35.2283<392.432 453.375> -235.175 33.3238<387.315 415.283> -134.617 28.8672<380.766 422.424> -69.6145 29.9345<384.543 439.724>
AnchorPoint: "TopPositioningForSara_I" -172 351 mark 0
LayerCount: 3
Fore
SplineSet
-313 428 m 0x7f
 -313 489.735733065 -245.404753413 536 -175 536 c 2
 -168 536 l 1
 -103.16973514 528.093212532 -77.6772278452 507.220563774 -57 477 c 1
 -41 482 -27 483.25 -17 483.25 c 0
 -7 483.25 -1 482 -1 482 c 1
 -1 479 l 1
 -19 472 -35 465 -48 456 c 1
 -41.6 443.2 -39.68 430.4 -39.68 419.136 c 0
 -39.68 373.330788335 -65.6128447102 351.704973166 -89.4297678393 351.704973166 c 0xbf
 -109.823004821 351.704973166 -134.616973219 365.819082011 -134.616973219 396.516581391 c 0
 -134.616973219 410.124749898 -128.521195062 436.039245224 -89 461 c 1
 -99 474 -110 482 -118 485 c 0
 -136 491 -155 496 -174 496 c 0
 -218.432096535 494.611496983 -277.77173913 467.035686465 -277.77173913 421.191594066 c 0
 -277.77173913 402.591897431 -266.460626634 386.271571747 -251.681795715 386.271571747 c 0
 -241.551034151 386.271571747 -235.174559118 393.481085274 -235.174559118 401.932263827 c 0
 -235.174559118 409.52870279 -241.206210641 415.689388203 -250.316431274 415.689388203 c 0
 -252.973499392 415.689388203 -255.892443989 415.165333504 -259 414 c 1
 -262 416 l 1
 -254.966817072 426.901433538 -245.089358574 431.74332347 -235.368271062 431.74332347 c 0
 -218.370477509 431.74332347 -201.850776061 416.939622377 -201.850776061 393.841858766 c 0
 -201.850776061 366.907351407 -230.675060557 352 -250 352 c 0
 -250.570923591 351.986406581 -251.13796678 351.979650061 -251.701129567 351.979650061 c 0
 -292.567043189 351.979650061 -313 387.557330172 -313 428 c 0x7f
-91.3456714755 380.215390309 m 0
 -76.5084466486 380.215390309 -69.6144736058 402.835981633 -69.6144736058 416.888262435 c 0
 -69.6144736058 422.996814479 -70.8306787322 429.963815985 -74 440 c 1
 -77.4129864669 438.009091228 -105.74981734 420.693781113 -105.74981734 394.607273328 c 0
 -105.74981734 381.858943975 -94.202958997 380.215390309 -91.3456714755 380.215390309 c 0
EndSplineSet
EndChar

StartChar: uni1A69
Encoding: 6761 6761 59
GlifName: uni1A_69
Width: 0
VWidth: 0
GlyphClass: 4
Flags: W
HStem: -216 22.0796<-222.183 -61.2785>
VStem: -297 40<-172.829 -61>
AnchorPoint: "Bottom_Sara_U" -278 -45 mark 0
LayerCount: 3
Fore
SplineSet
-257 -158 m 2
 -257 -162.330011419 -252.242613453 -193.920447074 -113.574082503 -193.920447074 c 0
 -30.3609467456 -193.920447074 -3 -181 -3 -181 c 1
 -1 -184 l 1
 -1 -184 -56 -216 -162 -216 c 0
 -233 -216 -297 -203 -297 -160 c 2
 -297 -61 l 1
 -257 -61 l 1
 -257 -158 l 2
EndSplineSet
EndChar

StartChar: uni1A6A
Encoding: 6762 6762 60
GlifName: uni1A_6A_
Width: 0
VWidth: 0
GlyphClass: 4
Flags: W
HStem: -216 22.0796<-222.183 -61.2785>
VStem: -367 40<-194 -61> -297 40<-172.829 -62.0194 -62 -61>
AnchorPoint: "Bottom_Sara_UU" -312 -46 mark 0
LayerCount: 3
Fore
SplineSet
-367 -61 m 1
 -327 -61 l 1
 -327 -194 l 1
 -367 -194 l 1
 -367 -61 l 1
-257 -158 m 0
 -257 -162.330011419 -252.242613453 -193.920447074 -113.574082503 -193.920447074 c 0
 -30.3609467456 -193.920447074 -3 -181 -3 -181 c 1
 -1 -184 l 1
 -1 -184 -56 -216 -162 -216 c 0
 -233 -216 -297 -203 -297 -160 c 2
 -297 -61 l 1
 -257 -61 l 1
 -257 -62 l 1
 -257 -62 -256.555555556 -88.6666666667 -256.555555556 -117.111111111 c 0
 -256.555555556 -131.333333333 -256.666666667 -146 -257 -158 c 0
EndSplineSet
EndChar

StartChar: uni1A21.sub
Encoding: 57377 57377 61
GlifName: uni1A_21.sub
Width: 0
VWidth: 0
GlyphClass: 4
Flags: W
HStem: -303.448 35.4943<-257.876 -120.041> -199 35.1454<-251.965 -121.043> -151.773 24.1539<-290.011 -269.862> -77.6177 32.9004<-268.819 -211.484 -137.407 -79.2265>
VStem: -314.635 24.5761<-127.525 -107.068> -313.977 35.727<-252.183 -219.398> -269.703 25.0899<-127.565 -107.107> -53.0488 36.5062<-203.528 -106.153>
AnchorPoint: "BottomSubjoinedConsonant" -166 -45 mark 0
LayerCount: 3
Fore
SplineSet
-314.634938922 -111.689003988 m 0xfb
 -314.634938922 -79.8275256363 -291.078113653 -44.7173376496 -242.376969324 -44.7173376496 c 0
 -216.674863526 -44.7173376496 -190.724292051 -55.4883259402 -174 -75 c 1
 -159 -57 -135 -45 -111 -45 c 0
 -42.7926517292 -45 -16.5425916604 -99.2708401743 -16.5425916604 -154.223153951 c 0
 -16.5425916604 -180.643065193 -22.6102489571 -207.220497914 -33 -228 c 1
 -11.5564173879 -249.443582612 -2.84161637423 -272.080488499 -2.84161637423 -292.900232222 c 0
 -2.84161637423 -305.091357037 -5.82971048732 -316.659420975 -11 -327 c 0
 -12 -331 -15 -334 -19 -330 c 1
 -23 -291 -29 -271 -53 -256 c 1
 -86.3819436647 -289.381943665 -140.712439707 -303.447689683 -190.874462767 -303.447689683 c 0
 -209.402020614 -303.447689683 -313.977332648 -300.54689949 -313.977332648 -235.051660672 c 0xf7
 -313.977332648 -197.636533034 -270.148811606 -163.854607993 -196.27561187 -163.854607993 c 0
 -149.722073804 -163.854607993 -98.6623302976 -177.587456674 -61 -204 c 1
 -55.807240412 -191.883560961 -53.0487987254 -176.022017459 -53.0487987254 -159.575576399 c 0
 -53.0487987254 -138.015772537 -57.789139382 -115.450830996 -68 -99 c 1
 -78.1791226416 -86.4718490565 -93.8761792465 -80.6878396235 -109.330377349 -80.6878396235 c 0
 -151.990660061 -80.6878396235 -149.377532362 -119.018718867 -175.43488874 -119.018718867 c 0
 -200.562626292 -119.018718867 -198.050071248 -77.6177231404 -246.482638051 -77.6177231404 c 0
 -254.41366436 -77.6177231404 -262.246579907 -79.3245553203 -269 -84 c 1
 -252.858865328 -88.4021276377 -244.612767884 -102.852484473 -244.612767884 -117.287344258 c 0
 -244.612767884 -138.553687346 -261.09372724 -151.773001538 -279.083529683 -151.773001538 c 0
 -281.717170527 -151.773001538 -314.634938922 -150.986869047 -314.634938922 -111.689003988 c 0xfb
-279.546922203 -127.619075876 m 0
 -274.212319059 -127.619075876 -269.702713321 -123.236249013 -269.702713321 -117.592871881 c 0
 -269.702713321 -112.294358759 -273.495767267 -106.945431305 -279.024983051 -106.945431305 c 0
 -279.344329351 -106.945431305 -279.669467095 -106.963274122 -280 -107 c 0
 -283.392465065 -107 -290.058821646 -110.089823232 -290.058821646 -118.050154541 c 0xfb
 -290.058821646 -123.762550806 -284.744739753 -127.619075876 -279.546922203 -127.619075876 c 0
-278.250381762 -236.736812212 m 0xf7
 -278.250381762 -257.491009516 -228.262887052 -267.953339931 -190.103586626 -267.953339931 c 0
 -149.151461662 -267.953339931 -104.795654926 -257.38191981 -79 -231 c 1
 -112 -208 -154 -199 -194 -199 c 0
 -242.165109291 -199 -278.250381762 -218.767005706 -278.250381762 -236.736812212 c 0xf7
EndSplineSet
Ligature2: "SubjoinedConsonants-0 subtable" uni1A60 uni1A21
Ligature2: "SubjoinedConsonants subtable" uni1A60 uni1A21
LCarets2: 1 0
EndChar

StartChar: uni1A20.sub
Encoding: 57376 57376 62
GlifName: uni1A_20.sub
Width: 0
VWidth: 0
GlyphClass: 4
Flags: W
HStem: -302.17 25.3209<-297.5 -278.517> -301 14<-60 -48.9906> -256 24.3006<-297.733 -278.188> -84.5998 36.5998<-307.591 -232.259 -160.011 -85.5703>
VStem: -390.762 35.6695<-228.518 -132.627> -277.834 25.7541<-276.604 -256.219> -214.701 35.4509<-300.228 -102.677> -37.9167 35.631<-226.147 -133.395>
AnchorPoint: "BottomSubjoinedConsonant" -198 -45 mark 0
LayerCount: 3
Fore
SplineSet
-390.761560115 -179.348189901 m 0xbf
 -390.761560115 -94.6967946384 -322.739229187 -48.9603373542 -268 -48 c 0
 -241 -48 -215 -60 -197 -80 c 1
 -181.118474948 -62.9840803013 -158.318489353 -48.4293344124 -126.794041956 -48.4293344124 c 0
 -67.5677977737 -48.4293344124 -2.28571428571 -98.5025926465 -2.28571428571 -178.599854227 c 0
 -2.28571428571 -190.947567016 -4.97914417956 -255.55951096 -60 -287 c 1
 -54 -287 -47 -287 -41 -285 c 1
 -38 -282 -36 -286 -37 -289 c 1
 -52 -296 -67 -301 -84 -301 c 0x7f
 -84.9 -301.1 -85.81 -301.15 -86.722 -301.15 c 0
 -101.719875666 -301.15 -107.44 -289.463008846 -107.44 -283.144 c 0
 -107.44 -264.243748596 -70.6286224532 -258.94293368 -52 -231 c 0
 -42.6111111111 -215.833333333 -37.9166666667 -197.537037037 -37.9166666667 -179.124828532 c 0
 -37.9166666667 -115.503493619 -90.5380988684 -84.3234057923 -125.60405263 -84.3234057923 c 0
 -148.104599493 -84.3234057923 -170.908970818 -97.8405338068 -178 -120 c 1
 -179 -143 -179.25 -166.25 -179.25 -189.5 c 0
 -179.25 -212.75 -179 -236 -179 -259 c 0
 -179.738416812 -266.384168123 -178.29579607 -274.313595636 -178.29579607 -281.983025137 c 0
 -178.29579607 -294.553401786 -183.733763614 -301.511711132 -195.774320615 -301.511711132 c 0
 -203.760492807 -301.511711132 -211.937560916 -297.249756335 -214 -289 c 1
 -214.738796125 -269.791300749 -214.931772536 -250.44614657 -214.931772536 -231.065349834 c 0
 -214.931772536 -209.865930428 -214.700880526 -188.623865491 -214.700880526 -167.471093315 c 0
 -214.700880526 -155.611576433 -214.77345908 -143.780127822 -215 -132 c 1
 -213 -116 -223 -100 -237 -93 c 1
 -246.22501086 -87.1295385436 -256.856646933 -84.5998119673 -267.641531749 -84.5998119673 c 0
 -303.698348613 -84.5998119673 -355.092107506 -114.394565338 -355.092107506 -178.961133012 c 0
 -355.092107506 -204.608237983 -347.660672141 -232.095813702 -327 -249 c 0
 -325 -250 -322 -255 -320 -253 c 0
 -314.239870411 -240.656865167 -301.031373033 -231.699352056 -287.617966671 -231.699352056 c 0
 -269.829341029 -231.699352056 -252.079587209 -246.1751044 -252.079587209 -266.239675787 c 0
 -252.079587209 -284.603362013 -267.836575108 -302 -286 -302 c 0
 -287.541562831 -302.114189839 -289.073346172 -302.169702741 -290.594977784 -302.169702741 c 0
 -325.668862911 -302.169702741 -390.761560115 -265.000924701 -390.761560115 -179.348189901 c 0xbf
-287.899199515 -276.848799273 m 0xbf
 -287.757839041 -276.848799273 -277.833699474 -276.685067784 -277.833699474 -266.923400283 c 0
 -277.833699474 -261.589084747 -281.266155818 -256 -287 -256 c 0
 -293.809734518 -256 -297.942740046 -262.19180432 -297.942740046 -266.660804059 c 0
 -297.942740046 -271.963582169 -293.35387762 -276.848799273 -287.899199515 -276.848799273 c 0xbf
EndSplineSet
Ligature2: "SubjoinedConsonants-0 subtable" uni1A60 uni1A20
Ligature2: "SubjoinedConsonants subtable" uni1A60 uni1A20
LCarets2: 1 0
EndChar

StartChar: uni1A23.sub
Encoding: 57379 57379 63
GlifName: uni1A_23.sub
Width: 0
VWidth: 0
GlyphClass: 4
Flags: W
HStem: -298.833 24.5965<-241.381 -220.883> -298.454 11.5647<-73.9373 -59.3265> -253.949 23.9665<-241.36 -220.903> -84.5665 34.9193<-220.863 -104.344>
VStem: -323.715 36.6417<-225.464 -140.465> -220.703 24.7106<-273.83 -254.206> -39.3981 37.1625<-218.686 -139.184>
AnchorPoint: "BottomSubjoinedConsonant" -170 -45 mark 0
LayerCount: 3
Fore
SplineSet
-233.343464623 -298.833444146 m 0xbe
 -275.613933456 -298.833444146 -323.715234725 -229.285248186 -323.715234725 -176.050085235 c 0
 -323.715234725 -105.564659215 -244.783058865 -49.6472185651 -159.757362986 -49.6472185651 c 0
 -77.1684669538 -49.6472185651 -2.23559907638 -103.286326609 -2.23559907638 -178.823860025 c 0
 -2.23559907638 -209.706904117 -15.46549418 -240.256137869 -42 -263 c 0
 -51 -272 -64 -279 -74 -286 c 1
 -72.6666666667 -286.666666667 -71.1111111111 -286.888888889 -69.4444444444 -286.888888889 c 0
 -66.1111111111 -286.888888889 -62.3333333333 -286 -59 -286 c 1
 -55 -284 -52 -287 -53 -291 c 1
 -66.416407865 -294.726779962 -80.3883712856 -298.453559925 -94.0877169367 -298.453559925 c 0x7e
 -111.820420761 -298.453559925 -121.782481849 -292.92021863 -121.782481849 -280.485490012 c 0
 -121.782481849 -277.987214158 -121.217173322 -275.434346643 -120 -273 c 0
 -114 -262 -100 -259 -90 -253 c 1
 -57.5976375092 -237.844056254 -39.3980536187 -208.485333908 -39.3980536187 -178.341679294 c 0
 -39.3980536187 -121.040352347 -102.096019082 -84.5664916347 -163.416644243 -84.5664916347 c 0
 -221.610061925 -84.5664916347 -287.073516687 -118.304002747 -287.073516687 -181.571859541 c 0
 -287.073516687 -205.722670706 -279.272061837 -229.905459028 -262 -248 c 1
 -253.757534133 -235.636301199 -241.531035463 -229.98255238 -229.833363512 -229.98255238 c 0
 -209.725353454 -229.98255238 -195.992116924 -245.780157602 -195.992116924 -263.242831122 c 0
 -195.992116924 -281.820141513 -211.928560898 -298.833444146 -233.343464623 -298.833444146 c 0xbe
-230.26919426 -274.236955888 m 0xbe
 -225.959622897 -274.236955888 -220.702713321 -271.269001899 -220.702713321 -265.037209944 c 0
 -220.702713321 -259.725905771 -224.525086306 -253.949073533 -230.089045508 -253.949073533 c 0
 -230.387783726 -253.949073533 -230.69154258 -253.965726953 -231 -254 c 0
 -237.173778677 -254 -241.442021748 -259.869352784 -241.442021748 -264.647462301 c 0
 -241.442021748 -270.078888141 -235.794606148 -274.236955888 -230.26919426 -274.236955888 c 0xbe
EndSplineSet
Ligature2: "SubjoinedConsonants-0 subtable" uni1A60 uni1A23
Ligature2: "SubjoinedConsonants subtable" uni1A60 uni1A23
LCarets2: 1 0
EndChar

StartChar: uni1A25.sub
Encoding: 57381 57381 64
GlifName: uni1A_25.sub
Width: 134
VWidth: 0
GlyphClass: 4
Flags: W
HStem: -271.035 40.5272<-26.2119 37.4482> -270.056 34.8141<-276.715 -229.848 -144.966 -85.3081> -139.762 19.762<-295.763 -272.369> -80.6868 35.6868<-197.735 -171.245> -73.2816 26.5316<-278.38 -249.261> -73.2132 20.6027<-83.9255 -39.7679> 287.483 12.5171<60.2908 91.4339>
VStem: -316.277 20.2765<-119.76 -95.682> -313.275 34.0795<-232.182 -197.747> -272 19.9423<-119.617 -95.2797> -169.567 34.5072<-113.799 -81.0381> -92.9044 49.2658<-82.5567 -63.4395> -50.6645 35.6645<-199.014 -111.038> 58 40<-206.124 250.396>
AnchorPoint: "BottomWithRightVerticalStem" 0 -45 mark 0
LayerCount: 3
Fore
SplineSet
-92.9044449585 -69.4887573357 m 0x7274
 -92.9044449585 -68.7109618484 -92.705802307 -52.610497343 -76.2577501705 -52.610497343 c 0
 -59.1868701885 -52.610497343 -35.0285179848 -65.8831654684 -25 -75 c 1
 -26 -77 -26 -75 -28 -77 c 1
 -33.4858377035 -74.8056649186 -38.3697871009 -73.2132181434 -41.1660104885 -73.2132181434 c 0
 -42.7280690734 -73.2132181434 -43.6386126715 -73.7101717354 -43.6386126715 -74.8767646604 c 0x6674
 -43.6386126715 -75.4285869061 -43.4348800951 -76.1302398099 -43 -77 c 0
 -23 -97 -15 -138 -15 -149 c 2
 -15 -163 l 1
 -16 -182 -22 -200 -31 -216 c 1
 -17.7826057502 -224.811596167 -2.88771276881 -230.507837546 10.751853271 -230.507837546 c 0
 47.4435266199 -230.507837546 58 -190.29038148 58 -144 c 2
 58 212 l 2
 58 214 58 208 57 225 c 0
 56 263 14 259 14 281 c 0
 14 294 36 300 47 300 c 2
 51 300 l 2
 68 300 86 297 111 287 c 1
 111 285 l 1
 102.457809879 286.708438024 93.7988693396 287.482872694 86.1002670009 287.482872694 c 0
 71.2677554508 287.482872694 60 284.608186766 60 280 c 0
 60 271 96 269 98 227 c 1
 98 -144 l 2
 98 -193.900925891 85.4606406644 -271.035062108 7.92859068529 -271.035062108 c 0xa66c
 -19.7293562373 -271.035062108 -42.548888645 -259.017531054 -58 -247 c 1
 -74.419812429 -263.419812429 -94.2077480254 -270.056028991 -113.509872946 -270.056028991 c 0
 -142.404834635 -270.056028991 -170.211114289 -255.184536641 -184 -236 c 1
 -189 -242 -200 -249 -206 -255 c 0
 -214.800546823 -264.710948219 -229.218723953 -269.356819932 -244.671225655 -269.356819932 c 0
 -276.745148993 -269.356819932 -313.27525942 -249.340981496 -313.27525942 -213.05805135 c 0
 -313.27525942 -143.975759456 -169.566703624 -135.30883176 -169.566703624 -96.7017830298 c 0
 -169.566703624 -89.9333394042 -174.022226244 -80.686768897 -180.827087872 -80.686768897 c 0x72ec
 -200.493680545 -80.686768897 -200.530574886 -111.157268061 -222.840019669 -111.157268061 c 0
 -232.451038294 -111.157268061 -240.222864504 -104.575979388 -244 -94 c 0
 -246.488496905 -85.7050103154 -257.233816275 -73.2816093988 -270.528436678 -73.2816093988 c 0
 -273.261106131 -73.2816093988 -276.101482464 -73.8064927792 -279 -75 c 1
 -261.192798252 -78.0702071979 -252.057674963 -92.8288679712 -252.057674963 -107.468339163 c 0
 -252.057674963 -125.545577617 -265.906538905 -139.762001484 -283.427650772 -139.762001484 c 0
 -297.055078073 -139.762001484 -316.27651848 -131.273378548 -316.27651848 -102.741334722 c 0
 -316.27651848 -74.8298354732 -299.455885852 -46.75 -262.53125 -46.75 c 0x2b64
 -260.680555556 -46.75 -258.833333333 -46.8333333333 -257 -47 c 0
 -241 -47 -228 -59 -221 -72 c 1
 -213 -59 -200 -45 -183 -45 c 2
 -181 -45 l 2
 -153.89815405 -45 -135.059546207 -70.7078518861 -135.059546207 -97.240332747 c 0
 -135.059546207 -170.459957706 -279.19574427 -174.432197069 -279.19574427 -216.364959573 c 0
 -279.19574427 -228.163915675 -266.248036952 -236.401669248 -250.641034614 -236.401669248 c 0
 -245.909545223 -236.401669248 -240.933643413 -235.644547804 -236 -234 c 0
 -224.114160402 -227.314215226 -202.846898499 -198.554495617 -180.807139641 -198.554495617 c 0
 -157.650114667 -198.554495617 -146.218518261 -235.241955413 -121.644896743 -235.241955413 c 0
 -86.2210726479 -235.241955413 -50.6644720542 -203.806839696 -50.6644720542 -156.453728737 c 0x72ec
 -50.6644720542 -96.3725646498 -92.9044449585 -89.4804252267 -92.9044449585 -69.4887573357 c 0x7274
-284 -95 m 0
 -291 -95 -296 -101 -296 -108 c 0x2364
 -296 -115 -291 -120 -284 -120 c 0
 -277 -120 -272 -115 -272 -108 c 0
 -272 -101 -277 -95 -284 -95 c 0
EndSplineSet
Ligature2: "SubjoinedConsonants-0 subtable" uni1A60 uni1A25
Ligature2: "SubjoinedConsonants subtable" uni1A60 uni1A25
LCarets2: 1 0
EndChar

StartChar: uni1A26.sub
Encoding: 57382 57382 65
GlifName: uni1A_26.sub
Width: 0
VWidth: 0
GlyphClass: 4
Flags: W
HStem: -299.577 37.4434<-298.228 -266.379> -283.083 20.301<-185.157 -160.846> -235.954 38.3264<-209.007 -161.07> -85.2138 35.2961<-237.185 -116.538>
VStem: -334.556 35.9412<-261.61 -227.143> -160.6 35.8801<-262.395 -236.839> -21.9476 19.1788<-286.461 -187.688>
AnchorPoint: "BottomSubjoinedConsonant" -167 -44 mark 0
LayerCount: 3
Fore
SplineSet
-335.395758722 -158.945774493 m 0xbe
 -335.395758722 -129.95263766 -293.933642953 -50 -181 -50 c 0
 -178.92659933 -49.9454368245 -176.850221521 -49.9176679101 -174.772328551 -49.9176679101 c 0
 -138.767889431 -49.9176679101 -102.308541559 -58.2549530368 -73 -80 c 0
 -26.9330594185 -114.707968931 -2.76872078856 -166.938019424 -2.76872078856 -224.124947708 c 0
 -2.76872078856 -257.559313394 -11.0284831061 -292.688020193 -28 -327 c 1
 -32 -326 l 1
 -25.8868055012 -298.008004137 -21.9475558406 -271.465304833 -21.9475558406 -246.471825002 c 0
 -21.9475558406 -193.78478659 -39.4527779952 -147.982163582 -91 -110 c 0
 -114.844201816 -93.2345455982 -145.906272268 -85.213816659 -176.842818046 -85.213816659 c 0
 -228.942766636 -85.213816659 -280.686706988 -107.961898776 -297 -150 c 1
 -291 -160 -267 -160 -267 -181 c 1
 -264.209852912 -206.11132379 -298.614327287 -233.81762117 -298.614327287 -252.85611302 c 0
 -298.614327287 -255.697334486 -297.529293607 -262.133582353 -287.697353997 -262.133582353 c 0xbe
 -260.234885709 -262.133582353 -239.645676637 -197.628122551 -182.151095746 -197.628122551 c 0
 -150.819868428 -197.628122551 -124.719949796 -218.676117978 -124.719949796 -245.59493796 c 0
 -124.719949796 -275.183858686 -148.556286756 -283.082825945 -162.305321378 -283.082825945 c 0
 -176.88736902 -283.082825945 -190.582575695 -274.898990734 -192 -256 c 0
 -193 -251 -185 -248 -185 -255 c 1
 -183.248595461 -260.254213616 -178.429773064 -262.781833581 -173.329164432 -262.781833581 c 0x7e
 -169.867478104 -262.781833581 -160.6 -261.759165721 -160.6 -250.808 c 0
 -160.6 -244.89146692 -163.229455076 -235.95449556 -179.117064691 -235.95449556 c 0
 -223.819069485 -235.95449556 -236.763339947 -299.576979195 -284.60972051 -299.576979195 c 0
 -314.442157286 -299.576979195 -334.555576219 -278.140400183 -334.555576219 -251.315803233 c 0
 -334.555576219 -218.090919304 -306 -194.495055528 -306 -189 c 1
 -313.926204316 -179.488554821 -335.395758722 -181.010143624 -335.395758722 -158.945774493 c 0xbe
EndSplineSet
Ligature2: "SubjoinedConsonants-0 subtable" uni1A60 uni1A26
Ligature2: "SubjoinedConsonants subtable" uni1A60 uni1A26
LCarets2: 1 0
EndChar

StartChar: uni1A27.sub
Encoding: 57383 57383 66
GlifName: uni1A_27.sub
Width: 0
VWidth: 0
GlyphClass: 4
Flags: W
HStem: -303.158 35.3516<-185.059 -88.0477> -80.9699 34.9699<-183.619 -89.0202>
VStem: -34.505 32.0635<-216.895 -135.579>
AnchorPoint: "BottomSubjoinedConsonant" -137 -45 mark 0
LayerCount: 3
Fore
SplineSet
-2.44148566014 -176.955598196 m 0
 -2.44148566014 -253.245411737 -67.3791114878 -303.157912024 -136.362282473 -303.157912024 c 0
 -186.451140034 -303.157912024 -236.059575329 -277.450859453 -260 -229 c 1
 -214 -175 l 1
 -250 -132 l 1
 -251.802171606 -127.494570984 -259.288032586 -123.801097593 -259.288032586 -119.456296454 c 0
 -259.288032586 -114.313843855 -223.485599011 -47.6425632451 -143 -46 c 1
 -49.6890103778 -46 -2.44148566014 -115.214814982 -2.44148566014 -176.955598196 c 0
-135.584263144 -267.806337569 m 0
 -78.3658000503 -267.806337569 -34.5049797316 -223.891521901 -34.5049797316 -176.866455085 c 0
 -34.5049797316 -127.950403436 -78.582092371 -80.9698615727 -135.500711465 -80.9698615727 c 0
 -136.331106739 -80.9698615727 -137.164235249 -80.9798610903 -138 -81 c 0
 -168 -81 -197 -94 -216 -117 c 1
 -167 -175 l 1
 -216 -232 l 1
 -197.200843064 -255.096107092 -166.57332665 -267.806337569 -135.584263144 -267.806337569 c 0
EndSplineSet
Ligature2: "SubjoinedConsonants-0 subtable" uni1A60 uni1A27
Ligature2: "SubjoinedConsonants subtable" uni1A60 uni1A27
LCarets2: 1 0
EndChar

StartChar: uni1A28.sub
Encoding: 57384 57384 67
GlifName: uni1A_28.sub
Width: 0
VWidth: 0
GlyphClass: 4
Flags: W
HStem: -301.077 36.4218<-282.81 -240.369 -172.518 -82.609> -243 34.8659<-283.048 -238.452> -114.308 54.1968<-295.317 -256.543> -60.734 4.73401<-58.3379 -53.7593>
VStem: -316.142 33.0487<-263.594 -244.158> -205.997 36.3203<-221.405 -130.21> -39.6178 36.3109<-219.907 -131.255>
AnchorPoint: "BottomSubjoinedConsonant" -168 -45 mark 0
LayerCount: 3
Fore
SplineSet
-126.737671653 -265.422848247 m 0xee
 -72.3080429568 -265.422848247 -39.6177621698 -221.623622715 -39.6177621698 -174.918446602 c 0
 -39.6177621698 -144.352206384 -54.4585856923 -110.815825013 -97 -86 c 0
 -106 -81 -119 -75 -119 -63 c 0
 -119 -52 -108 -46 -98 -46 c 0
 -83 -46 -67 -50 -53 -56 c 1
 -48 -56 -49 -61 -51 -64 c 1
 -55.8989794856 -62.3670068381 -60.7979589711 -60.7340136763 -66.2412695107 -60.7340136763 c 0xde
 -67.4646256378 -60.7340136763 -68.7154760665 -60.8164965809 -70 -61 c 1
 -56.0467299953 -72.3370318788 -3.30681571332 -106.489736862 -3.30681571332 -172.743417992 c 0
 -3.30681571332 -249.831971561 -60.7926119023 -301.60341783 -127.650503094 -301.60341783 c 0
 -154.758537946 -301.60341783 -183.105639199 -292.820374934 -209 -273 c 1
 -210.552834217 -273.776417109 -234.41013892 -301.077069389 -266.530639121 -301.077069389 c 0
 -267.21069977 -301.077069389 -316.141540939 -300.959474302 -316.141540939 -254.562735157 c 0
 -316.141540939 -222.843543542 -290.598691014 -208.134091604 -263.152664435 -208.134091604 c 0
 -246.656637649 -208.134091604 -229.699244937 -213.437971914 -216 -222 c 1
 -209.264386078 -209.447264964 -205.997024866 -194.363642817 -205.997024866 -178.98763881 c 0
 -205.997024866 -144.142223939 -222.777392112 -107.795207424 -254 -96 c 1
 -256.900606219 -108.845541827 -266.497684704 -114.307793719 -276.45892487 -114.307793719 c 0
 -289.538547907 -114.307793719 -303.246023805 -104.890299622 -303.246023805 -90.4042313879 c 0
 -303.246023805 -72.6308066109 -287.086081188 -60.110955907 -264.07964873 -60.110955907 c 0
 -217.96986147 -60.110955907 -169.676699635 -108.628095357 -169.676699635 -177.643856377 c 0
 -169.676699635 -199.266657756 -174.716377083 -220.835066382 -185 -240 c 1
 -190 -245 -182 -246 -179 -249 c 0
 -163.816751967 -259.912959524 -145.256584683 -265.422848247 -126.737671653 -265.422848247 c 0xee
-283.092795636 -254.642106788 m 0
 -283.092795636 -256.671130759 -282.990362229 -264.655248463 -268.215971834 -264.655248463 c 0
 -257.021998882 -264.655248463 -245.722082635 -258.722082635 -238 -251 c 1
 -246 -246 -256 -243 -265 -243 c 0
 -272.422379922 -243 -283.092795636 -244.724635472 -283.092795636 -254.642106788 c 0
EndSplineSet
Ligature2: "SubjoinedConsonants-0 subtable" uni1A60 uni1A28
Ligature2: "SubjoinedConsonants subtable" uni1A60 uni1A28
LCarets2: 1 0
EndChar

StartChar: uni1A29.sub
Encoding: 57385 57385 68
GlifName: uni1A_29.sub
Width: 0
VWidth: 0
GlyphClass: 4
Flags: W
HStem: -282.044 36.6664<-307.897 -279.227> -267.058 20.7851<-195.552 -171.762> -219.183 38.387<-219.586 -172.52> -159.326 45.3258<-172.122 -122.44> -82.2319 35.2319<-241.226 -109.742>
VStem: -202 5<-240.141 -235> -171.591 36.4757<-245.774 -219.92> -88.2914 24.666<-292.2 -201.859> -18.8308 15.752<-276.244 -197.839>
AnchorPoint: "BottomSubjoinedConsonant" -180 -45 mark 0
LayerCount: 3
Fore
SplineSet
-346.096357975 -155.935444691 m 0xbf80
 -346.096357975 -129.957118059 -308.084772147 -49.5731586152 -182 -47 c 1
 -152 -48 -121 -52 -94 -65 c 0
 -32.0983766904 -95.5866844589 -3.07872985668 -150.569674045 -3.07872985668 -212.182252404 c 0
 -3.07872985668 -235.172772971 -7.11937736447 -259.086386485 -15 -283 c 1
 -19 -283 l 1
 -18.8893720995 -278.519570028 -18.8307579615 -274.085034552 -18.8307579615 -269.698424458 c 0
 -18.8307579615 -194.781168657 -35.9272904694 -133.842755939 -103 -97 c 0
 -120.38648357 -87.5823213995 -146.301108508 -82.2319102204 -174.09053681 -82.2319102204 c 0
 -223.021197026 -82.2319102204 -277.764299493 -98.8197596858 -302 -139 c 1
 -303 -143 -309 -147 -304 -150 c 0
 -294 -157 -278 -162 -277 -176 c 1
 -274 -196 -290 -197 -299 -213 c 0
 -303 -221 -310 -230 -308 -240 c 1
 -305.82543563 -243.805487648 -302.797072751 -245.377963812 -299.271957482 -245.377963812 c 0xbf80
 -283.34426473 -245.377963812 -257.27514521 -213.27514521 -254 -210 c 0
 -235.186915274 -189.342495203 -212.835869734 -180.795702426 -192.61901654 -180.795702426 c 0
 -161.307410511 -180.795702426 -135.115181696 -201.297254814 -135.115181696 -229.05989531 c 0
 -135.115181696 -266.499016613 -172.024167629 -267 -174 -267 c 0
 -174.547520795 -267.039108628 -175.09198262 -267.058333954 -175.632906947 -267.058333954 c 0
 -188.923312228 -267.058333954 -200.078217256 -255.452479205 -202 -242 c 1
 -205 -238 -199 -232 -197 -235 c 1
 -195.438447187 -241.246211251 -189.609611797 -246.273198909 -183.321257893 -246.273198909 c 0x7f80
 -180.470551204 -246.273198909 -171.590850136 -245.516085614 -171.590850136 -236.082370973 c 0
 -171.590850136 -231.915076955 -171.590850136 -219.182706631 -187.738644873 -219.182706631 c 0
 -236.767933204 -219.182706631 -242.088783552 -282 -295 -282 c 0
 -295.682425896 -282.029670691 -296.364851793 -282.044375434 -297.046781398 -282.044375434 c 0
 -320.023167483 -282.044375434 -345.724902172 -264.714937247 -345.724902172 -235.641975323 c 0
 -345.724902172 -216.709895384 -333.672458273 -204.549956077 -317 -187 c 1
 -322.633722147 -175.732555705 -346.096357975 -179.417230817 -346.096357975 -155.935444691 c 0xbf80
-88.2913703074 -256.140404083 m 0
 -88.2913703074 -188.683766061 -129.395775105 -159.325765386 -144.182748555 -159.325765386 c 0
 -150.61301584 -159.325765386 -150.934620528 -164.535965765 -161.385580834 -164.535965765 c 0
 -174.198418179 -164.535965765 -187.217786631 -154.297627268 -188 -141 c 0
 -190 -125 -173 -114 -158 -114 c 0
 -122.912856121 -114 -63.6253328623 -148.365349105 -63.6253328623 -225.881278848 c 0
 -63.6253328623 -266.18398787 -77.2826732026 -315.730385268 -106 -346 c 1
 -107 -345 -108 -343 -109 -342 c 1
 -94.2924914753 -310.483910304 -88.2913703074 -281.420324089 -88.2913703074 -256.140404083 c 0
EndSplineSet
Ligature2: "SubjoinedConsonants-0 subtable" uni1A60 uni1A29
Ligature2: "SubjoinedConsonants subtable" uni1A60 uni1A29
LCarets2: 1 0
EndChar

StartChar: uni1A2B.sub
Encoding: 57387 57387 69
GlifName: uni1A_2B_.sub
Width: 130
VWidth: 0
GlyphClass: 4
Flags: W
HStem: -300.027 36.9767<-62.36 15.7222> -289.224 35.839<-254.575 -154.681> -80 31.2346<-251.213 -151.27> 298.234 11.766<40.5 84.0821>
VStem: -100.294 34.4588<-205.864 -126.617> 15 46<277.289 297.519> 45 39<-226.492 265.428>
AnchorPoint: "BottomWithRightVerticalStem" 0 -44 mark 0
LayerCount: 3
Fore
SplineSet
-200.774990084 -48.7654103829 m 0x7a
 -100.995639845 -48.7654103829 -65.83494762 -120.622851505 -65.83494762 -166.782086845 c 0
 -65.83494762 -188.074432804 -72.3221598893 -209.452842177 -84 -228 c 1
 -69.5039505852 -249.260872475 -55.0079011704 -263.050262332 -20.6555718626 -263.050262332 c 0
 13.9294606887 -263.050262332 43.2638279558 -245.072430166 45 -160 c 1xba
 46 235 l 1
 45 273 15 270 15 292 c 0
 15 305 35 310 46 310 c 0
 65 310 83 306 100 298 c 1
 100 296 l 1
 92.2559517856 297.548809643 85.5673805475 298.234047214 80.0234535359 298.234047214 c 0
 67.6700003334 298.234047214 61 294.8316665 61 290 c 0xbc
 61 281 83 284 84 238 c 1
 84 -160 l 1
 82.3273448551 -223.560895506 67.5713441397 -300.027012039 -21.061229579 -300.027012039 c 0xba
 -75.8996670893 -300.027012039 -100.198934118 -273.710641283 -111 -258 c 1
 -136.084276428 -278.523498896 -169.257710739 -289.224448933 -202.61469232 -289.224448933 c 0
 -259.652851266 -289.224448933 -305.930858472 -256.908378441 -326 -219 c 1
 -280 -168 l 1
 -325 -114 l 1
 -304.15143851 -74.1982007912 -259.055174668 -48.7654103829 -200.774990084 -48.7654103829 c 0x7a
-100.293767049 -165.36188646 m 0
 -100.293767049 -126.503571432 -133.740722381 -81.345942077 -197 -80 c 1
 -207 -80 l 1
 -236 -81 -262 -93 -282 -113 c 1
 -233 -168 l 1
 -282 -220 l 1
 -262.138267567 -242.917383576 -234.495698542 -253.385428605 -206.072863359 -253.385428605 c 0x78
 -178.685331753 -253.385428605 -150.573341233 -243.666093139 -128 -226 c 0
 -110.4514746 -209.855356632 -100.293767049 -187.798058984 -100.293767049 -165.36188646 c 0
EndSplineSet
Ligature2: "SubjoinedConsonants-0 subtable" uni1A60 uni1A2B
Ligature2: "SubjoinedConsonants subtable" uni1A60 uni1A2B
LCarets2: 1 0
EndChar

StartChar: uni1A2C.sub
Encoding: 57388 57388 70
GlifName: uni1A_2C_.sub
Width: 130
VWidth: 0
GlyphClass: 4
Flags: W
HStem: -330 33.6609<-203.361 -5.82434> -235 34.9852<-231.127 -131.38> -234 38<-69.936 28.4192> -149.516 25.1005<-258.952 -238.869> -79.0573 33.8443<-238.816 -208.711 -138.842 -114.949> 295.246 15.7544<43 99.5382>
VStem: -283.671 24.4638<-124.114 -105.383> -283.037 34.7867<-267.639 -220> -238.667 24.4227<-124.412 -105.337> -106.992 35.9917<-176.13 -86.4731> 25 46.8596<271.253 294.623> 53 39<-171.546 265.371>
AnchorPoint: "BottomWithRightVerticalStem" 0 -46 mark 0
LayerCount: 3
Fore
SplineSet
-222.880620411 -45.2129819273 m 0xdec0
 -196.191345382 -45.2129819273 -187.580313424 -58.129529864 -175 -77 c 1
 -171 -75 -158 -44 -130 -44 c 1
 -80 -47 -71 -96 -71 -128 c 0
 -71 -150 -75 -158 -80 -179 c 1
 -68 -187 -46 -196 -15 -196 c 0
 44 -196 52 -164 52 -108 c 0
 52 41 53 155 53 188 c 2
 53 210 l 2xbed0
 53 212 53 218 52 235 c 0
 51 273 25 270 25 291 c 0
 25 299 30 311 56 311 c 0
 72 311 86 305 106 297 c 0
 106 296 105 295 105 295 c 1
 100.943058496 295.16227766 97.3864637324 295.245553203 94.2661143163 295.245553203 c 0
 87.1604984548 295.245553203 71.8596256227 295.245553203 71.8596256227 286.772798878 c 0xbce0
 71.8596256227 278.905212685 90.0950124379 277.004738804 92 237 c 1
 92 -108 l 2
 92 -156 89 -234 -14 -234 c 0xbcd0
 -50 -234 -83 -224 -102 -211 c 1
 -119 -227 -143 -234 -166 -235 c 1
 -194 -235 -223 -234 -248 -220 c 1
 -248 -226 -248.25 -229.75 -248.25 -233.625 c 0
 -248.25 -269.756627655 -241.217279478 -296.339091618 -80.3096167192 -296.339091618 c 0
 -5.32237433853 -296.339091618 39.8969764854 -287.997422877 105 -255 c 1
 107 -257 l 1
 57 -308 -16 -330 -109 -330 c 0
 -203.823465485 -330 -283.036705958 -316.341053115 -283.036705958 -242.766420827 c 0xddd0
 -283.036705958 -239.00138047 -282.721963483 -234.685361615 -282.721963483 -224.839834871 c 0
 -282.721963483 -204.259327324 -284.275266434 -190.599398437 -284.275266434 -181.162206243 c 0
 -284.275266434 -171.003242842 -282.475279473 -165.737639737 -275 -162 c 0
 -272.486832981 -160.32455532 -269.739739721 -159.584815599 -266.976459375 -159.584815599 c 0
 -259.844049174 -159.584815599 -252.6037961 -164.513167019 -249 -171 c 0
 -238.172504657 -191.515254335 -209.159023986 -200.014768364 -181.391334776 -200.014768364 c 0
 -112.637706215 -200.014768364 -109.071763862 -160.789402486 -107 -138 c 0
 -107 -136.272727273 -106.991735537 -134.462809917 -106.991735537 -132.592036063 c 0
 -106.991735537 -113.884297521 -107.818181818 -89.0909090909 -126 -80 c 0
 -126.592769586 -79.7844474233 -127.171019511 -79.6821481978 -127.738974939 -79.6821481978 c 0
 -137.561813821 -79.6821481978 -146.960769436 -115.21927595 -174.515653398 -115.21927595 c 0
 -189.032828354 -115.21927595 -201.517782025 -104.03840481 -208 -92 c 0
 -211.680339887 -83.9032522475 -220.77864045 -79.0572809 -229.711719389 -79.0572809 c 0
 -232.914855055 -79.0572809 -236.096747752 -79.6803398875 -239 -81 c 1
 -221.781600287 -86.9034513301 -214.243961021 -100.309492006 -214.243961021 -113.717197898 c 0
 -214.243961021 -133.621050425 -230.110855839 -149.515698912 -248.076331651 -149.515698912 c 0
 -253.422870494 -149.515698912 -283.670870088 -147.746621422 -283.670870088 -107.712740506 c 0
 -283.670870088 -65.7461128953 -254.321375316 -45.2129819273 -222.880620411 -45.2129819273 c 0xdec0
-248.184791582 -124.415184401 m 0
 -243.513172556 -124.415184401 -238.666666667 -120.655852804 -238.666666667 -115.37037037 c 0
 -238.666666667 -110.333333333 -242.666666667 -105 -248 -105 c 2
 -249 -105 l 2
 -255.973997834 -105 -259.207049391 -110.521067001 -259.207049391 -114.850233607 c 0
 -259.207049391 -120.401206272 -253.514680526 -124.415184401 -248.184791582 -124.415184401 c 0
EndSplineSet
Ligature2: "SubjoinedConsonants-0 subtable" uni1A60 uni1A2C
Ligature2: "SubjoinedConsonants subtable" uni1A60 uni1A2C
LCarets2: 1 0
EndChar

StartChar: uni1A2D.sub
Encoding: 57389 57389 71
GlifName: uni1A_2D_.sub
Width: 0
VWidth: 0
GlyphClass: 4
Flags: W
HStem: -299.842 36.5143<-258.886 -190.384 -133.551 -68.4393> -165.962 23.5473<-173.807 -154.809> -82.4321 36.0528<-252.478 -180.766>
VStem: -299.996 34.2004<-255.243 -211.838 -138.053 -95.5627> -198.526 24.4619<-142.268 -122.212> -36.7979 34.489<-224.542 -127.506>
AnchorPoint: "BottomSubjoinedConsonant" -153 -45 mark 0
LayerCount: 3
Fore
SplineSet
-299.996296773 -234.01677008 m 0
 -299.996296773 -213.490488932 -286.498818171 -183.83293939 -260 -175 c 1
 -283.953100656 -167.015633115 -300.256187565 -141.181234153 -300.256187565 -115.820958044 c 0
 -300.256187565 -78.5238878648 -263.895149838 -46.3792210116 -217.331006704 -46.3792210116 c 0
 -139.698775808 -46.3792210116 -104.767808093 -139.383904047 -150 -162 c 0
 -154.627965915 -164.722332891 -159.700597612 -165.962446508 -164.753859249 -165.962446508 c 0
 -184.484789994 -165.962446508 -198.525735424 -148.815658634 -198.525735424 -131.965915829 c 0
 -198.525735424 -117.274918286 -188.105009248 -102.918058124 -174 -99 c 1
 -185.344613759 -87.6553862414 -201.586264809 -82.4320690979 -217.217345727 -82.4320690979 c 0
 -241.543671579 -82.4320690979 -264.391193578 -95.0829688038 -265 -117 c 0
 -266 -129 -256 -138 -246 -144 c 0
 -236 -151 -222 -156 -217 -168 c 0
 -215.885933221 -170.67376027 -215.36761594 -173.446812124 -215.36761594 -176.197476361 c 0
 -215.36761594 -208.49756808 -265.79586112 -197.065242676 -265.79586112 -234.785033533 c 0
 -265.79586112 -253.952672343 -246.663094512 -263.32736452 -226.173375691 -263.32736452 c 0
 -184.020779179 -263.32736452 -180.678151129 -231.945529966 -159.599371182 -231.945529966 c 0
 -139.673424994 -231.945529966 -137.517313932 -266.0625 -101.8125 -266.0625 c 0
 -69.8420490403 -266.0625 -36.7978681928 -227.647752383 -36.7978681928 -176.049723287 c 0
 -36.7978681928 -106.944829927 -90.3146438559 -92.7518762523 -90.3146438559 -71.0530864451 c 0
 -90.3146438559 -62.3442529244 -82.9048554949 -53.952496035 -74.1412889664 -53.952496035 c 0
 -54.466505551 -53.952496035 -32.8372202945 -69.4019855039 -25 -75 c 0
 -21 -76 -22 -79 -24 -82 c 1
 -33.6747445164 -76.1951532902 -46.3137049487 -73.6862950513 -42 -78 c 0
 -26.325241747 -94.5455781559 -2.30888315705 -122.466065862 -2.30888315705 -176.289526311 c 0
 -2.30888315705 -256.318289431 -53.1294159916 -301.396476767 -102.826299048 -301.396476767 c 0
 -139.154398509 -301.396476767 -159.664913579 -275.77836214 -162 -275 c 1
 -166.288346482 -279.948092094 -186.022076643 -299.841641057 -226.093004393 -299.841641057 c 0
 -267.899069195 -299.841641057 -299.996296773 -269.243173128 -299.996296773 -234.01677008 c 0
-163.825808678 -142.415184401 m 0
 -159.111161561 -142.415184401 -154.702713321 -138.166573806 -154.702713321 -132.592871881 c 0
 -154.702713321 -127.294358759 -158.495767267 -121.945431305 -164.024983051 -121.945431305 c 0
 -164.344329351 -121.945431305 -164.669467095 -121.963274122 -165 -122 c 0
 -165.72301002 -122 -174.06378764 -122.215154142 -174.06378764 -132.142984918 c 0
 -174.06378764 -138.057012433 -168.886706535 -142.415184401 -163.825808678 -142.415184401 c 0
EndSplineSet
Ligature2: "SubjoinedConsonants-0 subtable" uni1A60 uni1A2D
Ligature2: "SubjoinedConsonants subtable" uni1A60 uni1A2D
LCarets2: 1 0
EndChar

